<?xml version="1.0" standalone="no"?>
<!DOCTYPE svg PUBLIC "-//W3C//DTD SVG 1.1//EN" "http://www.w3.org/Graphics/SVG/1.1/DTD/svg11.dtd" >
<svg>
<metadata>
Created by FontForge 20120731 at Tue Dec  9 22:56:04 2014
 By Orthosie Webhosting
</metadata>
<defs>
<font id="GillSans-BoldItalic" horiz-adv-x="278" >
  <font-face 
    font-family="GillSans-BoldItalic"
    font-weight="400"
    font-style="italic"
    font-stretch="normal"
    units-per-em="1000"
    panose-1="0 0 6 0 0 0 0 2 0 0"
    ascent="800"
    descent="-200"
    x-height="454"
    cap-height="682"
    bbox="-190 -230 1074 915"
    underline-thickness="50"
    underline-position="-55"
    unicode-range="U+0020-F002"
  />
<missing-glyph 
 />
    <glyph glyph-name=".notdef" 
 />
    <glyph glyph-name="glyph1" horiz-adv-x="0" 
 />
    <glyph glyph-name="glyph2" 
 />
    <glyph glyph-name="space" unicode=" " 
 />
    <glyph glyph-name="space" unicode="&#xa0;" 
 />
    <glyph glyph-name="exclam" unicode="!" horiz-adv-x="260" 
d="M101 160q8 -1 16.5 -3.5t15.5 -5.5q8 -3 14.5 -7.5t12.5 -10.5t10.5 -12.5t7.5 -14.5q3 -7 5 -15.5t2 -16.5q0 -9 -2 -16.5t-5 -15.5q-3 -7 -7.5 -14t-10.5 -13t-12.5 -10.5t-14.5 -5.5q-7 -3 -15.5 -4.5t-16.5 -1.5q-9 0 -16.5 1.5t-15.5 4.5q-7 1 -14 5.5t-13 10.5
q-7 6 -11.5 13t-7.5 14q-3 8 -4.5 15.5t-1.5 16.5q0 8 1.5 16.5t4.5 15.5q3 8 7.5 14.5t11.5 12.5q6 6 13 10.5t14 7.5q8 3 15.5 5t16.5 2v2v0v0zM159 213h-80l17 304q1 13 2.5 25.5t2.5 24.5q2 12 3.5 23t3.5 21t5 18.5t6 15.5q3 8 7 13.5t8 9.5l4.5 4.5t5.5 3.5q2 1 3.5 2
t2.5 2q2 0 3.5 1t2.5 2q3 2 6 2.5t7 1.5t8 1.5t8 0.5q8 0 14 -1.5t12 -3.5q6 -3 11.5 -6.5t9.5 -8.5t7 -11t5 -12q2 -7 3.5 -14.5t1.5 -15.5v-3v-4q-1 -2 -1 -4.5v-4.5q0 -4 -0.5 -9.5t-1.5 -11.5q-1 -7 -1.5 -13.5t-2.5 -12.5q-1 -3 -1.5 -6t-0.5 -7q-1 -3 -1.5 -6.5
t-1.5 -6.5q-1 -2 -1.5 -4t-0.5 -4v-1.5v-1.5q-1 -1 -1 -1.5v-1.5v-0.5v-0.5q-1 -1 -1 -1.5v-0.5v-2v-1q-1 -1 -1.5 -2t-0.5 -2v-1.5v-1.5l-72 -287v0v0v0z" />
    <glyph glyph-name="quotedbl" unicode="&#x22;" horiz-adv-x="479" 
d="M88 716h135v-121l-24 -134h-87l-24 134v121v0v0v0zM437 461h-87l-24 134v121h135v-121l-24 -134v0v0v0z" />
    <glyph glyph-name="numbersign" unicode="#" horiz-adv-x="584" 
d="M-6 452h145l38 179h113l-38 -179h154l38 179h111l-38 -179h74v-111h-96l-27 -131h123v-111h-147l-38 -179h-111l37 179h-153l-37 -179h-114l38 179h-72v111h95l27 131h-122v111v0v0v0zM229 341l-27 -131h153l27 131h-153v0v0v0z" />
    <glyph glyph-name="dollar" unicode="$" horiz-adv-x="490" 
d="M473 594l-14 -99l-4 2l-4 2q-2 0 -4 1l-4 2q-4 2 -7.5 4t-6.5 4l-4 2t-3 2q-2 0 -3.5 1t-3.5 2q-1 1 -2.5 2t-3.5 2q-1 0 -2.5 1t-3.5 2t-4.5 2t-4.5 2t-4 1.5t-4 1.5q-3 1 -5 2l-4 2t-4.5 1.5t-4.5 1.5t-4.5 1.5t-4.5 1.5q-3 0 -5 1l-4 2q-3 0 -5.5 0.5t-4.5 1.5
q-3 1 -5.5 1.5t-4.5 1.5l-25 -176q2 -2 4.5 -3.5t5.5 -3.5q2 -1 4.5 -2.5t4.5 -3.5q2 -1 4 -2.5t5 -3.5q2 -1 4 -2.5t4 -3.5q4 -3 7.5 -6t7.5 -6t7.5 -5.5t7.5 -4.5q10 -8 18.5 -16t15.5 -16t12.5 -16.5t9.5 -16.5t7 -17t5 -18q2 -10 3.5 -19.5t1.5 -19.5q0 -19 -3.5 -36
t-9.5 -34q-7 -16 -16.5 -31.5t-22.5 -29.5t-28.5 -25.5t-33.5 -19.5t-37.5 -12.5t-41.5 -6.5l-16 -115h-78l16 118q-4 2 -7.5 2.5t-6.5 1.5q-4 1 -7 1h-6h-6t-6 1t-6 1.5t-6 1.5q-6 2 -11.5 3.5t-10.5 3.5q-6 2 -11.5 4t-10.5 4q-2 1 -4 1.5t-4 1.5t-3.5 1.5t-3.5 1.5l-4 2
l-4 2l-4 2l-4 2l-4 2l-4 2q-3 1 -5 2l-4 2l-4 2t-4 3q-3 1 -5 2.5t-4 2.5l18 103q10 -7 20 -13.5t20 -11.5q10 -6 19.5 -10.5t19.5 -8.5q2 -1 4.5 -2t5.5 -2q2 -1 4.5 -1.5t4.5 -1.5q5 -1 10 -2.5t10 -3.5q5 -1 9.5 -2t8.5 -2l10 -2t10 -1l27 196q-17 8 -32 17t-28 19
t-24 20.5t-20 20.5q-9 11 -15.5 22t-11.5 24q-4 13 -6 27t-2 30q0 17 3 33t9 31t15 29.5t21 27.5q12 14 27 24.5t33 18.5t38.5 13.5t44.5 8.5l5 39h78l-6 -43q5 -1 9.5 -2.5t8.5 -2.5q5 -2 9.5 -3t8.5 -3q5 -1 9 -3t8 -3q5 -2 9 -3.5t8 -3.5q8 -4 16.5 -7.5t15.5 -7.5
q4 -2 7.5 -4t6.5 -4q4 -3 7.5 -5t6.5 -4v2v0v0zM286 242l-20 -147q8 2 15.5 5t13.5 7t11 8.5t9 9.5t7 10.5t5 11.5t3.5 12t1.5 13q0 5 -0.5 10.5t-2.5 9.5q-1 5 -3.5 9.5t-4.5 8.5q-3 4 -6.5 7.5t-8.5 7.5q-4 4 -9 7.5t-11 7.5v2v0v0zM233 417l19 137q-8 -4 -15.5 -7.5
t-13.5 -6.5q-6 -4 -11 -7.5t-9 -8.5q-4 -4 -7.5 -9.5t-5.5 -10.5t-3 -11t-1 -12v-5.5t1 -4.5q0 -2 0.5 -4.5t1.5 -4.5t2 -4.5t2 -4.5t2.5 -4.5t3.5 -4.5t3.5 -4t2.5 -4q2 -1 4 -2.5t4 -3.5t4.5 -4t4.5 -4q1 -1 2.5 -2t2.5 -1q2 -1 3.5 -2t2.5 -2v2v0v0z" />
    <glyph glyph-name="percent" unicode="%" horiz-adv-x="719" 
d="M707 152q0 -18 -3 -34t-9 -30t-15 -27t-20 -24q-12 -12 -25.5 -21t-27.5 -14q-14 -4 -29 -7t-32 -3t-33 3t-30 7q-14 5 -27 14t-24 21q-12 11 -21 24t-15 27t-8.5 30t-2.5 32q0 17 2.5 32.5t8.5 29.5t15 27t21 25q11 11 24 20t27 15t30 9t33 3t32 -3t29 -9t27.5 -15
t25.5 -20q11 -12 20 -25t15 -27t9 -29.5t3 -32.5v2v0v0zM617 152q0 7 -1.5 13.5t-3.5 13.5q-3 6 -7 12t-9 12q-5 5 -11 9t-12 7q-7 3 -13.5 4.5t-13.5 1.5t-14.5 -1.5t-13.5 -4.5t-12 -7t-11 -9t-9 -11t-6 -13q-3 -7 -4 -14t-1 -15q0 -7 1 -14.5t4 -14.5t7 -13t9 -11
q5 -6 11 -10t12 -7t13 -4t14 -1q8 0 14.5 1t12.5 4t12 7t11 10q5 5 9 11t7 13q2 6 3.5 13.5t1.5 15.5v2v0v0zM651 691l-477 -699h-83l480 699h80v0v0v0zM359 530q0 -18 -3 -34t-9 -30t-15 -27t-20 -25q-12 -12 -25.5 -21t-27.5 -15t-29 -8.5t-32 -2.5t-33 2.5t-30 8.5
t-27 15t-24 21q-12 12 -21 25t-15 27t-8.5 30t-2.5 32q0 17 2.5 32.5t8.5 29.5t15 27t21 25q11 11 24 20t27 15t30 9t33 3t32 -3t29 -9t27.5 -15t25.5 -20q11 -12 20 -25t15 -27t9 -29.5t3 -32.5v2v0v0zM269 530q0 7 -1.5 13.5t-3.5 13.5q-3 6 -7 12t-9 12q-5 5 -11 9t-12 7
q-7 3 -13.5 4.5t-13.5 1.5t-14.5 -1.5t-13.5 -4.5t-12 -7t-11 -9t-9 -11t-6 -13q-3 -7 -4 -14t-1 -15q0 -7 1 -14.5t4 -14.5t7 -13t9 -11q5 -6 11 -10t12 -7t13 -4t14 -1q8 0 14.5 1t12.5 4t12 7t11 10q5 5 9 11t7 13q2 6 3.5 13.5t1.5 15.5v2v0v0z" />
    <glyph glyph-name="ampersand" unicode="&#x26;" horiz-adv-x="729" 
d="M556 306h132q-2 -6 -4 -11t-4 -11q-3 -5 -5 -9.5t-4 -9.5q-4 -9 -9.5 -18t-10.5 -17q-5 -9 -10.5 -17.5t-11.5 -16.5t-12.5 -16.5t-13.5 -16.5l-4 -4l-4 -4q-1 -2 -2.5 -4t-3.5 -4l-4 -4l-4 -4q-1 -1 -1.5 -2t-1.5 -1q-1 -1 -1.5 -2t-1.5 -2q7 -3 13.5 -5.5t13.5 -4.5
q7 -1 13.5 -2.5t12.5 -2.5t11.5 -1.5t9.5 -0.5h8.5h6.5l42 2l-46 -117q-3 0 -6 -1l-6 -2q-1 0 -3 -0.5t-3 -1.5q-2 0 -3.5 -0.5t-3.5 -0.5h-4t-3 -1h-4h-4h-4t-3 -1h-4h-4h-4.5h-4.5h-2h-2q-1 1 -2 1h-2h-2.5h-2.5q-1 1 -2 1h-2h-2h-2q-2 1 -3 1h-2q-2 1 -4.5 1.5t-4.5 0.5
h-2.5h-2.5q-1 1 -2 1h-2q-3 1 -5.5 1.5t-4.5 0.5h-4.5h-4.5q-6 2 -11.5 3.5t-10.5 3.5q-6 2 -11.5 4.5t-10.5 5.5q-5 2 -10.5 5t-10.5 7q-5 3 -9.5 6.5t-9.5 7.5q-5 -3 -10.5 -6t-10.5 -5q-5 -3 -10 -5.5t-10 -4.5t-10 -4.5t-10 -4.5t-10 -3.5t-10 -3.5q-4 -1 -7.5 -2
t-6.5 -2q-4 -1 -7 -1.5t-6 -0.5q-4 0 -7.5 -0.5t-6.5 -1.5q-4 0 -7.5 -0.5t-6.5 -1.5q-7 -1 -13.5 -1.5t-14.5 -1.5h-7.5t-6.5 -1h-7.5h-7.5q-26 0 -50 3.5t-45 9.5q-22 7 -41.5 17.5t-36.5 25.5q-17 14 -30 30.5t-21 35.5q-9 18 -13 39t-4 43q0 20 4 39t11 37q8 18 19 35
t26 33t34.5 29.5t44.5 23.5q25 11 54 18.5t63 12.5q0 1 -0.5 2t-0.5 2v1v2v4v4v2v2v1v2v4v4q0 29 4 55t12 48t20.5 40t28.5 33q16 14 34 25.5t38 18.5q20 8 41.5 11.5t45.5 3.5q18 0 35 -3t32 -8t28.5 -12.5t25.5 -17.5q11 -10 20 -21.5t15 -24.5t9 -27.5t3 -30.5
t-3.5 -31.5t-10.5 -30.5t-16.5 -28.5t-23.5 -26.5q-13 -13 -32 -25t-42 -21q-23 -10 -51.5 -17.5t-62.5 -12.5q1 -3 1.5 -6t1.5 -6t1.5 -6t1.5 -5q0 -1 0.5 -2.5t1.5 -3.5q0 -1 0.5 -2.5t1.5 -2.5v-2.5t1 -3.5q0 -1 0.5 -2t1.5 -2q1 -3 1.5 -5.5t1.5 -4.5q1 -3 2 -5.5
t2 -4.5q0 -3 1 -5l2 -4t1.5 -4t1.5 -4q2 -4 3.5 -8t3.5 -8t4.5 -8t4.5 -8q0 -1 0.5 -2t1.5 -2q0 -1 0.5 -2t1.5 -2q0 -1 0.5 -2.5t1.5 -2.5t1.5 -2t1.5 -2q2 -2 3.5 -4.5t2.5 -4.5q2 -2 3.5 -4.5t2.5 -4.5q6 5 11.5 10t10.5 11t10.5 12t10.5 13q5 6 8.5 12.5t7.5 13.5
t7.5 14.5t6.5 14.5v2v0v0zM165 210q0 -13 2 -24.5t6 -22.5q5 -10 11 -18.5t14 -16.5t18 -14t20 -10q11 -4 22 -5.5t24 -1.5h3.5h2.5h3.5h2.5h3.5h2.5q2 0 3.5 0.5t2.5 1.5q4 0 7.5 0.5t7.5 1.5t7.5 2.5t7.5 2.5t8 2.5t8 3.5q5 2 9.5 4t9.5 4q-3 4 -5.5 7.5t-4.5 7.5
t-4.5 7.5t-4.5 7.5l-2 4l-2 4l-2 4l-2 4t-2 3.5t-2 3.5t-1.5 4t-1.5 4q-4 8 -8.5 16.5t-7.5 17.5q-4 8 -7 17l-6 18q-3 8 -6 17t-5 18q-3 9 -5 18t-4 19q-15 -3 -28 -6.5t-24 -8.5t-21 -11t-18 -14q-8 -7 -14 -16t-10 -18t-6 -19t-2 -21v2v0v0zM554 548q0 5 -1.5 10.5
t-3.5 10.5q-3 5 -6 10.5t-8 9.5t-10.5 7t-11.5 5t-12.5 3.5t-14.5 1.5q-10 0 -19.5 -2t-17.5 -6t-15 -9t-13 -12t-10.5 -15.5t-7.5 -18.5t-4 -21t-1 -24v-3.5v-3.5v-2.5v-3.5v-1.5v-1.5v-1.5v-0.5v-2v-1v-0.5t1 -0.5v-1.5v-0.5v-1.5v-1.5v-2t1 -1v-2v-2v-0.5t1 -0.5v-1.5
v-0.5v-2v-1q0 -1 0.5 -2t0.5 -2v-2t1 -1q0 -1 0.5 -2t0.5 -2q23 5 42 9.5t34 9.5t26.5 11t18.5 13q7 6 12 13t9 14t6 14.5t2 14.5v2v0v0z" />
    <glyph glyph-name="quotesingle" unicode="'" horiz-adv-x="240" 
d="M194 461h-87l-24 134v121h135v-121l-24 -134v0v0v0z" />
    <glyph glyph-name="parenleft" unicode="(" horiz-adv-x="344" 
d="M275 691h102q-19 -25 -36.5 -51.5t-33.5 -54.5t-30 -58.5t-26 -62.5q-13 -32 -23 -64.5t-18 -65.5q-7 -33 -13 -66.5t-9 -67.5q-1 -6 -1.5 -12t-0.5 -12q-1 -6 -1 -11.5v-10.5q-1 -6 -1 -11.5v-10.5v-11.5v-10.5v-4.5v-4.5v-4.5v-4.5v-4.5v-4.5v-4.5t1 -4.5
q1 -20 2.5 -40t3.5 -38q2 -20 5.5 -40t7.5 -40t8.5 -39t10.5 -37q5 -18 11.5 -35.5t13.5 -33.5l-103 -1q-13 29 -24 55t-21 52q-10 25 -17.5 49.5t-13.5 47.5q-7 22 -11.5 44t-7.5 44q-1 11 -2.5 22t-1.5 23q-1 11 -1.5 22t-0.5 22v18t1 18q0 8 1 17l2 18q2 18 4.5 35.5
t6.5 34.5q2 8 4 16.5t4 17.5t5 18l6 18q3 8 6 16.5t7 17.5q2 5 3.5 9t3.5 9q2 4 4 8.5t4 8.5q7 16 15 32t17 32t19 32l20 32l22 32t23 32q12 17 25.5 33.5t27.5 32.5v2v0v0z" />
    <glyph glyph-name="parenright" unicode=")" horiz-adv-x="344" 
d="M65 -230h-102q20 25 36.5 51t32.5 54t30 58t27 62q12 31 22 63t18 65t13.5 66.5t9.5 67.5v5.5t1 5.5v5v6v6t1 6q0 2 0.5 5t0.5 6v3v3v2.5v2.5v6t1 6v4.5v5.5v6v6v4.5v4.5v4.5v4.5v2v2v1.5v1.5v0.5v1.5q-1 1 -1 2v2v1.5v1.5v0.5v1.5q-1 20 -2.5 40.5t-3.5 40.5l-6 40
t-7 40t-9 39t-10 37q-6 18 -12 35.5t-13 33.5l103 2q13 -28 24 -55t20 -53q9 -25 17 -49.5t15 -47.5q6 -23 10.5 -45.5t7.5 -45.5q3 -22 5 -44.5t2 -44.5q0 -18 -1 -36t-3 -36t-5 -35.5t-7 -34.5t-8.5 -34.5t-10.5 -34.5t-12.5 -34.5t-14.5 -34.5q-4 -8 -8 -15.5t-8 -14.5
q-4 -8 -8 -15.5t-9 -15.5q-9 -16 -18.5 -32t-20.5 -32q-10 -16 -22 -32l-24 -32q-12 -17 -24.5 -33.5t-26.5 -32.5v-1v0v0z" />
    <glyph glyph-name="asterisk" unicode="*" horiz-adv-x="479" 
d="M324 301v-2t1 -2v-1.5v-1.5v-1.5t1 -0.5v-1.5v-0.5v-1.5v-0.5v-1.5t1 -0.5v-1.5v-0.5v-1.5v-0.5q0 -3 -0.5 -5t-1.5 -4t-2.5 -3.5t-3.5 -2.5t-4.5 -2.5t-4.5 -1.5q-3 -1 -6 -1h-6l-61 2q-4 -1 -7 -1.5t-6 0.5q-3 0 -5.5 1t-4.5 2t-3.5 2.5t-2.5 3.5t-1.5 4.5t-0.5 5.5v2
v2v2t1 2v2v2t0.5 2.5t1.5 2.5l44 144l-12 11l-99 -102q-3 -4 -6 -7l-5 -5t-4 -3.5t-4 -3.5q-2 -1 -4 -2.5t-4 -2.5q-1 -1 -2.5 -1t-3.5 1h-1.5h-0.5h-1.5t-0.5 1h-1.5t-0.5 1q-1 0 -1.5 0.5t-0.5 1.5q-1 0 -1.5 0.5l-1.5 1.5l-1.5 1.5t-0.5 1.5l-1.5 1.5t-0.5 1.5
q-1 1 -1.5 2t-0.5 2l-28 55q-1 0 -1.5 1.5t-1.5 2.5q-1 2 -1.5 3.5t-0.5 2.5t-0.5 1.5t-0.5 1.5v0.5v1.5v1.5v1.5v0.5v1.5v2v2l0.5 1t0.5 2t0.5 2t0.5 2q1 0 1.5 1t1.5 2l1.5 1.5l1.5 1.5q1 0 2 0.5t2 1.5q2 1 4 1.5t5 1.5l152 35v2l-152 34q-3 0 -5 0.5t-4 1.5t-3.5 2.5
t-3.5 2.5q-1 2 -2.5 3.5t-2.5 3.5t-1 4v4v2v2t0.5 2t1.5 2v2t1 2q0 1 0.5 2t1.5 2l30 59v0h1v0.5v0.5q0 1 0.5 1.5l1.5 1.5v0v1v0v0l0.5 0.5l1.5 1.5v0v0v0l1 1v0.5v0.5l3.5 3.5t3.5 2.5t4.5 1t4.5 -1l5 -2.5t6 -4.5t7.5 -7t9.5 -9l99 -100l12 11l-44 142q-1 0 -1.5 1
t-0.5 2v2v2v0v1q-1 0 -1 0.5v0.5v0.5v1.5v0v1v0.5v1.5v4.5t1 4.5q0 1 1 2t1 2q1 0 2 1l2 2q2 1 4.5 1.5t5.5 1.5t6.5 1.5t7.5 0.5l58 2q4 -1 7.5 -2t6.5 -2t5.5 -1.5t4.5 -1.5q1 -1 1.5 -2t1.5 -1q1 -1 1.5 -2t1.5 -2q1 -2 1.5 -4.5t0.5 -4.5v-1.5v-0.5v-1v0q-1 -1 -1 -1.5
v-0.5v-1.5v-0.5v-1.5v-0.5q-1 -1 -1 -1.5v-1.5v-1.5v-0.5q-1 -1 -1 -1.5v-0.5l-44 -140l12 -11l99 102q2 2 4.5 4t4.5 4l2 2t3 2q1 0 2 1l2 2t2 1.5t2 0.5q0 1 1 1.5t2 0.5t2 0.5t2 0.5q0 1 1 1h2v0v0h0.5h1.5v-1v0v0h1v0v0v0v0v0h1v-1v0h0.5h1.5v-0.5t1 -0.5v-1v0
q0 -1 0.5 -1h1.5v-0.5t1 -0.5v-1v0q0 -1 0.5 -1.5t1.5 -0.5q0 -1 0.5 -1.5t1.5 -0.5q0 -1 0.5 -1.5t0.5 -1.5q1 -1 1.5 -2.5t1.5 -3.5l25 -43l2 -6t2 -5t1.5 -3.5t1.5 -3.5t1.5 -3.5t0.5 -3.5v-1.5t1 -1.5v-1.5v-0.5q-1 -2 -1.5 -4t-1.5 -4q-1 -1 -1.5 -2.5t-1.5 -2.5
t-2 -1.5t-1 -1.5q-1 -1 -2 -1.5t-2 -0.5q-2 -1 -4.5 -1.5t-4.5 -1.5l-152 -32v-2l152 -33q1 -1 2 -1.5t3 -0.5q1 -1 2 -1.5t2 -1.5t2 -1.5t2 -1.5q0 -1 1 -1.5t2 -1.5t1.5 -2l0.5 -1q1 -1 1.5 -2t0.5 -2v-2t1 -2v-2v-2v-1.5v-0.5q-1 -1 -1 -1.5v-1.5v-1.5v-0.5
q-1 -1 -1 -1.5v-1.5q-1 -1 -1.5 -2.5t-0.5 -3.5q-1 -1 -1.5 -2.5t-1.5 -3.5l-26 -45q-1 -3 -2 -5l-2 -4q-1 -1 -2 -2.5t-2 -2.5t-1.5 -2.5t-1.5 -2.5l-1.5 -1.5t-1.5 -0.5l-1.5 -1.5l-0.5 -0.5h-1.5h-0.5h-1.5h-0.5v0v0h-1v0h-1.5h-0.5q-1 0 -1.5 0.5t-1.5 0.5t-2 1l-2 2
t-2.5 2t-3.5 2q-1 1 -2 1.5t-1 1.5l-2 2l-2 2l-107 112l-12 -11l44 -142v0v0v0z" />
    <glyph glyph-name="plus" unicode="+" horiz-adv-x="584" 
d="M55 289v128h186v186h128v-186h186v-128h-186v-186h-128v186h-186v0v0v0z" />
    <glyph glyph-name="comma" unicode="," horiz-adv-x="260" 
d="M-45 -145l15 61q10 3 17.5 5.5t12.5 5.5q6 3 12 6.5t11 8.5q5 4 10 9.5t9 11.5t7.5 12.5t6.5 13.5q-6 4 -11 7.5t-10 5.5q-4 3 -8 7.5t-7 8.5q-3 5 -5 9.5t-4 10.5q-1 5 -2 11t-1 13q0 8 1.5 16t4.5 15t7.5 13.5t10.5 12.5q6 5 13 9.5t14 7.5q8 3 16 4.5t17 1.5
q10 0 19 -2t18 -6q8 -4 16 -9.5t15 -13.5q7 -7 12 -16t9 -18q3 -9 5 -19t2 -21v-1.5v-1.5v-1.5v-1.5v-1.5v-0.5v0v0v-1.5v-0.5v0v0v-1v0q-1 -10 -3.5 -19.5t-6.5 -19.5q-2 -5 -4.5 -10t-5.5 -10q-8 -15 -19.5 -29.5t-26.5 -27.5q-16 -14 -34 -23.5t-38 -16.5
q-21 -7 -43.5 -10.5t-48.5 -3.5l-3 -1v0v0z" />
    <glyph glyph-name="hyphen" unicode="-" horiz-adv-x="344" 
d="M338 294l-20 -138h-312l19 138h313v0v0v0z" />
    <glyph glyph-name="period" unicode="." horiz-adv-x="260" 
d="M95 160q8 -1 16.5 -3.5t15.5 -5.5q8 -3 14.5 -7.5t12.5 -10.5t10.5 -12.5t7.5 -14.5q3 -7 5 -15.5t2 -16.5q0 -9 -2 -16.5t-5 -15.5q-3 -7 -7.5 -14t-10.5 -13t-12.5 -10.5t-14.5 -5.5q-7 -3 -15.5 -4.5t-16.5 -1.5q-9 0 -16.5 1.5t-15.5 4.5q-7 1 -14 5.5t-13 10.5
q-7 6 -11.5 13t-7.5 14q-3 8 -4.5 15.5t-1.5 16.5q0 8 1.5 16.5t4.5 15.5q3 8 7.5 14.5t11.5 12.5q6 6 13 10.5t14 7.5q8 3 15.5 5t16.5 2v2v0v0z" />
    <glyph glyph-name="slash" unicode="/" horiz-adv-x="281" 
d="M18 -9l169 700h103l-171 -700h-101v0v0v0z" />
    <glyph glyph-name="zero" unicode="0" horiz-adv-x="531" 
d="M506 434v-9.5v-9.5q-1 -4 -1 -8.5v-9.5q-1 -9 -1.5 -18t-1.5 -18q-1 -5 -1.5 -10t-0.5 -9q-1 -5 -1.5 -9.5t-1.5 -9.5q-1 -4 -2 -9t-2 -9q-1 -5 -2 -9.5t-2 -9.5q-6 -28 -14.5 -54t-19.5 -52q-10 -25 -23.5 -50t-29.5 -48t-34 -40.5t-39 -28.5q-21 -10 -43.5 -15.5
t-48.5 -5.5q-22 0 -41 4t-36 11q-17 8 -32 21t-27 30q-13 17 -22 37t-15 44q-6 23 -9 50t-3 57v15.5t1 14.5q0 8 0.5 15.5t1.5 15.5l2 16l2 16t2.5 16t2.5 16q5 29 13.5 57.5t18.5 56.5q11 27 23.5 53t28.5 51t34.5 43.5t39.5 31.5q21 12 45.5 18.5t52.5 6.5q22 0 41.5 -4.5
t35.5 -12.5q17 -9 31.5 -21.5t27.5 -29.5q12 -17 21.5 -37.5t15.5 -44.5t9.5 -50.5t3.5 -56.5v2v0v0zM364 474q0 11 -1.5 21t-3.5 19q-2 8 -5 15t-7 12q-2 3 -4 5l-4 4q-3 2 -5 4t-4 3t-4.5 2t-4.5 2q-3 0 -5.5 0.5t-4.5 0.5q-10 0 -19.5 -3.5t-17.5 -11.5q-8 -7 -15 -18.5
t-13 -26.5t-11 -30.5t-10 -32.5q-4 -16 -8 -33t-7 -35l-4 -24t-4 -23q-1 -11 -2.5 -22.5t-2.5 -22.5t-1.5 -21t-0.5 -19q-1 -9 -1 -16.5v-13.5q0 -13 1 -23.5t2 -19.5q2 -9 4 -16t6 -12q3 -6 7.5 -10t9.5 -7t11 -4t13 -1q9 0 17 3.5t15 10.5q8 8 14.5 18.5t12.5 24.5
t11.5 29t9.5 31q5 16 8.5 32.5t7.5 33.5q1 7 2 13.5t2 13.5q1 6 2 12.5t2 13.5q1 6 2 12.5t2 13.5q0 6 1 12.5t2 12.5q1 12 1.5 22.5t1.5 19.5q1 8 1.5 15t0.5 12v2v0v0z" />
    <glyph glyph-name="one" unicode="1" horiz-adv-x="531" 
d="M399 682l-96 -682h-141l96 682h141v0v0v0z" />
    <glyph glyph-name="two" unicode="2" horiz-adv-x="531" 
d="M440 139l-19 -139h-392v22q42 55 78 103t65 88q29 41 51 73t38 57t28 47t19 41q8 19 12 34.5t4 28.5q0 7 -1.5 13.5t-3.5 12.5q-3 6 -7 11.5t-9 10.5t-11 8.5t-12 6.5q-7 2 -14 3.5t-15 1.5q-7 0 -13.5 -1t-14.5 -3l-8 -2t-7 -2q-4 -2 -8 -3t-8 -3q-8 -4 -17.5 -8.5
t-20.5 -10.5q-10 -6 -22 -13.5t-26 -15.5l19 139q8 6 17 11.5t18 9.5q9 5 18 9t19 7q9 3 18.5 5.5t19.5 3.5q10 2 20.5 3t21.5 1q22 0 41.5 -3.5t37.5 -10.5q17 -7 32 -16.5t28 -23.5q12 -13 21.5 -28t15.5 -31t9.5 -33.5t3.5 -35.5v-2.5v-3.5v-2.5v-3.5q-1 -1 -1 -2.5v-3.5
v-2.5v-3.5v-1.5v-1.5q-1 -1 -1 -1.5v-1.5v-1.5v-1.5q-1 -1 -1 -1.5v-0.5v-1.5v-1.5q-1 -1 -1 -1.5v-1.5v-1.5v-1.5q-1 -1 -1 -1.5v-1.5q-3 -16 -8 -32t-13 -33q-7 -17 -17 -34.5t-21 -35.5q-12 -18 -25.5 -39t-30.5 -44q-16 -23 -35.5 -49.5t-40.5 -55.5l170 2v0v0v0z" />
    <glyph glyph-name="three" unicode="3" horiz-adv-x="531" 
d="M103 519l19 135h3.5t3.5 1q1 0 3 0.5t3 1.5q3 2 6.5 3.5t7.5 2.5q3 1 6.5 2t7.5 2q2 1 3.5 1.5t3.5 1.5q1 0 3 0.5t4 1.5q3 1 6.5 1.5t7.5 1.5q3 1 6.5 2t7.5 2q3 0 6 0.5t7 1.5q3 1 6.5 1.5t7.5 1.5q7 1 13.5 1.5t12.5 1.5t12.5 1.5t13.5 0.5q23 0 43.5 -3.5t39.5 -9.5
t35.5 -15.5t30.5 -21.5q14 -13 25 -27t18 -30t10.5 -33.5t3.5 -37.5q0 -16 -2 -30t-6 -27t-9 -24.5t-13 -22.5q-7 -11 -16 -20t-20 -17q-10 -7 -22 -13t-26 -11q10 -5 18.5 -11t15.5 -14q8 -7 14 -15t11 -17t8.5 -19t6.5 -21q2 -10 3.5 -22t1.5 -24q0 -24 -4.5 -45.5
t-13.5 -41.5q-9 -19 -22.5 -36t-30.5 -31q-18 -15 -38 -26t-43 -18q-23 -6 -48.5 -9.5t-53.5 -3.5h-4.5h-4.5h-4h-4q-2 1 -4 1h-4h-2h-1h-2h-2q-4 1 -7.5 1.5t-7.5 0.5t-7.5 0.5t-7.5 1.5q-3 1 -6.5 1.5t-6.5 0.5q-4 1 -7 1t-6 1q-6 2 -12.5 3.5t-13.5 3.5t-13.5 5t-14.5 6
q-7 3 -14.5 6t-15.5 7l18 132q11 -7 22 -12.5l21 -10.5q10 -4 19.5 -8t18.5 -6q5 -1 9 -2.5t9 -2.5q4 -1 8.5 -2t8.5 -2q9 -1 17.5 -1.5t16.5 -0.5q11 0 21.5 1.5t20.5 4.5t19 8t17 12t14 14.5t10 15.5t6 16.5t2 18.5q0 9 -2 18t-6 16q-4 8 -9.5 14.5t-13.5 12.5
q-7 5 -16 9.5t-19 7.5t-21.5 4.5t-23.5 1.5h-2.5h-3.5h-2h-2h-1.5h-0.5h-1.5h-0.5q-1 -1 -1.5 -1h-0.5h-1.5h-0.5h-2h-2h-2h-1q-1 -1 -2 -1h-2h-2h-2q-2 -1 -4.5 -1.5t-4.5 -0.5h-2.5h-2.5q-2 -1 -3 -1h-2l18 132q5 -2 10.5 -3.5t10.5 -2.5t10.5 -2t10.5 -2t9.5 -1.5
t8.5 -0.5q2 0 4 -0.5t5 -0.5h4h4q11 0 21.5 1.5t20.5 4.5t19 7.5t17 10.5t13.5 13t9.5 14q4 8 6 16t2 17q0 8 -1.5 15t-4.5 14q-3 6 -7.5 12t-9.5 11q-6 5 -12.5 9t-14.5 7q-7 2 -16 3.5t-18 1.5h-1.5h-0.5h-1.5h-0.5h-1.5h-0.5h-1.5h-0.5q-8 -1 -16.5 -1.5t-16.5 -2.5
q-8 -1 -16.5 -3.5t-16.5 -4.5q-9 -3 -18.5 -6t-20.5 -8q-11 -4 -23 -9t-25 -10v2v0v0z" />
    <glyph glyph-name="four" unicode="4" horiz-adv-x="531" 
d="M478 691l-62 -441h74l-13 -93h-74l-22 -157h-141l22 157h-233v114l336 420h113v0v0v0zM305 476l-181 -226h151l32 224l-2 2v0v0v0z" />
    <glyph glyph-name="five" unicode="5" horiz-adv-x="531" 
d="M486 682l-20 -139h-179l-16 -112q26 -4 48 -10t40 -15t32.5 -21t24.5 -26q10 -15 17.5 -30t12.5 -32q5 -16 8 -33.5t3 -35.5q0 -27 -4.5 -51t-13.5 -45q-9 -22 -22.5 -40.5t-30.5 -35.5q-18 -16 -39 -28.5t-44 -20.5q-23 -7 -48.5 -11t-54.5 -4q-13 0 -25 1t-24 3l-12 2
t-12 1q-6 1 -11.5 1.5t-10.5 1.5q-11 3 -21.5 7t-20.5 8q-10 5 -20 10.5t-20 12.5l40 129q7 -6 13.5 -10.5t12.5 -8.5t11.5 -7t10.5 -5q2 -1 4.5 -2.5t5.5 -3.5q2 -1 5 -2l6 -2q2 -1 4.5 -2t5.5 -2q2 -1 4.5 -1.5t5.5 -0.5q2 -1 4.5 -1.5t5.5 -1.5t6 -1.5t6 -0.5q3 -1 6 -1
h6h6h6q13 0 25 1.5t22 5.5q11 3 20 8.5t17 12.5t14.5 15t10.5 17t6 19.5t2 21.5t-2 21.5t-7 19.5q-4 9 -11 17t-15 15q-9 7 -19.5 12t-22.5 8t-25 5t-28 2h-5.5h-4.5q-3 -1 -5.5 -1h-4.5h-4.5h-4.5q-2 -1 -4.5 -1h-4.5q-5 -1 -10 -1.5t-10 -0.5h-4.5t-4.5 -1q-3 0 -5.5 -0.5
t-4.5 -0.5l62 371h316v0v0v0z" />
    <glyph glyph-name="six" unicode="6" horiz-adv-x="531" 
d="M449 682l-172 -266l2 -2q4 0 7.5 1t7.5 2q4 2 8 2.5t8 1.5t8.5 1.5t8.5 0.5h4.5t4.5 1h4.5h4.5q17 0 32.5 -3.5t28.5 -9.5q14 -6 26.5 -15t22.5 -21q11 -13 18.5 -27t13.5 -30q5 -16 8 -33t3 -37q0 -28 -4.5 -53t-13.5 -48q-9 -22 -22.5 -43t-30.5 -40q-18 -19 -38 -32.5
t-42 -22.5t-45.5 -13t-49.5 -4q-24 0 -45 3.5t-40 9.5q-19 7 -35.5 17.5t-30.5 25.5q-14 14 -24.5 31t-18.5 36q-7 20 -10.5 41.5t-3.5 45.5v3.5v2.5v3.5v2.5v2.5v2.5v1.5t1 1.5v1.5v1.5v6v6t0.5 6t1.5 6l4 22t6 22t8.5 22.5t9.5 23.5q5 11 12 24l14 26q8 14 16.5 28
t18.5 29l154 236h159v0v0v0zM356 240q0 7 -1.5 13.5t-3.5 12.5t-5 12t-8 11q-4 5 -9.5 8t-11.5 6q-6 2 -12.5 3.5t-13.5 1.5q-11 0 -21.5 -2t-19.5 -7q-9 -4 -17 -11t-16 -15q-8 -9 -14 -18t-10 -20q-4 -10 -5.5 -21t-1.5 -23q0 -8 1 -15.5t3 -14.5t6 -13t9 -11t10 -9t11 -7
t13.5 -4t15.5 -1q10 0 19.5 2.5t18.5 6.5q9 5 17.5 11.5t15.5 15.5q8 9 13 19t9 20q4 11 6 22.5t2 24.5v2v0v0z" />
    <glyph glyph-name="seven" unicode="7" horiz-adv-x="531" 
d="M520 682l-269 -682h-149l215 543h-224l27 139h400v0v0v0z" />
    <glyph glyph-name="eight" unicode="8" horiz-adv-x="531" 
d="M379 352q11 -6 21.5 -12.5t19.5 -14.5t16.5 -17t14.5 -19q6 -10 11 -21t8 -22t5 -23t2 -25q0 -22 -4.5 -42.5t-12.5 -38.5q-8 -19 -20 -35.5t-29 -31.5q-16 -15 -34.5 -26t-38.5 -19q-20 -6 -42 -9.5t-45 -3.5t-44 3.5t-40 7.5q-19 6 -36 16.5t-32 23.5t-26 28t-19 32
q-7 17 -10.5 36t-3.5 40v7.5t1 7.5q0 4 0.5 8.5t1.5 8.5q0 2 0.5 4.5t1.5 4.5q0 2 0.5 4t1.5 5q0 2 0.5 4t1.5 4t1.5 4.5t1.5 4.5q3 10 7.5 19.5t10.5 18.5q5 9 12 18l14 18q8 8 17 15t19 13q11 6 22 10.5t24 7.5q-9 6 -17 13t-14 14t-11 14.5t-9 14.5q-4 8 -7 16t-5 17
t-3 19.5t-1 20.5q0 20 4 39t11 36q8 17 19.5 32.5t27.5 29.5q15 14 32 25t36 18t39.5 10.5t42.5 3.5q20 0 38 -3t34 -9q17 -6 31 -15t27 -20q13 -12 22.5 -25.5t16.5 -28.5q6 -15 9.5 -31t3.5 -33v-1.5v-0.5v-1.5v-0.5v-1.5v-0.5v0v0v-1v0q-1 -12 -3 -24t-7 -24
q-4 -12 -9.5 -23.5t-13.5 -22.5q-7 -11 -17 -21.5t-21 -19.5q-12 -9 -25.5 -17t-29.5 -15v2v0v0zM335 219q0 7 -1.5 13.5t-3.5 13.5l-6 12t-8 11t-10.5 8.5t-11.5 6.5q-6 2 -12.5 3.5t-14.5 1.5q-9 0 -17 -2t-16 -6q-7 -4 -14 -9t-13 -13q-7 -7 -11.5 -15.5t-7.5 -17.5
t-4.5 -18t-1.5 -20q0 -8 1 -15.5t3 -13.5q2 -7 6 -12.5t8 -10.5q5 -5 10 -9t11 -6q6 -3 13.5 -4t14.5 -1q9 0 17.5 1.5t15.5 5.5q8 3 14.5 9t13.5 13q6 7 10.5 15t7.5 17t5 19t2 21v2v0v0zM363 511q0 2 -0.5 4.5t-0.5 5.5q-1 2 -1.5 4.5t-1.5 4.5q-1 5 -4 9l-6 8
q-4 4 -7.5 7t-8.5 4q-4 2 -9.5 3t-10.5 1q-7 0 -14 -2t-13 -5t-11 -8t-10 -12q-4 -7 -8 -13.5t-6 -14.5l-2 -8t-2 -7q0 -4 -1 -8t-1 -8v-1.5v-0.5v0v0v-1.5v-0.5v0v0v-1v0v-1.5v-0.5v0v0v-1.5v-0.5v0v0v-1v0q0 -6 1 -10.5t2 -9.5q2 -4 4.5 -8.5t6.5 -7.5q3 -4 7.5 -6.5
t8.5 -4.5q5 -1 9.5 -2t10.5 -1q8 0 14.5 1t12.5 4t11 7.5t9 10.5q4 5 7 11t6 13q2 6 4 13t3 14v2v2v1.5v1.5v0.5v1.5v0.5v1.5v1t1 2v0.5v1.5v1.5v1.5v2v0v0z" />
    <glyph glyph-name="nine" unicode="9" horiz-adv-x="531" 
d="M107 0l173 268l-2 2q-4 -2 -7.5 -3.5t-6.5 -2.5l-6 -2l-6 -2t-6 -1.5t-6 -1.5t-5.5 -1h-4.5q-1 -1 -2 -1h-2h-2h-2h-1.5h-0.5h-1.5h-1.5h-2h-2q-17 0 -32.5 3t-29.5 9q-13 6 -25.5 15t-23.5 22q-11 12 -19.5 26t-13.5 30q-6 16 -8.5 33.5t-2.5 36.5v6v6v6.5t1 7.5
q0 3 0.5 6.5t1.5 7.5q0 3 0.5 6.5t1.5 7.5q4 19 10.5 37t15.5 36t21.5 35t27.5 33t32.5 28t38.5 20t44.5 12t50.5 4q23 0 44.5 -3.5t40.5 -11.5q19 -7 35.5 -18t30.5 -25q14 -15 24.5 -31.5t17.5 -36.5q7 -19 10.5 -41.5t3.5 -46.5q0 -7 -0.5 -14t-0.5 -13l-2 -14l-2 -14
t-3 -14t-4 -13l-4 -14t-5 -14q-5 -14 -11.5 -29t-14.5 -30q-8 -16 -17.5 -31.5t-20.5 -32.5l-161 -242h-158v0v0v0zM369 491q0 7 -1.5 13.5t-3.5 13.5q-3 6 -6.5 12t-8.5 11t-11 9t-12 7q-6 2 -12.5 3.5t-14.5 1.5q-10 0 -19 -2.5t-18 -7.5q-9 -4 -16.5 -11.5t-15.5 -16.5
q-7 -10 -13 -19.5t-10 -20.5q-4 -10 -5.5 -21.5t-1.5 -23.5q0 -7 1 -14t3 -13t6 -11l8 -10l10 -8t11 -6t13.5 -3t15.5 -1q9 0 18 1.5t16 4.5q8 3 14.5 7.5t12.5 10.5t11 12t9 13q5 6 8 13t5 14q1 2 1.5 4.5t1.5 5.5v3t1 3q0 1 0.5 2.5t0.5 2.5v2v2v1.5t1 1.5v1.5v1.5v0.5
t1 1.5v0.5v1.5v1.5v1.5v0.5v1.5v2v0v0z" />
    <glyph glyph-name="colon" unicode=":" horiz-adv-x="260" 
d="M95 160q8 -1 16.5 -3.5t15.5 -5.5q8 -3 14.5 -7.5t12.5 -10.5t10.5 -12.5t7.5 -14.5q3 -7 5 -15.5t2 -16.5q0 -9 -2 -16.5t-5 -15.5q-3 -7 -7.5 -14t-10.5 -13t-12.5 -10.5t-14.5 -5.5q-7 -3 -15.5 -4.5t-16.5 -1.5q-9 0 -16.5 1.5t-15.5 4.5q-7 1 -14 5.5t-13 10.5
q-7 6 -11.5 13t-7.5 14q-3 8 -4.5 15.5t-1.5 16.5q0 8 1.5 16.5t4.5 15.5q3 8 7.5 14.5t11.5 12.5q6 6 13 10.5t14 7.5q8 3 15.5 5t16.5 2v2v0v0zM149 462q8 -1 16.5 -3.5t15.5 -5.5q8 -3 14.5 -7.5t12.5 -10.5t10.5 -12.5t7.5 -14.5q3 -7 5 -15.5t2 -16.5q0 -9 -2 -16.5
t-5 -15.5q-3 -7 -7.5 -14t-10.5 -13q-6 -7 -12.5 -11.5t-14.5 -7.5q-7 -3 -15.5 -4.5t-16.5 -1.5q-9 0 -16.5 1.5t-15.5 4.5q-7 3 -14 7.5t-13 11.5q-7 6 -11.5 13t-7.5 14q-3 8 -4.5 15.5t-1.5 16.5q0 8 1.5 16.5t4.5 15.5q3 8 7.5 14.5t11.5 12.5q6 6 13 10.5t14 7.5
q8 3 15.5 5t16.5 2v2v0v0z" />
    <glyph glyph-name="semicolon" unicode=";" horiz-adv-x="260" 
d="M-45 -145l15 61q10 3 17.5 5.5t12.5 5.5q6 3 12 6.5t11 8.5q5 4 10 9.5t9 11.5t7.5 12.5t6.5 13.5q-6 4 -11 7.5t-10 5.5q-4 3 -8 7.5t-7 8.5q-3 5 -5 9.5t-4 10.5q-1 5 -2 11t-1 13q0 8 1.5 16t4.5 15t7.5 13.5t10.5 12.5q6 5 13 9.5t14 7.5q8 3 16 4.5t17 1.5
q10 0 19 -2t18 -6q8 -4 16 -9.5t15 -13.5q7 -7 12 -16t9 -18q3 -9 5 -19t2 -21v-1.5v-1.5v-1.5v-1.5v-1.5v-0.5v0v0v-1.5v-0.5v0v0v-1v0q-1 -10 -3.5 -19.5t-6.5 -19.5q-2 -5 -4.5 -10t-5.5 -10q-8 -15 -19.5 -29.5t-26.5 -27.5q-16 -14 -34 -23.5t-38 -16.5
q-21 -7 -43.5 -10.5t-48.5 -3.5l-3 -1v0v0zM149 462q8 -1 16.5 -3.5t15.5 -5.5q8 -3 14.5 -7.5t12.5 -10.5t10.5 -12.5t7.5 -14.5q3 -7 5 -15.5t2 -16.5q0 -9 -2 -16.5t-5 -15.5q-3 -7 -7.5 -14t-10.5 -13q-6 -7 -12.5 -11.5t-14.5 -7.5q-7 -3 -15.5 -4.5t-16.5 -1.5
q-9 0 -16.5 1.5t-15.5 4.5q-7 3 -14 7.5t-13 11.5q-7 6 -11.5 13t-7.5 14q-3 8 -4.5 15.5t-1.5 16.5q0 8 1.5 16.5t4.5 15.5q3 8 7.5 14.5t11.5 12.5q6 6 13 10.5t14 7.5q8 3 15.5 5t16.5 2v2v0v0z" />
    <glyph glyph-name="less" unicode="&#x3c;" horiz-adv-x="584" 
d="M60 295v120l491 213v-137l-343 -136l343 -136v-137l-491 213v0v0v0z" />
    <glyph glyph-name="equal" unicode="=" horiz-adv-x="584" 
d="M55 180v128h500v-128h-500v0v0v0zM55 398v128h500v-128h-500v0v0v0z" />
    <glyph glyph-name="greater" unicode="&#x3e;" horiz-adv-x="584" 
d="M550 295l-491 -213v137l343 136l-343 136v137l491 -213v-120v0v0v0z" />
    <glyph glyph-name="question" unicode="?" horiz-adv-x="323" 
d="M121 160q8 -1 16.5 -3.5t15.5 -5.5q8 -3 14.5 -7.5t12.5 -10.5t10.5 -12.5t7.5 -14.5q3 -7 5 -15.5t2 -16.5q0 -9 -2 -16.5t-5 -15.5q-3 -7 -7.5 -14t-10.5 -13t-12.5 -10.5t-14.5 -5.5q-7 -3 -15.5 -4.5t-16.5 -1.5q-9 0 -16.5 1.5t-15.5 4.5q-7 1 -14 5.5t-13 10.5
q-7 6 -11.5 13t-7.5 14q-3 8 -4.5 15.5t-1.5 16.5q0 8 1.5 16.5t4.5 15.5q3 8 7.5 14.5t11.5 12.5q6 6 13 10.5t14 7.5q8 3 15.5 5t16.5 2v2v0v0zM178 216h-106q0 14 1.5 27t4.5 26q3 12 7.5 24t10.5 23t12 20.5t13 19.5q6 10 13 19t14 17l10.5 10.5t9.5 11.5q2 3 4.5 5.5
l5.5 5.5l4.5 4.5t4.5 5.5l4.5 4.5t3.5 5.5q2 2 4 5l4 6l2 2t2 3q0 1 1 2.5t2 2.5q2 2 3.5 4.5t2.5 5.5q1 2 1.5 4t1.5 4t1.5 4t1.5 4t1.5 4.5t0.5 4.5v2t1 3v2v2q0 5 -1 10t-3 9t-5 7.5t-7 7.5q-4 3 -8.5 6t-9.5 4q-5 2 -11 3t-12 1t-12.5 -0.5t-13.5 -2.5q-7 -1 -14.5 -3.5
t-15.5 -5.5t-16 -6.5t-16 -7.5q-7 -4 -15.5 -7.5t-16.5 -8.5l-1.5 -1.5l-0.5 -0.5v0v0q-1 -1 -1.5 -1h-0.5v0v0h-1v0h-0.5h-0.5l-1 -1v0v0v0l-1.5 -1.5l-0.5 -0.5v0v0h-1v0l19 134q3 2 6 3.5t6 2.5q2 2 5 3.5t6 2.5q3 2 6 3t6 3l5 2.5t6 2.5q2 1 4.5 2t5.5 2l6 2l6 2
q2 1 4.5 2t5.5 2q2 0 3 0.5l3 1.5q1 0 2.5 0.5t2.5 0.5q3 1 6 1.5t7 1.5q3 0 6.5 0.5t7.5 1.5h3.5t3.5 1h3h4h3.5t3.5 1h3h4q17 0 33 -3t31 -9q14 -6 27.5 -15t25.5 -20q11 -12 20 -25t15 -27t9 -29.5t3 -32.5q0 -16 -2 -31t-6 -28t-9 -24t-13 -21q-4 -5 -8 -9.5t-7 -9.5
q-4 -4 -8 -8.5t-8 -9.5q-8 -9 -16.5 -18t-17.5 -17l-14.5 -14.5t-14.5 -15.5q-7 -7 -14 -14.5t-14 -15.5t-12 -17t-10 -19q-4 -10 -7.5 -20.5t-5.5 -21.5v2v0v0z" />
    <glyph glyph-name="at" unicode="@" horiz-adv-x="979" 
d="M878 9h104q-13 -25 -30 -48.5t-37 -43.5t-44 -37.5t-52 -31.5t-58.5 -25t-63.5 -18q-34 -7 -70 -10.5t-74 -3.5h-6.5h-6.5q-4 1 -7.5 1h-6.5h-6.5h-6.5q-4 1 -7.5 1h-6.5q-4 1 -7.5 1.5t-6.5 0.5h-3.5h-3.5q-1 1 -2.5 1h-3.5q-4 1 -7.5 1.5t-6.5 0.5q-4 1 -7.5 1.5
t-6.5 0.5q-38 6 -74.5 17t-71.5 27q-34 16 -67 36t-65 45q-31 25 -55 56t-40 68q-16 38 -23.5 82.5t-7.5 96.5v16t1 16q0 8 1 16.5t2 16.5q0 4 0.5 8t1.5 8q0 5 1 9.5t2 8.5q0 4 1 8l2 8q0 2 0.5 4t1.5 5q0 2 0.5 4t1.5 4q8 35 21.5 68t32.5 64q18 32 42 62t52 58
q29 29 64 50t77 35t91 21.5t105 7.5q46 0 88 -6.5t79 -19.5q38 -13 71 -32t62 -45t50 -56t36 -64q14 -34 21.5 -71.5t7.5 -78.5v-1.5v-0.5v0v0v-1.5v-0.5v0v0v-1v0v-1.5v-0.5v-1.5v-0.5q-1 -33 -7 -64t-18 -61t-28.5 -58t-38.5 -55t-47.5 -47t-54.5 -33t-61.5 -19.5
t-67.5 -6.5q-10 0 -18 0.5t-16 1.5l-14 4t-12 6q-5 3 -9.5 7t-8.5 9t-6.5 12t-4.5 14l-7.5 -7.5l-6.5 -6.5q-4 -3 -7.5 -5.5t-7.5 -5.5q-7 -5 -15.5 -9.5t-16.5 -7.5q-8 -4 -16.5 -6t-17.5 -4q-4 -1 -9 -1.5t-9 -0.5h-9.5h-9.5q-21 0 -40 3t-36 10t-32 17.5t-28 24.5
t-23 30.5t-16 34.5q-7 18 -10 39t-3 44v10.5v10.5t0.5 10.5t1.5 11.5q1 5 2 10.5t2 11.5q1 5 2.5 10.5t2.5 11.5q5 22 13.5 43t18.5 42q11 20 23.5 39.5t28.5 38.5q16 18 34 32t39 23t44.5 14t49.5 5q11 0 20.5 -1.5t19.5 -3.5t19 -5t18 -7q8 -4 15.5 -9.5t14.5 -11.5
t13 -13t11 -15l12 56h129l-78 -370q-1 -3 -1.5 -5t-0.5 -4v-2.5v-3.5q-1 -1 -1 -2.5v-3.5v-2v-2v-7t1 -5t2.5 -3.5t2.5 -3.5l2.5 -2.5t2.5 -1.5q2 -1 4 -1h4q3 0 7 0.5t8 1.5q5 2 9.5 3.5t9.5 4.5q5 2 10 5t10 7t10.5 8.5t10.5 9.5q9 8 17.5 18t16.5 21t16.5 24t15.5 27
q8 14 13.5 29t9.5 31t6 32.5t2 34.5v4v4q-1 2 -1 4.5v4.5v4.5v4.5q-1 2 -1 4.5v4.5q-1 2 -1.5 4.5t-0.5 4.5v2v3q-1 1 -1 2.5v2.5q-1 2 -1.5 4t-0.5 5q-1 2 -1.5 4.5t-0.5 4.5q-5 20 -13.5 38.5t-20.5 36.5t-27.5 36t-34.5 34q-19 17 -42.5 29t-52.5 20t-63 12.5t-72 4.5
q-46 0 -85.5 -6t-74.5 -18q-34 -12 -63.5 -30t-52.5 -42t-42 -49.5t-34 -51.5t-25 -53t-16 -56q-1 -7 -2.5 -13.5t-2.5 -12.5q-1 -7 -2 -13.5t-2 -12.5q-1 -7 -1.5 -13.5t-0.5 -12.5q-1 -7 -1 -13v-12q0 -46 7.5 -85.5t23.5 -72.5q15 -34 39 -60t55 -47t64.5 -37t69.5 -26
q36 -11 74.5 -16.5t79.5 -5.5q29 0 56.5 2t52.5 6q26 4 49 10.5t44 14.5q20 8 39 18.5t36 22.5t32 26t28 28v2v0v0zM350 203q0 -14 1.5 -26t4.5 -23q3 -10 7.5 -19t10.5 -17t13 -14t15 -10t17 -5.5t19 -1.5q13 0 25 2.5t22 7.5q11 5 20.5 13t17.5 18t15 20.5t13 21.5t11 23
t9 25q2 8 4.5 15.5t3.5 14.5q1 4 1.5 7.5t1.5 7.5q1 3 1.5 6.5t1.5 7.5q1 7 1.5 13.5t1.5 12.5t1.5 11.5t0.5 10.5q0 13 -2 25t-5 22q-3 11 -7.5 20t-10.5 16q-7 8 -14.5 13.5t-15.5 9.5t-17 6t-19 2q-16 0 -29.5 -3.5t-25.5 -10.5t-22.5 -17.5t-19.5 -24.5t-16.5 -29
t-13.5 -30q-6 -16 -10.5 -31.5t-6.5 -32.5q-1 -4 -1.5 -7.5t-1.5 -7.5t-1 -7.5v-7.5q-1 -4 -1 -7.5v-7.5v-7.5v-6.5v2v0v0z" />
    <glyph glyph-name="A" unicode="A" horiz-adv-x="625" 
d="M461 691l120 -691h-149l-21 149h-212l-66 -149h-160l334 691h154v0v0v0zM361 548l-120 -302h158l-36 302h-2v0v0v0z" />
    <glyph glyph-name="B" unicode="B" horiz-adv-x="635" 
d="M140 682h217q30 -1 56 -4.5t47 -9.5t38 -14.5t30 -19.5q12 -12 21.5 -24t16.5 -25t11.5 -25.5t5.5 -26.5v-1.5v-1.5v-1.5t1 -0.5v-2v-1v-1.5v-0.5v-2v-2v-2v-2q0 -13 -2 -24.5t-5 -22.5q-3 -10 -7.5 -20.5t-10.5 -20.5q-7 -10 -15 -19t-17 -17t-19.5 -15t-22.5 -13
q14 -4 27 -10.5t25 -14.5q12 -7 22 -17t19 -21q8 -12 14.5 -24t10.5 -25q5 -13 7 -27t2 -28v-4v-3q-1 -2 -1 -3.5v-3.5v-3v-3q-1 -2 -1 -3.5v-3.5q-1 -4 -1.5 -7.5t-1.5 -6.5q-1 -4 -2 -7.5t-2 -6.5q-4 -13 -11 -26.5t-16 -25.5t-20 -23.5t-25 -22.5q-13 -11 -29.5 -19.5
t-35.5 -13.5t-41 -7.5t-47 -2.5h-334l96 682v0v0v0zM232 304l-29 -190h138q17 -1 31 0t26 5t21 10t16 13q7 8 12 16t8 17t5 18t2 19q0 11 -2.5 21t-7.5 19q-4 9 -11 16t-16 12q-10 5 -20.5 9t-21.5 7t-23 4.5t-25 1.5l-103 2v0v0v0zM270 568l-23 -150h98q13 -1 24 0t21 4
q9 3 16.5 7.5t13.5 10.5q5 6 9 12.5t7 13.5q3 8 4.5 15.5t1.5 15.5t-1.5 15t-4.5 13t-7.5 12t-9.5 10q-6 5 -13.5 8t-16.5 6q-9 2 -20 3.5t-23 1.5l-76 2v0v0v0z" />
    <glyph glyph-name="C" unicode="C" horiz-adv-x="688" 
d="M688 666l-24 -126q-10 2 -19.5 4t-20.5 4q-10 2 -20 4.5t-20 3.5q-5 1 -10 1.5t-10 1.5q-6 0 -11 0.5t-10 1.5q-10 1 -21.5 1.5t-22.5 0.5q-31 0 -58 -3.5t-51 -10.5t-43.5 -17.5t-35.5 -24.5t-30 -29t-25 -30q-11 -16 -19.5 -31.5t-13.5 -32.5q-2 -6 -3.5 -11.5
t-3.5 -10.5q-1 -6 -2.5 -11.5t-2.5 -10.5q-1 -6 -1.5 -11.5t-0.5 -10.5q-1 -5 -1 -10v-10q0 -21 3 -40t10 -36q6 -16 16 -31t23 -27q13 -13 28.5 -22t33.5 -15t38.5 -9t42.5 -3h4.5h5.5h6h6h4.5t5.5 1h3t3 1q1 0 2.5 0.5t2.5 0.5q11 1 23 3t24 5t24 7t25 9q12 5 25 10t26 12
q14 7 28.5 14.5t29.5 16.5l-21 -150q-10 -5 -19.5 -9.5t-18.5 -8.5t-18 -7t-18 -5q-4 -1 -8.5 -2.5t-9.5 -3.5q-4 -1 -8.5 -2t-8.5 -2t-8.5 -2t-9.5 -2q-2 0 -4.5 -0.5t-4.5 -0.5h-4.5h-4.5h-2.5t-3.5 -1h-2.5h-3.5q-3 0 -6 -0.5t-5 -1.5h-2.5t-3.5 -1h-2.5h-3.5
q-3 0 -6 -0.5t-6 -1.5h-6t-6 -1h-6h-6h-6t-6 -1h-6h-6q-37 0 -70.5 5t-63.5 15q-30 11 -56.5 26.5t-49.5 37.5q-23 21 -40.5 46t-28.5 53q-12 28 -17.5 59.5t-5.5 66.5q0 43 7.5 82t23.5 74q15 35 38.5 66t54.5 58t66.5 47.5t75.5 33.5q40 14 85 20.5t94 6.5h2h2h3.5h2.5
q1 -1 2 -1h2h1.5h1.5h0.5h1.5h2h2h3.5h2.5h2h2h1.5h1.5h0.5h1.5q8 -1 17 -1.5t18 -1.5q5 -1 9.5 -1.5t8.5 -0.5q5 -1 9.5 -1.5t8.5 -1.5q5 -1 9.5 -2t8.5 -1q5 -1 9.5 -2t9.5 -2q9 -2 19 -4.5t20 -4.5v2v0v0z" />
    <glyph glyph-name="D" unicode="D" horiz-adv-x="750" 
d="M136 682h227q43 -1 80 -6.5t68 -15.5t56.5 -25.5t44.5 -35.5q20 -20 35.5 -41t27.5 -43t20.5 -45t12.5 -47q1 -5 1.5 -10t1.5 -10q0 -4 0.5 -8.5t1.5 -9.5v-5.5t1 -4.5v-4.5v-4.5v-4.5t1 -4.5v-4.5v-4.5q0 -38 -6 -72.5t-17 -66.5q-12 -31 -29.5 -59t-40.5 -53t-49 -43
t-55 -30q-28 -12 -59.5 -18t-65.5 -6h-352l95 682v0v0v0zM265 568l-63 -454h136q29 -1 54.5 3t47.5 13q21 9 39 22.5t31 31.5t23 37t17 39t10.5 41t4.5 43v0v1v0v0v0.5v1.5v0v1v0v0v0.5v1.5q0 23 -3.5 43.5t-11.5 39.5q-7 20 -18.5 37t-25.5 33q-15 16 -33 28t-39 19
q-22 8 -46.5 12t-52.5 4l-70 2v0v0v0z" />
    <glyph glyph-name="E" unicode="E" horiz-adv-x="583" 
d="M564 682l-16 -114h-281l-23 -161h247l-16 -114h-247l-25 -179h354l-16 -114h-499l96 682h426v0v0v0z" />
    <glyph glyph-name="F" unicode="F" horiz-adv-x="490" 
d="M531 682l-17 -114h-247l-22 -162h213l-16 -114h-213l-42 -292h-145l96 682h393v0v0v0z" />
    <glyph glyph-name="G" unicode="G" horiz-adv-x="740" 
d="M737 666l-17 -126q-7 1 -14.5 2.5t-14.5 2.5q-7 2 -14 3.5t-14 2.5q-3 1 -6.5 1.5t-6.5 1.5q-4 0 -7.5 0.5t-6.5 1.5q-7 1 -13.5 1.5t-12.5 1.5h-4.5h-4.5t-4 0.5t-4 1.5h-5h-4h-2t-2 1h-3h-2h-4.5h-4.5h-4.5t-4.5 1h-4.5h-4.5h-4.5h-4.5q-37 0 -71.5 -4.5t-65.5 -13.5
t-58 -22.5t-51 -31.5t-42 -39t-30 -44q-12 -24 -17.5 -50.5t-5.5 -55.5q0 -24 4 -44.5t12 -38.5t19.5 -32.5t27.5 -25.5q16 -12 33.5 -20.5t36.5 -14.5t40 -8.5t44 -2.5h3.5h2.5h3.5h2.5h2.5h2.5h3.5h2.5h4.5h5.5t6 0.5t6 1.5q3 0 6 0.5t6 1.5q3 0 6.5 0.5t7.5 1.5
q3 1 6.5 1.5t7.5 1.5t8.5 2t8.5 2l17 123h-125l15 108h270l-49 -348q-5 -3 -11 -4.5l-14 -3.5q-7 -1 -15.5 -2t-18.5 -1h-10t-10 -1q-5 0 -10 -0.5t-10 -1.5h-10t-10 -1q-5 0 -10.5 -0.5t-10.5 -1.5h-4.5h-4.5h-5t-4 -1h-5.5h-4.5h-4.5h-4.5h-4.5h-4.5h-4.5t-4.5 -1h-4.5
h-4.5h-4h-4q-50 0 -93 5t-79 15q-36 11 -65 27t-51 38t-38.5 45t-28.5 47t-19.5 49.5t-9.5 51.5v1.5v1.5v2v2q-1 0 -1 1v2v1.5v1.5v3.5v2.5v4v4v11t1 12q0 6 0.5 12t1.5 12l2 12l2 12q2 6 3.5 12t2.5 12q8 28 20.5 55t30.5 52q18 26 41.5 50t51.5 47q29 23 63.5 40.5
t76.5 29.5q42 11 90.5 17t103.5 6h14t14 -1q6 0 13 -0.5t14 -0.5q7 -1 13.5 -1.5t12.5 -0.5q7 -1 13.5 -1.5t12.5 -1.5q13 -1 25 -3.5t23 -4.5t22 -4.5t21 -5.5v2v0v0z" />
    <glyph glyph-name="H" unicode="H" horiz-adv-x="792" 
d="M777 682l-96 -682h-145l40 278h-348l-39 -278h-145l96 682h145l-38 -270h347l38 270h145v0v0v0z" />
    <glyph glyph-name="I" unicode="I" horiz-adv-x="302" 
d="M286 682l-96 -682h-145l96 682h145v0v0v0z" />
    <glyph glyph-name="J" unicode="J" horiz-adv-x="302" 
d="M288 682l-101 -717q-4 -24 -10 -45.5t-15 -40.5q-9 -18 -19.5 -33.5t-24.5 -27.5q-13 -11 -29.5 -20t-34.5 -15q-19 -6 -39.5 -9t-42.5 -3h-3.5h-2.5h-3.5h-2.5q-2 1 -3.5 1h-2.5h-2h-2h-1h-2h-3.5h-2.5q-2 1 -3.5 1h-2.5h-3.5h-3.5q-1 1 -3 1h-4l13 112q15 2 27 3.5
t21 4.5q10 3 17 7.5t13 9.5q6 6 11.5 13.5t9.5 18.5q5 10 8 23.5t5 28.5l97 687h145v0v0v0z" />
    <glyph glyph-name="K" unicode="K" horiz-adv-x="646" 
d="M704 682l-306 -308l265 -374h-168l-257 362l-51 -362h-145l96 682h145l-41 -291l2 -2l288 293h172v0v0v0z" />
    <glyph glyph-name="L" unicode="L" horiz-adv-x="531" 
d="M281 682l-80 -568h310l-16 -114h-455l96 682h145v0v0v0z" />
    <glyph glyph-name="M" unicode="M" horiz-adv-x="948" 
d="M862 682l32 -682h-140l-21 461h-2l-253 -461h-69l-120 474h-2l-154 -474h-146l222 682h159l110 -429l230 429h154v0v0v0z" />
    <glyph glyph-name="N" unicode="N" horiz-adv-x="781" 
d="M767 682l-95 -682h-138l-280 462h-2l-64 -462h-145l96 682h145l275 -445h2l61 445h145v0v0v0z" />
    <glyph glyph-name="O" unicode="O" horiz-adv-x="833" 
d="M797 380q0 -45 -7 -85t-21 -75q-14 -36 -35 -67t-49 -57q-28 -27 -59.5 -46.5t-66.5 -32.5t-74 -19t-81 -6q-37 0 -71 5t-65 15q-31 11 -58.5 27.5t-51.5 38.5q-25 22 -43.5 47.5t-30.5 53.5q-12 29 -18 60.5t-6 66.5q0 41 7 79t21 72q14 35 36 65.5t50 57.5
q29 27 60.5 47.5t67.5 33.5q36 14 76 21t83 7q37 0 70.5 -5.5t64.5 -16.5q30 -10 57 -26.5t50 -38.5t40.5 -46.5t29.5 -53.5q12 -28 18 -59t6 -65v2v0v0zM647 370q0 20 -3.5 39t-10.5 36t-17 33t-24 30t-30 24t-33 17q-18 7 -37.5 10.5t-40.5 3.5q-25 0 -48 -5t-44 -14
q-22 -9 -41.5 -23t-36.5 -32q-18 -19 -31.5 -39t-22.5 -42t-13 -45.5t-4 -49.5q0 -22 3 -42t10 -38t17.5 -33.5t23.5 -29.5q14 -14 29 -24.5t33 -17.5t37.5 -10t41.5 -3q25 0 48 4.5t45 13.5q21 9 40.5 22.5t37.5 32.5q17 18 30.5 39t22.5 43q9 23 13.5 47t4.5 51v2v0v0z
" />
    <glyph glyph-name="P" unicode="P" horiz-adv-x="583" 
d="M141 682h223q23 -1 44.5 -5t40.5 -10q20 -6 38.5 -15.5t34.5 -22.5q17 -13 29 -28.5t21 -34.5q8 -19 12.5 -41t4.5 -48q0 -29 -4.5 -54t-12.5 -46q-9 -21 -21 -37.5t-29 -28.5t-35 -21.5t-36 -16.5t-37.5 -11t-39.5 -6h-2h-2h-2h-2q-1 -1 -2 -1h-2h-2h-2h-4h-4h-4h-4
l-115 2l-36 -257h-145l95 682v0v0v0zM271 574l-29 -210h61q18 -1 33.5 0.5t28.5 5.5t23.5 10t18.5 14t14 16.5t10 18.5t6 20.5t2 21.5t-2 20.5t-6 18.5t-10 17.5t-14 15.5t-18.5 12t-22.5 9q-13 4 -28 6t-32 2l-35 2v0v0v0z" />
    <glyph glyph-name="Q" unicode="Q" horiz-adv-x="833" 
d="M693 -94l-115 -114q-25 7 -48 14.5t-46 18.5q-22 10 -43.5 23.5t-41.5 28.5q-21 16 -40 32.5t-37 33.5q-18 18 -35 36t-33 37q-4 2 -7.5 3.5t-6.5 3.5t-6.5 4t-7.5 4l-4 2l-4 2q-1 1 -2.5 2t-3.5 2q-1 1 -2 1.5t-2 1.5q-1 0 -2 0.5t-2 1.5q-1 0 -2 0.5t-1 1.5
q-1 1 -2 1.5t-2 1.5q-13 8 -25 18t-24 21t-23 24t-22 28q-11 14 -19.5 31.5t-13.5 38.5t-7.5 45t-2.5 51q0 41 7 79t21 72q14 35 36 65.5t50 57.5q29 27 61 47.5t68 33.5q36 14 76 21t83 7q38 0 71.5 -5.5t64.5 -16.5q30 -10 57 -26.5t50 -37.5q23 -22 40 -46.5t29 -53.5
q11 -28 17 -60.5t6 -67.5v-1.5v-1.5v-1.5v-0.5v-2v-1v-1.5v-1.5v-1.5v-1.5v-1.5v-0.5q-1 -1 -1 -2v-1v-1.5v-0.5q-1 -31 -7.5 -60t-17.5 -58q-10 -28 -25 -55.5t-35 -53.5q-19 -27 -44 -48t-55 -38q-30 -16 -64.5 -26.5t-74.5 -14.5v0v0v0l1 -1v0v0v0v0v0v0v0l1 -1v0v0v0v-1
v0v0q5 -5 10 -10.5t11 -10.5t13.5 -10.5t15.5 -10.5t15.5 -9t15.5 -8t16.5 -7.5t16.5 -6.5q3 -1 6 -1.5t6 -1.5t6.5 -1.5t7.5 -1.5q2 0 3.5 -0.5t3.5 -0.5q1 -1 3 -1h3h3.5t3.5 -1h3h3h2h2h2h2q1 1 2 1h2h2h2t2 0.5t2 0.5q0 1 1 1h2q2 0 4 0.5t4 1.5l21 -14v0v0v0zM647 368
q0 18 -3.5 36t-9.5 34q-6 17 -15.5 33t-21.5 31q-13 15 -28.5 26.5t-33.5 18.5q-18 8 -39 12t-44 4q-25 0 -49 -5t-45 -14q-22 -9 -41.5 -22.5t-36.5 -31.5q-18 -19 -31 -39t-22 -43q-9 -22 -13 -47t-4 -51q0 -22 3 -41.5t10 -37.5t17.5 -33t23.5 -29q14 -13 29 -23.5
t33 -17.5q17 -7 36.5 -10t41.5 -3q26 0 50.5 4.5t46.5 14.5q22 9 41.5 23.5t36.5 33.5t29.5 39.5t21.5 42.5q8 22 12.5 45t4.5 48v2v0v0z" />
    <glyph glyph-name="R" unicode="R" horiz-adv-x="646" 
d="M138 682h234q25 -1 46.5 -4.5t40.5 -8.5q19 -6 35 -14.5t29 -19.5t23.5 -23t19.5 -24q8 -12 15 -24.5t11 -25.5l2 -8l2 -8t1.5 -8t1.5 -8t1.5 -8t0.5 -8v-4t1 -3v-4v-4q0 -16 -2.5 -30.5t-7.5 -28.5q-4 -14 -11 -27.5t-16 -26.5q-10 -13 -22 -23.5t-26 -18.5t-30.5 -14
t-36.5 -9v0q6 -4 11.5 -7.5t9.5 -6.5q5 -4 9 -7.5t8 -7.5t7.5 -8.5t6.5 -9.5q2 -3 3.5 -5.5t3.5 -4.5q1 -3 3 -5.5t3 -5.5v-1.5t1 -0.5v-1.5v-0.5q0 -1 0.5 -1.5l1.5 -1.5v-1.5v-0.5q0 -1 0.5 -1h1.5v-1.5v-0.5q0 -1 0.5 -1.5t1.5 -0.5l105 -215h-160l-65 138q-5 9 -9.5 18
t-8.5 16q-4 8 -8 15t-7 14q-4 6 -7.5 12t-6.5 11q-4 5 -7 10t-6 9q-4 5 -8.5 9t-9.5 7q-4 3 -8.5 5.5t-9.5 3.5q-5 2 -10.5 2.5t-11.5 1.5t-12.5 1.5t-14.5 0.5l-31 2l-38 -276h-145l95 682v0v0v0zM267 568l-26 -186h72q18 -1 34 0t29 5q14 4 24.5 10t18.5 14t14.5 15.5
t10.5 16.5q4 8 6 17t2 19t-2 19t-6 17t-9 15t-13 13q-7 5 -16 9.5t-20 7.5q-10 3 -22 4.5t-26 1.5l-71 2v0v0v0z" />
    <glyph glyph-name="S" unicode="S" horiz-adv-x="521" 
d="M509 637l-20 -120q-3 1 -5.5 2.5t-4.5 2.5q-1 1 -2.5 1.5t-2.5 1.5q-2 1 -3 2t-3 2q-3 2 -6 3.5t-6 2.5q-3 2 -6 3.5t-6 2.5q-3 2 -6.5 3t-6.5 3q-4 1 -7 2.5t-6 2.5q-3 2 -6 3l-6 2q-4 2 -7 3l-6 2t-5.5 1.5t-4.5 1.5q-3 0 -5.5 0.5t-4.5 1.5q-4 2 -8.5 2.5t-9.5 1.5
t-9.5 1.5t-9.5 1.5h-4t-4 1h-4h-4q-10 0 -19.5 -1.5t-17.5 -3.5q-9 -3 -16.5 -7t-14.5 -9t-12.5 -11t-8.5 -13q-4 -7 -5.5 -14.5t-1.5 -15.5q0 -6 1 -12t3 -11t5.5 -9.5t7.5 -9.5q5 -4 9.5 -8.5t10.5 -9.5q6 -4 12 -8.5t13 -8.5q3 -3 6.5 -5.5t7.5 -4.5q4 -3 8 -5.5t8 -4.5
q1 -1 2 -1.5t2 -0.5q1 -1 2 -1.5t2 -1.5l4 -2t5 -2q2 -1 4 -2.5t4 -3.5q2 -1 4.5 -2t4.5 -2q11 -7 22.5 -15.5t22.5 -17.5t21 -18.5t20 -20.5q10 -10 17.5 -23t11.5 -27q5 -14 7.5 -30t2.5 -34q0 -21 -3.5 -40t-11.5 -37q-7 -18 -18 -35t-25 -33q-15 -16 -33 -27.5
t-40 -19.5q-22 -6 -46.5 -10t-53.5 -4q-19 0 -36 1.5t-34 3.5q-16 2 -31 4t-29 6t-27.5 9t-26.5 11t-25 13t-23 14l22 121q5 -5 10.5 -9.5t11.5 -8.5t12 -7t13 -6q6 -4 12.5 -7t13.5 -5q7 -3 13.5 -5.5t13.5 -4.5l12 -4l12 -4t12 -3.5t12 -2.5q3 -1 6 -1.5t6 -1.5
q2 0 5 -0.5t6 -0.5q6 -1 11.5 -1h10.5q11 0 21 1t19 4q9 2 16.5 6t14.5 9t12 11t8 13t5 14.5t2 16.5q0 8 -1.5 15t-4.5 14t-7.5 13.5t-10.5 12.5q-6 5 -12.5 10.5t-13.5 11.5t-14.5 11.5t-15.5 10.5q-1 1 -2.5 1.5t-3.5 1.5q-1 1 -2.5 2t-2.5 2q-1 0 -2.5 1t-3.5 2
q-1 1 -2.5 2t-3.5 2q-1 1 -2.5 1.5t-3.5 1.5q-1 1 -2.5 2t-2.5 2t-2.5 2t-3.5 2q-1 1 -2.5 2t-3.5 2q-12 8 -23 15.5t-22 16.5q-10 9 -20.5 18.5t-20.5 19.5t-17 21.5t-12 24.5q-5 14 -7.5 29t-2.5 32q0 22 4 42t13 39q8 18 21 34.5t30 31.5q17 14 36.5 25.5t40.5 18.5
q21 8 45 11.5t50 3.5h3.5h2.5h3.5h3.5q2 -1 3.5 -1h2.5h2h2h1h2q2 0 3.5 -0.5t3.5 -0.5q1 -1 3 -1h3h3.5h3.5q1 -1 3 -1h4q5 -1 9.5 -1.5t8.5 -1.5q5 -1 9.5 -2t9.5 -2t9.5 -2.5t8.5 -3.5q2 -1 4.5 -1.5t4.5 -0.5q2 -1 4.5 -1.5t4.5 -1.5q5 -2 9 -4t9 -3q4 -2 8.5 -4t8.5 -4
q5 -2 9 -4l8 -4q5 -3 9 -5l8 -4v2v0v0z" />
    <glyph glyph-name="T" unicode="T" horiz-adv-x="619" 
d="M666 682l-16 -114h-222l-80 -568h-145l80 568h-216l16 114h583v0v0v0z" />
    <glyph glyph-name="U" unicode="U" horiz-adv-x="750" 
d="M744 682l-60 -425q-5 -36 -13.5 -66t-19.5 -54q-12 -24 -26.5 -43t-32.5 -33t-36.5 -25.5t-38.5 -19.5q-19 -8 -39.5 -12.5t-40.5 -7.5h-4.5t-4.5 -1h-4.5h-4.5q-4 0 -8 -0.5t-8 -1.5h-4.5h-4.5h-4t-4 -1h-4h-4h-4h-4q-40 0 -74 4t-63 12q-28 8 -51.5 21t-41.5 30
t-31.5 37t-22.5 42q-9 23 -13.5 47.5t-4.5 52.5v3.5v3.5v3v3v6.5t1 7.5v3.5v3.5q0 1 0.5 3t0.5 3q0 3 0.5 6.5t1.5 7.5l56 390h145l-55 -386q-1 -4 -1.5 -7t-0.5 -5v-5.5v-4.5q-1 -2 -1 -4.5v-4.5v-4.5v-4.5q0 -16 1.5 -29.5t5.5 -24.5q4 -12 10 -21t13 -17q8 -7 15.5 -14
t15.5 -12t16.5 -9t17.5 -6q2 -1 4 -1.5t4 -0.5q2 -1 4 -1.5t4 -0.5h1.5h1.5q1 -1 2 -1h2q2 -1 4 -1h4q4 -1 7.5 -1.5t7.5 -0.5h6.5h7.5v0v0h0.5h1.5v0v0h0.5h1.5q14 0 28 2.5t27 6.5q13 5 25.5 11t25.5 14q12 8 22 19.5t17 26.5q8 15 13.5 33t8.5 39l58 415h145v0v0v0z" />
    <glyph glyph-name="V" unicode="V" horiz-adv-x="552" 
d="M609 682l-333 -691h-71l-142 691h138l74 -401h2l183 401h149v0v0v0z" />
    <glyph glyph-name="W" unicode="W" horiz-adv-x="948" 
d="M998 682l-336 -691h-59l-110 422l-230 -422h-60l-139 691h137l72 -401h2l217 401h71l102 -401h2l184 401h147v0v0v0z" />
    <glyph glyph-name="X" unicode="X" horiz-adv-x="677" 
d="M742 682l-302 -347l202 -335h-159l-137 227l-203 -227h-180l309 350l-200 332h159l136 -224l195 224h180v0v0v0z" />
    <glyph glyph-name="Y" unicode="Y" horiz-adv-x="563" 
d="M618 682l-257 -396l-40 -286h-145l40 286l-144 396h145l88 -263l158 263h155v0v0v0z" />
    <glyph glyph-name="Z" unicode="Z" horiz-adv-x="635" 
d="M699 682l-455 -568h339l-16 -114h-598l456 568h-331l17 114h588v0v0v0z" />
    <glyph glyph-name="bracketleft" unicode="[" horiz-adv-x="375" 
d="M418 682l-16 -114h-130l-94 -675h129l-16 -114h-260l127 903h260v0v0v0z" />
    <glyph glyph-name="backslash" unicode="\" horiz-adv-x="281" 
d="M290 -9h-101l-171 700h103l169 -700v0v0v0z" />
    <glyph glyph-name="bracketright" unicode="]" horiz-adv-x="375" 
d="M-47 -221l16 114h130l94 675h-129l16 114h260l-127 -903h-260v0v0v0z" />
    <glyph glyph-name="asciicircum" unicode="^" horiz-adv-x="583" 
d="M68 292l184 390h108l179 -390h-139l-96 239l-96 -239h-140v0v0v0z" />
    <glyph glyph-name="underscore" unicode="_" horiz-adv-x="500" 
d="M-6 -75h512v-50h-512v50v0v0v0z" />
    <glyph glyph-name="grave" unicode="`" horiz-adv-x="333" 
d="M301 504h-73l-177 172h161l89 -172v0v0v0z" />
    <glyph glyph-name="a" unicode="a" horiz-adv-x="552" 
d="M521 447l-63 -447h-135l6 42q-3 -4 -6 -7t-6 -5l-6 -4l-6 -4q-1 -1 -2.5 -2t-3.5 -2q-1 -1 -2.5 -1.5t-2.5 -1.5t-2.5 -1.5t-3.5 -1.5q-1 -1 -2.5 -1.5t-3.5 -1.5q-3 -1 -5.5 -2.5t-4.5 -2.5q-3 -1 -5.5 -2t-4.5 -1q-1 0 -2.5 -0.5t-3.5 -0.5h-2.5h-2.5q-3 -1 -5.5 -1.5
t-4.5 -1.5h-2.5t-2.5 -1q-2 0 -3 -0.5t-3 -0.5q-3 0 -5.5 -0.5t-4.5 -1.5h-6h-6h-2.5t-2.5 -1h-3h-2q-17 0 -33 3.5t-30 8.5q-14 6 -27 16.5t-24 23.5q-11 14 -19.5 29t-14.5 33q-6 17 -8.5 36.5t-2.5 41.5v2v2v1v2v4v4v4v4t0.5 4t1.5 4q2 23 8.5 45t16.5 43q11 21 25 41
t33 39q18 19 42.5 33t55.5 24q30 10 66.5 15t79.5 5h4.5h5.5h3h3h2.5h2.5q2 -1 4.5 -1h5.5h4.5h5.5q5 -1 9.5 -1.5t8.5 -0.5h4.5h5.5q2 -1 4.5 -1h5.5q5 -1 9.5 -1.5t8.5 -0.5q5 0 9.5 -0.5t8.5 -1.5q2 -1 4.5 -1.5t4.5 -0.5q2 -1 4.5 -1h4.5q2 -1 4.5 -1.5t5.5 -0.5
q2 -1 4.5 -1.5t5.5 -0.5v2v0v0zM342 132l30 216q-2 -1 -4 -1h-4h-2h-1h-2h-2h-2h-2h-2t-1 1h-2h-2h-2h-2q-17 0 -32 -2t-28 -6t-23.5 -9.5t-18.5 -13.5q-9 -7 -16 -15.5t-13 -16.5q-3 -4 -6 -8.5t-5 -8.5q-2 -5 -4 -9t-4 -9t-3.5 -10t-3.5 -10l-2 -10l-2 -10t-1.5 -9.5
t-0.5 -8.5v-8v-7q0 -10 1 -19.5t3 -17.5t5.5 -15t7.5 -12q5 -6 10 -10.5t11 -7.5t13 -4t15 -1h6h6t6 0.5t6 1.5t6 1.5t6 1.5t6 2.5t7 2.5q3 1 6 2.5t6 2.5q3 2 6 3.5t6 3.5l6 4l6 4t6 4.5t6 5.5v2v0v0z" />
    <glyph glyph-name="b" unicode="b" horiz-adv-x="542" 
d="M261 682l-39 -274q5 3 10.5 6.5t9.5 7.5q2 2 4.5 3.5t4.5 3.5q2 1 4.5 3t4.5 3q1 1 2 1.5l3 1.5q1 0 2 0.5t2 1.5q2 1 4 2.5t5 2.5l4 2l4 2t4.5 1.5t4.5 1.5q3 1 6 1.5t6 1.5t6 1.5t6 1.5h3.5t2.5 1h3.5h2.5h3.5t3.5 1h3h4q18 0 34.5 -3.5t31.5 -11.5q15 -7 29 -18
t26 -25q12 -15 21 -31.5t15 -34.5t9 -38t3 -42v-2v-2v-2v-2q-1 -1 -1 -2v-2v-2v-2v-2v-2v-2v-2q-1 -1 -1 -2.5v-2.5v-2v-2q-3 -22 -9 -43t-16 -41t-23.5 -39t-30.5 -37q-17 -19 -39 -32.5t-48 -22.5q-27 -8 -58 -12t-66 -4h-14h-14q-6 1 -13 1h-13q-13 1 -25.5 1.5
t-23.5 1.5q-6 1 -11.5 1.5t-10.5 0.5q-5 1 -9.5 1.5t-9.5 0.5h-8.5h-9.5q-4 0 -8 0.5t-7 1.5h-2h-2h-2h-2h-1.5h-1.5t-1.5 0.5l-1.5 1.5l95 678h135v0v0v0zM207 298l-28 -194l6 -2t6 -1q3 -1 6 -1h6q2 0 3 -0.5t3 -0.5h2.5h2.5h3h3h2.5h2.5q20 0 36.5 2.5t30.5 7.5t25.5 13
t20.5 18q8 11 15 23t11 25q5 14 7 29.5t2 32.5q0 11 -1.5 21.5t-3.5 19.5q-3 9 -7 17t-9 15t-11 12t-14 8q-7 3 -15 5t-16 2h-2.5h-3.5q-1 -1 -2.5 -1h-3.5q-3 0 -5.5 -0.5t-4.5 -1.5q-3 -1 -5.5 -1.5t-4.5 -1.5q-1 -1 -2.5 -1.5t-2.5 -0.5l-3 -1.5t-2 -1.5t-2.5 -1.5
t-3.5 -1.5q-1 -1 -2.5 -2t-2.5 -2l-2.5 -2.5t-3.5 -2.5l-1.5 -1.5t-1.5 -0.5l-1.5 -1.5l-1.5 -1.5l-6 -6l-6 -6t-6 -6.5t-6 -7.5v2v0v0z" />
    <glyph glyph-name="c" unicode="c" horiz-adv-x="469" 
d="M451 446l-17 -122q-5 1 -9.5 2.5t-9.5 2.5q-2 1 -4 1.5t-4 1.5q-1 0 -2.5 0.5t-3.5 1.5q-4 1 -7 1.5t-6 1.5t-5.5 1.5t-4.5 1.5h-1.5h-0.5h-1v1h-1.5h-0.5h-1.5h-0.5h-1.5h-1.5h-1.5h-1.5h-2h-2h-2t-1 1h-2h-2h-1.5h-1.5h-2h-1h-2h-2h-3.5h-4.5q-17 0 -33 -2.5t-30 -7.5
q-15 -5 -28 -12.5t-24 -17.5q-12 -10 -20.5 -21.5t-14.5 -23.5q-6 -13 -8.5 -26.5t-2.5 -27.5q0 -13 1.5 -24t5.5 -20q4 -10 10 -18t14 -15t17 -12t20 -8q11 -4 23.5 -5.5t26.5 -1.5h2h2h2.5h2.5h2h2h2h2h4h4t4 0.5t4 1.5q5 0 10 1l10 2t10.5 2.5t11.5 2.5q5 2 11 3.5
t13 4.5q7 2 14.5 5t15.5 7l-16 -121q-2 -1 -4.5 -2t-4.5 -2q-3 0 -5.5 -1t-4.5 -1q-3 -1 -7 -1.5t-7 -0.5h-3.5h-3.5h-2.5t-2.5 -1h-3h-3h-2.5t-2.5 -1q-2 0 -3 -0.5t-3 -0.5h-2.5h-2.5h-3h-3h-2.5t-2.5 -1q-2 0 -3 -0.5t-3 -0.5h-4h-4h-2.5t-3.5 -1h-4h-4h-2t-1 -1h-2h-2
h-4h-4h-2.5t-3.5 -1h-3.5h-3.5h-2.5h-3.5q-25 0 -48.5 3.5t-44.5 9.5q-21 8 -39.5 19t-34.5 26t-28 32.5t-20 36.5q-8 20 -12 42t-4 47q0 26 5.5 51t15.5 47q11 23 26.5 43t36.5 38t44.5 31.5t49.5 22.5t54 14t59 5h2h2h1.5h1.5h0.5h1.5q1 -1 2 -1h2h1.5h1.5h0.5h1.5h4.5
h4.5h4.5h4.5q3 0 6 -0.5t7 -0.5q3 -1 6 -1.5t6 -0.5t6 -0.5t7 -0.5q3 -1 6 -1.5t6 -0.5q3 -1 6 -1.5t5 -0.5q3 -1 5.5 -1.5t5.5 -1.5q5 -1 9 -2l8 -2v2v0v0z" />
    <glyph glyph-name="d" unicode="d" horiz-adv-x="542" 
d="M548 682l-95 -676q-9 -2 -18 -3.5t-17 -2.5q-9 0 -17 -1l-16 -2t-16 -1.5t-16 -1.5q-8 0 -15.5 -0.5t-15.5 -1.5h-1.5h-1.5h-2h-1h-2h-2h-1.5h-1.5h-2.5h-3.5h-2.5h-3.5q-31 0 -58 3.5t-51 9.5q-24 7 -45 17.5t-38 25.5q-18 14 -31.5 31.5t-22.5 37.5t-13 42.5t-4 47.5v2
v2v1.5v1.5v0.5v1.5v2v2v3.5t1 2.5q2 22 7 43t15 41q9 20 22.5 39t31.5 38q17 18 39 31.5t47 22.5q26 9 55.5 14t63.5 5h1.5h1.5h1.5h1.5h1.5h1.5h1.5h1.5q2 -1 4.5 -1.5t5.5 -0.5h4.5h5.5h2h2h3.5h2.5q1 -1 2 -1h2h1.5h1.5h0.5h1.5v0h1q0 -1 0.5 -1h0.5h0.5h1.5v-1h1h0.5
h1.5h2h2h2h2l31 227h135v0v0v0zM332 106l33 236q-2 -1 -4.5 -1h-4.5h-4.5h-4.5h-1.5h-0.5h-1.5h-1.5h-2t-2 1h-2h-2h-2h-2q-20 0 -37.5 -3t-31.5 -8q-15 -6 -27 -13.5t-22 -18.5q-10 -10 -17 -21.5t-12 -22.5q-4 -12 -6.5 -24t-2.5 -25t2 -24t6 -21t10 -18t14 -15t18 -13
t21 -9q11 -4 23.5 -5.5t26.5 -1.5h2h2h2h2h0.5h1.5h0.5t1.5 1h0.5h1.5h0.5h1.5h2h2q2 0 3.5 0.5t2.5 1.5h2.5h2.5q2 0 3.5 0.5t2.5 1.5v2v0v0z" />
    <glyph glyph-name="e" unicode="e" horiz-adv-x="510" 
d="M468 208h-297v-2v-2v-1.5v-0.5v-1.5v-0.5v-1v0q-1 -1 -1 -1.5v-0.5v-1.5v-0.5v-1.5v-0.5v-1.5v-0.5q0 -13 1.5 -24t5.5 -20t10 -17t13 -15q8 -7 16 -12t18 -8q9 -3 19.5 -4.5t21.5 -1.5q8 0 16.5 1t17.5 2q9 2 18.5 4t19.5 5t21 6.5t23 7.5q12 5 25 9.5t27 10.5l-24 -111
q-10 -5 -20.5 -9t-21.5 -7q-10 -3 -20.5 -5t-20.5 -3q-10 -2 -20 -3.5t-19 -2.5q-10 -1 -19 -1.5t-17 -0.5q-26 0 -49.5 3.5t-43.5 9.5q-21 8 -39 19t-33 26q-16 15 -27 32.5t-19 37.5q-7 20 -11 42.5t-4 47.5q0 26 4 50t13 46t22.5 42t31.5 39q18 18 37.5 31.5t41.5 22.5
t46 14t50 5q23 0 43 -3.5t38 -10.5t33 -16.5t28 -23.5q13 -13 22.5 -28.5t16.5 -32.5q6 -17 9.5 -36t3.5 -40v-4v-4v-2v-2q-1 -1 -1 -1.5v-1.5v-2v-2q-1 -1 -1 -2v-2v-4v-4q-1 -4 -1.5 -7.5t-0.5 -8.5q-1 -4 -1.5 -8t-1.5 -8v2v0v0zM184 286h159v0v1v0.5t1 1.5v0.5v1.5v0.5
v1.5v2v2v2v2q0 8 -1.5 14.5t-3.5 12.5t-5 11.5t-8 9.5q-4 5 -9.5 8t-11.5 5t-12.5 3.5t-14.5 1.5t-15.5 -1.5t-15.5 -3.5q-7 -3 -13.5 -6.5t-11.5 -8.5q-6 -5 -11 -11.5t-10 -14.5l-8.5 -17t-8.5 -20v2v0v0z" />
    <glyph glyph-name="f" unicode="f" horiz-adv-x="333" 
d="M456 668l-15 -109q-3 1 -5.5 2t-4.5 2q-2 0 -4.5 1t-4.5 2q-4 2 -8 3.5t-8 2.5t-7.5 1.5t-6.5 1.5q-4 1 -7 1.5t-6 1.5h-1.5h-0.5h-1v1h-1.5h-0.5h-1.5h-0.5h-1.5h-0.5h-1v0h-1.5h-0.5h-1.5h-0.5q-11 0 -21 -2t-18 -6q-9 -4 -16 -9.5t-13 -13.5q-7 -8 -12 -18t-9 -22
t-6 -26t-3 -30l87 2l-14 -100h-88l-78 -553h-135l78 553h-92l14 100h93q3 30 9.5 57t15.5 49q9 23 21.5 41t28.5 32q15 14 31 24.5t34 17.5q17 7 36 10.5t39 3.5h2h2h2h2q1 -1 2 -1h2h2h2h2h2h2h2q1 -1 2 -1h2h2h2q5 -1 9.5 -1.5t8.5 -1.5q2 -1 4.5 -1.5t4.5 -0.5
q2 -1 4.5 -1.5t5.5 -1.5q5 -1 9.5 -2.5t9.5 -3.5q3 -1 5.5 -2t5.5 -1q2 -1 4.5 -2t5.5 -2v2v0v0z" />
    <glyph glyph-name="g" unicode="g" horiz-adv-x="490" 
d="M506 454l-13 -100h-73q1 -4 2 -7.5t2 -6.5q2 -3 2.5 -5.5t1.5 -4.5t1.5 -4.5t1.5 -4.5t1.5 -4.5t1.5 -4.5v-2t1 -2v-2v-2v-2t1 -2v-2v-2v-2v-2v-2t1 -2v-2v-2v-2v-2v-1.5v-1.5v-1.5v-1.5v-1.5v-0.5v0v0v-1.5v-0.5v0v0v-1v0q-1 -15 -5 -28.5t-10 -27.5q-7 -13 -16 -26
t-20 -25q-12 -12 -26.5 -21t-31.5 -15t-37.5 -9t-43.5 -3q-13 0 -23.5 -0.5t-18.5 -1.5t-14 -1.5t-10 -1.5t-7 -3.5t-5 -4.5t-3 -5t-1 -6t1 -6t3 -5t6 -3.5t8 -3.5q5 -1 9.5 -2.5l10.5 -3.5q6 -1 12.5 -2.5t13.5 -2.5q2 -1 4 -1.5t4 -0.5h4.5h4.5q2 -1 4.5 -1.5t4.5 -0.5h2
h3q1 -1 2 -1h2q5 -1 9.5 -1.5t8.5 -2.5l10 -2l10 -2q13 -3 25 -7t24 -9q11 -4 22.5 -10t22.5 -13q11 -6 18.5 -14t13.5 -20q5 -11 8 -25.5t3 -30.5q0 -14 -3 -27t-9 -26t-15 -25t-21 -24q-12 -11 -30 -19.5t-41 -14.5t-51.5 -9t-63.5 -3q-28 0 -51 2t-43 5q-19 3 -35 8
t-27 12q-12 7 -21 13.5t-16 14.5q-7 7 -10.5 15.5t-5.5 16.5v1.5v1.5t-0.5 2t-1.5 1v2v2v0.5t-1 0.5v1.5v0.5v1.5v1.5v1.5t-1 1.5v1.5v1.5v1.5v1.5q0 8 2 15.5t5 15.5q1 7 6 14.5t12 13.5q7 7 16 13t19 11q11 5 23 9.5t26 9.5q-7 4 -13.5 7.5t-12.5 7.5q-6 3 -10.5 7.5
t-9.5 10.5q-4 5 -7.5 11t-5.5 12t-3 12t-1 13v0v1v0v0v0.5v1.5v0v1v0v0v0.5v1.5q0 4 1.5 7.5t2.5 7.5q2 4 3.5 7.5t3.5 7.5t4.5 7.5t5.5 6.5q2 2 3.5 3t2.5 3q2 1 3.5 2.5t3.5 2.5v0h1v0v0l0.5 0.5l1.5 1.5v0h1v0v0l0.5 0.5l1.5 1.5v0l1 1h0.5h0.5q1 0 1.5 0.5l1.5 1.5h1.5
h1.5t1.5 0.5l1.5 1.5q2 1 3.5 1.5t2.5 1.5q2 1 3.5 1.5t3.5 1.5q2 0 3.5 0.5t2.5 1.5q2 0 3.5 0.5t2.5 1.5q2 0 3.5 0.5t3.5 1.5q2 0 4.5 0.5t4.5 1.5q-10 6 -18.5 12.5t-16.5 13.5q-7 7 -13.5 14.5t-11.5 15.5t-9 16.5t-6 17.5t-3 19.5t-1 21.5v1.5v1.5v1.5v1.5v0.5v1.5
v0.5v1.5v0v1v0l1 1v0.5v0.5q1 15 5 29.5t11 27.5q8 14 17.5 26.5t22.5 25.5q13 12 28.5 21t33.5 15t38.5 9.5t43.5 3.5l254 2v0v0v0zM190 -43q-12 -1 -22 -2.5t-18 -4.5q-8 -2 -14 -5t-11 -7q-4 -3 -8 -7t-6 -8t-3 -8.5t-1 -9.5q0 -6 1.5 -11t4.5 -9q3 -5 7.5 -8.5
t10.5 -6.5t13.5 -5.5t17.5 -3.5q9 -2 20.5 -2.5t24.5 -0.5q14 0 26.5 0.5t22.5 2.5q10 1 18 3t14 4q6 3 10.5 6t7.5 8q3 4 5 9t2 10q0 4 -1 8.5t-3 7.5q-1 3 -4 6t-7 5t-8.5 4.5t-10.5 4.5t-12 3.5t-13 3.5q-1 0 -2 0.5l-1 0.5q-1 1 -2 1h-2t-2 0.5l-1 0.5h-2h-2
q-2 1 -4 1.5t-4 0.5q-1 0 -2 0.5l-1 0.5q-1 1 -2 1h-2q-2 1 -4.5 1.5t-4.5 0.5q-2 1 -4 1h-4q-3 1 -5 1.5t-4 0.5q-2 1 -4.5 1.5t-4.5 0.5v-1v0v0zM312 298q0 6 -1.5 12t-3.5 12t-5 11.5t-7 9.5q-4 5 -9.5 8t-11.5 5t-12 3.5t-13 1.5q-9 0 -17 -2t-15 -5t-12.5 -8t-10.5 -11
q-5 -7 -9 -15t-6 -17t-3 -19.5t-1 -22.5q0 -7 1 -14t3 -13t5.5 -11t7.5 -9t8.5 -7t10.5 -5t13 -3t14 -1q10 0 18.5 1.5t15.5 5.5q8 3 13 8t9 12t7 14.5t5 14.5q2 8 3.5 16t2.5 16v0.5v1.5v0.5v1.5v1.5v1.5v1.5v1.5v2v0v0z" />
    <glyph glyph-name="h" unicode="h" horiz-adv-x="552" 
d="M261 682l-40 -280q6 5 12.5 9.5t13.5 8.5q7 5 14.5 8.5t14.5 7.5q8 4 15.5 7t14.5 6q8 2 15.5 4.5t15.5 3.5h4.5h4.5t4.5 0.5t4.5 1.5h2h2h1.5h1.5l0.5 0.5t1.5 0.5h2h2h1.5h1.5h0.5h1.5q14 0 27 -2t25 -7q11 -4 21 -11t19 -15q8 -9 14.5 -19.5t10.5 -22.5q5 -12 7 -26
t2 -30v-2v-2v-2v-2q-1 -1 -1 -2.5v-2.5v-2v-2v-2v-2q-1 -2 -1 -3v-2v-2v-2q-1 -2 -1 -3v-2l-41 -292h-135l41 291v-1v0v0.5v1.5v0v1v0.5t1 1.5v0v0v0.5v1.5v0v1v0v0v0.5v1.5q0 2 -0.5 4.5t-1.5 5.5q0 2 -0.5 4.5t-1.5 4.5q-1 5 -3.5 8.5t-4.5 7.5q-3 4 -6 7t-7 4
q-4 2 -8.5 3t-9.5 1q-3 0 -6 -0.5t-6 -0.5q-4 -1 -7 -1.5t-6 -1.5q-7 -1 -13.5 -4t-13.5 -6q-4 -2 -7.5 -4t-6.5 -4q-4 -2 -7.5 -4.5t-7.5 -5.5q-7 -6 -15.5 -12t-16.5 -13l-41 -293h-135l96 682h135v0v0v0z" />
    <glyph glyph-name="i" unicode="i" horiz-adv-x="260" 
d="M228 454l-64 -454h-135l64 454h135v0v0v0zM176 650q7 -1 13.5 -3t12.5 -4q6 -3 12 -7t11 -9t9 -11t7 -12q2 -6 3.5 -12.5t1.5 -13.5t-1.5 -14t-3.5 -13q-3 -6 -7 -12t-9 -11t-11 -9t-12 -6q-6 -3 -12.5 -4t-13.5 -1t-14 1t-13 4q-6 2 -12 6t-11 9t-9 11t-6 12q-3 6 -4 13
t-1 14t1 13.5t4 12.5q2 6 6 12t9 11t11 9t12 7q6 2 13 3.5t14 1.5v2v0v0z" />
    <glyph glyph-name="j" unicode="j" horiz-adv-x="260" 
d="M225 454l-63 -446v-1.5v-1.5q-1 -1 -1 -1.5v-0.5v-2v-1q-1 -1 -1.5 -2t-0.5 -2v-2v-2v-0.5v-1.5q-1 0 -1 -0.5v-1.5v-2.5v-2.5q-1 -1 -1 -2v-2v-2v-2q-2 -14 -4.5 -27t-5.5 -25q-1 -6 -2.5 -11.5t-2.5 -11.5q-2 -5 -3 -10t-3 -9q-3 -8 -7 -16.5t-9 -15.5q-4 -8 -10 -15
l-12 -14q-5 -5 -11 -9.5t-13 -8.5q-7 -5 -14.5 -8.5t-15.5 -7.5t-16.5 -7t-17.5 -4q-9 -2 -17.5 -3t-18.5 -1h-2.5h-2.5q-2 1 -3.5 1h-2.5h-3.5h-2.5q-2 1 -3.5 1h-2.5q-3 1 -6 1.5t-6 0.5t-6 0.5t-6 1.5l13 107q13 1 22 2.5t17 4.5q7 3 13 7.5t8 9.5q4 6 7 13.5t6 16.5
t5.5 19.5t4.5 22.5l67 474h135v0v0v0zM172 650q7 -1 13.5 -3t12.5 -4q6 -3 12 -7t11 -9t9 -11t7 -12q2 -6 3.5 -12.5t1.5 -13.5t-1.5 -14t-3.5 -13q-3 -6 -7 -12t-9 -11t-11 -9t-12 -6q-6 -3 -12.5 -4t-13.5 -1t-14 1t-13 4q-6 2 -12 6t-11 9t-9 11t-6 12q-3 6 -4 13t-1 14
t1 13.5t4 12.5q2 6 6 12t9 11t11 9t12 7q6 2 13 3.5t14 1.5v2v0v0z" />
    <glyph glyph-name="k" unicode="k" horiz-adv-x="509" 
d="M260 682l-60 -422l2 -2l162 196h167l-180 -216l175 -238h-164l-167 224l-31 -224h-135l96 682h135v0v0v0z" />
    <glyph glyph-name="l" unicode="l" horiz-adv-x="260" 
d="M263 682l-96 -682h-135l96 682h135v0v0v0z" />
    <glyph glyph-name="m" unicode="m" horiz-adv-x="823" 
d="M227 454l-8 -58l2 -2q8 7 16.5 13.5t16.5 12.5t17 12t18 10q8 5 17 8t19 5q9 2 18.5 3.5t19.5 1.5q11 0 21.5 -1.5t19.5 -4.5t18 -7t16 -9q8 -6 14 -12t11 -14q5 -7 9 -16t6 -19q4 4 8 7.5t8 6.5q3 4 7 7l8 6q8 6 14.5 12t13.5 10q2 1 3.5 2t3.5 2q1 1 3 2t3 2q2 1 3.5 2
t3.5 2q1 0 3 1l4 2q3 2 6 3.5t6 2.5q2 1 3.5 1.5t3.5 1.5q1 0 3 0.5t4 1.5q3 1 6 1.5t6 1.5t6.5 1.5t7.5 1.5h3.5t2.5 1h3.5h3.5h3.5t3.5 1h3h4q16 0 30 -2.5t27 -7.5q12 -5 22.5 -12.5t19.5 -17.5q8 -10 15 -21.5t11 -24.5q5 -13 7 -27.5t2 -30.5v-1.5v-1.5v-1.5v-1.5
q-1 -1 -1 -1.5v-1.5v-1.5v-1.5v-2.5v-3.5v-2.5v-3.5q-1 -1 -1 -1.5v-1.5v-1.5v-1.5v-1.5v-0.5v0v0v-1v0q-1 -1 -1 -1.5v-0.5v0v0v-1v0l-39 -280h-135l37 261v1v2v1.5t1 1.5v1.5v1.5v0.5t1 1.5v0.5v1.5v1.5v1.5v0.5v1.5v2v2v2.5t1 2.5v2v2v2v2q0 8 -0.5 14.5t-2.5 12.5
q-1 6 -3 11t-4 9t-5 7t-7 5t-8 3.5t-9 1.5q-4 0 -8.5 -0.5t-9.5 -2.5q-4 -1 -9.5 -3.5t-10.5 -4.5q-1 -1 -2.5 -2t-2.5 -1q-2 -1 -3 -2t-3 -2q-3 -1 -5.5 -2.5t-4.5 -3.5l-6 -4l-6 -4t-5.5 -4.5l-4.5 -4.5l-4 -4l-4 -4l-2 -2l-1 -1l-2 -2l-2 -2l-4 -4l-4 -4q-1 -1 -1.5 -2
t-1.5 -1q-1 -1 -1.5 -2t-1.5 -2l-41 -289h-135l35 260v2t1 2v2.5v2.5v3t1 3v2.5v2.5v2v2v3.5t1 2.5v2v2v1.5v1.5v0.5v1.5q0 8 -0.5 14.5t-2.5 12.5q-1 6 -3 10.5t-4 8.5q-3 4 -6 7t-7 4q-4 2 -9 3t-10 1q-3 0 -6 -0.5t-5 -0.5l-6 -2l-6 -2q-6 -2 -12.5 -5t-13.5 -8
q-7 -4 -13.5 -10t-14.5 -12l-14.5 -14.5t-15.5 -16.5l-41 -289h-135l64 454h135v0v0v0z" />
    <glyph glyph-name="n" unicode="n" horiz-adv-x="552" 
d="M229 454l-8 -51q3 2 5.5 3.5t4.5 3.5q3 1 5.5 3t4.5 3l10 6l10 6q5 2 9.5 4.5t8.5 4.5q5 2 10 4.5t10 4.5t9.5 3.5t8.5 2.5q5 2 9.5 2.5t9.5 1.5t9.5 1.5t9.5 1.5h5.5t5.5 1h4.5h5.5q17 0 31.5 -3t26.5 -8t21 -12.5t16 -18.5q7 -10 12 -22t9 -24q3 -12 5 -25.5t2 -27.5
v-2.5v-3.5v-2v-2q-1 -1 -1 -2.5v-3.5v-2v-2v-2v-3q-1 -1 -1 -2v-3v-2.5v-2.5q-1 -2 -1 -3v-2l-39 -279h-135l38 271v0v1v1.5t1 1.5v1.5v1.5v1.5v1.5v1.5v1.5v1.5t1 1.5v1.5v1.5v1.5v1.5q0 6 -0.5 12t-2.5 12q-1 6 -3 11.5t-4 10.5t-5 9t-8 7q-4 2 -9 3.5t-10 1.5
q-3 0 -6 -0.5t-6 -0.5q-4 -1 -7 -2l-6 -2q-6 -2 -12.5 -5t-13.5 -7t-14.5 -9.5t-15.5 -12.5t-16.5 -14.5t-16.5 -16.5l-41 -290h-135l64 454h135v0v0v0z" />
    <glyph glyph-name="o" unicode="o" horiz-adv-x="563" 
d="M522 248q0 -28 -5 -53.5t-14 -48.5t-23 -44t-32 -39q-19 -19 -39.5 -32.5t-43.5 -22.5q-23 -8 -48.5 -12t-52.5 -4q-25 0 -47.5 4t-42.5 10q-20 8 -38 19.5t-35 27.5q-16 16 -29 33.5t-21 36.5q-8 20 -12 41t-4 44q0 26 4.5 50t14.5 46q9 23 24 43t34 39q19 18 40 32
t44 23t48.5 14t52.5 5q24 0 46.5 -3.5t42.5 -11.5q20 -7 38 -18t34 -25q16 -15 28 -31.5t20 -36.5q8 -19 12 -41.5t4 -46.5v2v0v0zM382 252q0 11 -2 20.5t-5 18.5t-7.5 16.5t-10.5 14.5q-7 7 -14.5 12t-15.5 9q-8 3 -17 5t-19 2t-20 -2t-18 -5q-9 -3 -16 -8t-13 -12
q-7 -7 -12 -13.5t-10 -14.5l-4 -8t-4 -7q-2 -4 -3.5 -8t-3.5 -8q-1 -4 -2.5 -8.5t-2.5 -9.5q-1 -4 -2 -8.5t-2 -8.5t-1.5 -8.5t-0.5 -7.5q-1 -4 -1 -7v-6q0 -11 1 -21t4 -18q3 -9 7 -16t9 -13t11 -11t12 -9t12 -6t13 -4l1.5 -1.5t1.5 -0.5h1h2q0 -1 0.5 -1h1.5h1.5h1.5h2h2
h3.5h2.5q11 0 21.5 2t19.5 6q9 5 17 11t15 14t13 17t10 18q5 9 8.5 19t6.5 20q1 2 1.5 4.5t0.5 5.5t0.5 6t1.5 6v3t1 3v2.5v2.5v3t1 3v2.5v2.5v2v0v0z" />
    <glyph glyph-name="p" unicode="p" horiz-adv-x="583" 
d="M277 542l-12 -88q2 -1 4.5 -1h5.5t6 0.5t6 1.5h3t3 1h2.5h2.5h3t3 1q1 0 2.5 0.5t2.5 0.5h1.5h1.5h0.5h1.5h3.5t2.5 1h2h2h3.5h2.5h2h2h1.5h1.5l0.5 0.5t1.5 0.5h2h2h1.5h1.5h0.5h1.5q22 0 42 -3.5t38 -10.5t34 -17t30 -24q14 -13 24 -29t17 -34t10.5 -38t3.5 -42
q0 -28 -5 -55t-16 -51q-10 -24 -26 -45.5t-36 -41.5q-21 -20 -44 -35t-49 -24q-25 -9 -52.5 -13.5t-56.5 -4.5h-2h-2h-2h-2q-1 1 -2 1h-2h-1.5h-1.5h-2h-2h-2h-1q-1 1 -2 1h-2h-1.5h-1.5q-2 1 -4 1.5t-4 0.5h-2h-1q-1 1 -2 1h-2q-1 1 -2 1.5t-2 0.5h-2h-2q-1 1 -2.5 1h-2.5
h-2h-2l-32 -230h-135l72 515q-11 -9 -20.5 -17t-17.5 -16q-7 -7 -13 -13.5t-10 -12.5t-8 -11t-7 -10q-4 -4 -7 -7.5t-5 -5.5l-1.5 -1.5l-0.5 -0.5h-0.5h-0.5v-1v0l-1.5 -1.5l-0.5 -0.5h-1.5h-0.5h-0.5h-0.5l-1 -1v0h-1v0h-1.5h-0.5h-1.5h-0.5h-2h-1q-1 0 -1 0.5v1.5v0.5v1.5
v0.5v0.5v0.5t-1 1.5v0.5v1.5q0 2 1 6.5t2 11.5q2 6 5.5 15t7.5 19q5 11 11 21.5t14 22.5q8 11 18.5 23t22.5 25l2 2l2 2t2 2.5t2 2.5l2 2l2 2q1 0 1.5 0.5l1.5 1.5l0.5 0.5l1.5 1.5l4.5 4.5t5.5 4.5q2 2 5 4.5t6 4.5l23 168h135v0v0v0zM251 356l-34 -246l1.5 -1.5t1.5 -0.5
q0 -1 0.5 -1.5t1.5 -0.5t1.5 -0.5t1.5 -0.5q0 -1 0.5 -1h1.5q1 -1 2 -1.5t2 -0.5t1.5 -0.5t1.5 -0.5h0.5h1.5q1 -1 2 -1.5t2 -0.5h3.5h2.5h2.5h2.5h3.5h3.5q16 0 30 2t27 6q12 5 22.5 11t18.5 15q8 8 15 17t12 19q5 9 9.5 19.5t7.5 20.5v1.5t1 1.5v1.5v1.5q0 2 0.5 3.5
t1.5 3.5v1.5t1 1.5v1.5v1.5v1.5t1 1.5v1.5v1.5v3.5v2.5v1.5t1 1.5v2v2v1.5t1 1.5v1.5v1.5v3.5v2.5q0 12 -2 22.5t-5 19.5t-8 17t-12 15t-15 12t-17 8q-10 3 -21 5t-24 2h-2.5h-3.5h-1.5h-1.5q-1 -1 -1.5 -1h-1.5h-2h-2q-1 -1 -1.5 -1h-1.5h-2.5h-3.5q-4 -1 -7.5 -1.5
t-6.5 -0.5h-3t-3 -1q-2 0 -3.5 -0.5t-3.5 -0.5v2v0v0z" />
    <glyph glyph-name="q" unicode="q" horiz-adv-x="552" 
d="M521 460l-97 -690h-135l37 261q-8 -5 -15.5 -9t-14.5 -7l-14 -6t-13 -5q-7 -2 -13.5 -3.5t-12.5 -2.5q-6 -2 -12 -2.5t-12 -1.5h-1.5h-1.5h-2h-1h-2h-2h-1.5h-1.5h-1.5h-1.5h-1.5t-1.5 -1h-1.5h-1.5h-1.5h-1.5q-18 0 -34.5 3.5t-30.5 7.5q-14 6 -26.5 16.5t-23.5 23.5
q-11 14 -19.5 29t-13.5 33t-7.5 38t-2.5 42q0 27 4.5 53t13.5 50t22.5 46t31.5 42t42 35.5t54 25.5t65.5 15t77.5 5l174 2v0v0v0zM339 124l31 222l-1.5 -1.5t-1.5 -0.5h-1.5h-1.5h-1.5h-0.5v0v0q-1 0 -1 0.5v0.5h-1.5h-0.5v0v0h-1v0h-2h-2h-1.5h-1.5h-1.5h-1.5h-1.5h-1.5
q-19 0 -36.5 -2.5t-32.5 -7.5q-16 -5 -29.5 -12.5t-25.5 -17.5t-21 -22t-15 -27t-8.5 -31.5t-2.5 -35.5q0 -11 1 -21t4 -19t7 -17t9 -15t11.5 -12t13.5 -8q8 -4 16 -5.5t17 -1.5h2h2h3.5h2.5h2h2h1.5t1.5 1h0.5h1.5q2 0 4.5 0.5t5.5 1.5q2 1 4.5 1.5t5.5 1.5q2 1 4.5 2
t5.5 2q3 2 6 3.5t6 2.5q3 2 6 3.5t6 3.5t6 4.5t7 4.5v2v0v0z" />
    <glyph glyph-name="r" unicode="r" horiz-adv-x="365" 
d="M222 454l-10 -65l2 -2q8 9 15.5 17t14.5 15q8 7 14.5 13t13.5 10q7 5 13.5 8t12.5 5t12.5 3.5t13.5 1.5h1.5h1.5h2h2q0 -1 1 -1h2h1.5h1.5h0.5h1.5q0 -1 0.5 -1h0.5h0.5h1.5q0 -1 0.5 -1h1.5v0h1q0 -1 0.5 -1h1.5h0.5h1.5q0 -1 0.5 -1h0.5q2 -1 3.5 -2t2.5 -1
q2 -1 3.5 -2t2.5 -2q3 -2 6.5 -4.5t7.5 -4.5q2 -1 3.5 -3t3.5 -3q1 -2 3 -3.5t4 -3.5l7.5 -7.5t7.5 -8.5l-63 -123q-3 3 -5.5 6t-4.5 6q-1 2 -2 3t-2 3q-2 1 -3 2.5t-2 2.5l-4.5 4.5t-4.5 3.5l-2 2l-2 2q-2 0 -3 1l-2 2q-1 0 -1.5 0.5l-1.5 1.5q-1 0 -2 0.5t-1 1.5h-1.5
t-0.5 1h-1.5h-0.5q-1 0 -1.5 0.5l-1.5 1.5h-2t-2 1h-2h-2h-1.5t-1.5 1h-1.5h-1.5h-1.5h-0.5v0v0h-1v0q-1 -1 -1.5 -1h-0.5v0v0h-1v0h-1.5h-0.5h-1v0q-1 -1 -1.5 -1h-0.5h-1.5h-0.5q-4 -1 -8.5 -3t-9.5 -4q-4 -2 -8 -5t-8 -7t-8 -7.5t-7 -8.5q-4 -4 -7 -8t-5 -8l-1.5 -1.5
l-0.5 -0.5v-0.5v-0.5h-1v0l-1.5 -1.5l-0.5 -0.5v-1.5v-0.5l-1.5 -1.5t-0.5 -1.5v-0.5v-0.5q-1 -1 -1 -1.5v-0.5l-38 -268h-135l64 454h135v0v0v0z" />
    <glyph glyph-name="s" unicode="s" horiz-adv-x="375" 
d="M359 421l-11 -107h-2h-2t-2 0.5t-2 1.5h-1.5t-1.5 1h-1.5h-0.5q-1 0 -2 0.5t-2 1.5l-4 2l-4 2l-4 2l-4 2q-7 2 -14.5 4.5t-14.5 4.5t-14 4.5t-14 3.5q-7 2 -13 2.5t-11 1.5t-9.5 1.5t-7.5 0.5q-4 0 -7 -0.5t-5 -1.5q-3 -1 -5.5 -1.5t-4.5 -2.5q-2 -1 -3.5 -2.5t-2.5 -3.5
q-1 -1 -1.5 -3.5t-0.5 -4.5v-1.5v-1.5v-1.5v-0.5v-2v-1q0 -1 0.5 -1.5l1.5 -1.5q0 -1 0.5 -2.5t1.5 -3.5l2 -2l2 -2q2 -4 5 -7.5t7 -6.5q2 -1 3.5 -3t3.5 -3q2 -2 4.5 -3.5t4.5 -3.5q5 -4 9.5 -7.5t9.5 -6.5q5 -4 10.5 -7.5t10.5 -7.5q7 -6 13.5 -12t12.5 -12q3 -3 6 -6.5
t7 -6.5q3 -4 6 -7.5t6 -6.5q6 -7 10.5 -15.5t7.5 -17.5t4.5 -18t1.5 -19q0 -16 -3 -30t-9 -27t-15 -24t-21 -21t-25.5 -17t-28.5 -12q-15 -3 -32 -5.5t-36 -2.5h-4.5h-4.5q-2 1 -4 1h-4h-4h-4q-2 1 -4 1h-4q-4 1 -8 1.5t-8 0.5q-4 1 -8 1.5t-8 1.5h-6t-5 1q-3 0 -6 0.5
t-6 1.5q-6 2 -11.5 3.5t-10.5 3.5l-6 2t-5 2q-3 1 -6 2.5t-6 2.5q-6 2 -12 5t-12 7l19 103l2 -2l2 -2q2 -1 3.5 -1.5t2.5 -0.5l1.5 -1.5t1.5 -0.5h1h2q0 -1 0.5 -1.5t1.5 -0.5h1.5h1.5q6 -2 12 -4.5t13 -4.5q6 -2 12.5 -4t13.5 -4q6 -2 12.5 -3.5t13.5 -2.5q6 -1 12.5 -1
h13.5h9.5t8.5 1t7.5 2.5t6.5 3.5t5.5 3.5t3.5 3.5q2 2 2.5 5t0.5 6q0 5 -1.5 9.5t-4.5 8.5q-3 5 -7.5 9.5t-10.5 9.5q-3 2 -6 4.5t-6 4.5q-4 2 -7 4.5t-6 5.5q-7 5 -13.5 11t-13.5 12q-7 5 -14 11t-13 12q-7 6 -13 12t-12 13t-10.5 14.5t-7.5 14.5q-3 8 -4.5 15.5t-1.5 16.5
q0 16 2.5 30.5t8.5 27.5q6 14 15 26t21 22t25.5 17.5t29.5 12.5q15 5 32 8t36 3h3.5h2.5h3.5h3.5q2 -1 3.5 -1h2.5h3.5h2.5h1.5h1.5q1 -1 1.5 -1h1.5h1.5h1.5q1 -1 2 -1h2h1.5h1.5q1 -1 1.5 -1h1.5h1.5h1.5q1 -1 1.5 -1h1.5q3 -1 5.5 -1.5t5.5 -0.5q2 -1 5 -1.5t6 -1.5
q5 -1 11 -3.5t12 -4.5q5 -2 11 -4.5t12 -5.5q3 -1 6 -3t6 -3q3 -2 6.5 -3.5t6.5 -3.5v2v0v0z" />
    <glyph glyph-name="t" unicode="t" horiz-adv-x="365" 
d="M277 550l-19 -96h100l-18 -100h-100l-26 -147q-1 -4 -1.5 -7t-0.5 -5v-4.5v-4.5q-1 -2 -1 -4.5v-4.5v-4v-4q0 -7 0.5 -13t1.5 -11q2 -5 3.5 -9.5t3.5 -8.5t5 -7.5t7 -5.5t8.5 -3t10.5 -1h6.5t7.5 1t8.5 2.5t8.5 2.5q4 2 9 3.5t11 4.5t13 6t14 7v-117q-5 -3 -10 -5.5
t-10 -4.5q-4 -2 -8.5 -3.5t-8.5 -3.5q-2 -1 -4.5 -1.5t-4.5 -0.5q-2 -1 -4.5 -1t-4.5 -1q-4 -1 -8 -1.5t-8 -1.5h-2.5t-3.5 -1h-2.5h-3.5q-3 0 -5.5 -0.5t-4.5 -1.5h-2.5h-3.5h-2.5t-2.5 -1h-2.5h-3.5h-2.5h-3.5q-18 0 -33.5 2.5t-29.5 6.5q-13 5 -24.5 13.5t-19.5 19.5
q-9 11 -15.5 23.5t-11.5 25.5q-4 13 -6 27t-2 30v2v2v3.5v2.5v2v2v1.5t1 1.5v0.5v1.5v2t1 3v2.5v2.5q0 2 0.5 4.5t1.5 5.5l32 175h-92l17 100h92l16 96h137v0v0v0z" />
    <glyph glyph-name="u" unicode="u" horiz-adv-x="552" 
d="M518 454l-64 -454h-135l8 51q-3 -3 -6 -5.5t-5 -5.5q-3 -2 -6 -4.5t-6 -4.5q-6 -4 -12 -7.5t-12 -6.5q-7 -4 -13.5 -7t-12.5 -5t-12 -3.5t-12 -1.5q-4 -1 -7.5 -1.5t-6.5 -1.5q-3 0 -6 -0.5t-6 -1.5h-2.5t-3.5 -1h-2.5h-3.5h-2.5t-3.5 -1h-2.5h-3.5q-17 0 -32 2.5
t-27 5.5q-13 5 -23.5 12t-18.5 17t-14 21t-10 23t-6 26t-2 29v4v4v4.5t1 4.5v4.5v4.5t0.5 4.5t1.5 4.5l41 290h135l-34 -241q-1 -5 -1.5 -9.5t-0.5 -8.5q-1 -4 -1 -7.5v-6.5q-1 -4 -1 -7v-6v-6v-5q0 -10 0.5 -18t1.5 -14q2 -6 3.5 -11t4.5 -9q2 -4 5 -6.5t7 -4.5t8.5 -3
t9.5 -1q6 0 12.5 1t13.5 3t14.5 5.5t14.5 7.5t14.5 9t14.5 11q8 6 15.5 13.5t14.5 15.5l41 298h135v0v0v0z" />
    <glyph glyph-name="v" unicode="v" horiz-adv-x="458" 
d="M481 454l-246 -462h-92l-116 462h131l57 -252h2l121 252h143v0v0v0z" />
    <glyph glyph-name="w" unicode="w" horiz-adv-x="729" 
d="M757 454l-258 -462h-87l-49 235l-131 -235h-85l-114 462h131l52 -263h2l136 263h81l49 -263h2l129 263h142v0v0v0z" />
    <glyph glyph-name="x" unicode="x" horiz-adv-x="531" 
d="M552 454l-198 -232l134 -222h-148l-74 142l-117 -142h-170l215 238l-130 216h149l68 -133l105 133h166v0v0v0z" />
    <glyph glyph-name="y" unicode="y" horiz-adv-x="490" 
d="M510 454l-330 -684h-142l132 272l-145 412h135l89 -265l120 265h141v0v0v0z" />
    <glyph glyph-name="z" unicode="z" horiz-adv-x="458" 
d="M457 454l-223 -342h197l-17 -112h-413l231 342h-184l16 112h393v0v0v0z" />
    <glyph glyph-name="braceleft" unicode="{" horiz-adv-x="385" 
d="M29 314q16 -1 29.5 1.5t23.5 7.5q11 5 19 12t13 17t9 22t7 25q3 14 4.5 29t1.5 33v81q0 24 2.5 45t8.5 39q6 17 15 31t21 24t26.5 17.5t31.5 12.5t36.5 8t41.5 3l44 2v-117h-6q-16 -1 -29.5 -3t-23.5 -4t-17 -5t-11 -7t-6.5 -12.5t-4.5 -20.5q-1 -12 -2 -27t-1 -34
q0 -22 -0.5 -41.5t-2.5 -36.5q-1 -18 -3.5 -33.5t-5.5 -29.5t-9.5 -27.5t-15.5 -25.5t-21 -23t-27 -22q15 -11 27 -23t21 -24t15.5 -25t9.5 -27t5.5 -30t3.5 -33q2 -18 2.5 -37t0.5 -40q0 -17 1 -32t2 -27q2 -11 4.5 -19.5t6.5 -12.5t11 -7t17 -5t23.5 -3.5t29.5 -1.5l6 -1
v-117h-44q-22 1 -41.5 4t-36.5 8t-31.5 12.5t-26.5 17.5t-21 24t-15 32t-8.5 39t-2.5 46v78q0 17 -1.5 32.5t-4.5 28.5q-3 14 -7 25t-9 21t-13 17.5t-19 11.5q-10 5 -23.5 7.5t-29.5 3.5v116v0v0v0z" />
    <glyph glyph-name="bar" unicode="|" horiz-adv-x="281" 
d="M102 -221v903h109v-903h-109v0v0v0z" />
    <glyph glyph-name="braceright" unicode="}" horiz-adv-x="385" 
d="M356 200q-16 -1 -29.5 -4t-24.5 -8q-10 -5 -18.5 -12.5t-13.5 -17.5t-9 -21.5t-7 -25.5q-3 -13 -4 -29t-1 -33v-77q0 -24 -3 -45t-9 -39t-15 -32t-20 -24q-12 -10 -26.5 -17.5t-31.5 -12.5t-36.5 -8t-41.5 -3l-44 -1v117h6q17 1 30 2.5t23 3.5t16.5 5t10.5 7t7 12.5
t4 19.5q2 12 3 27t1 32q0 21 1 40t2 37q2 17 4 33t5 30t9 27t15 25t21 24t28 23q-16 11 -28 22t-21 23t-15 25.5t-9 27.5t-5 29.5t-4 33.5q-1 17 -2 36.5t-1 41.5q0 19 -1 34t-3 27q-1 12 -4 20.5t-7 12.5t-10.5 7t-16.5 5t-23 3.5t-30 1.5l-6 2v117h44q22 -1 41.5 -4.5
t36.5 -8.5t31.5 -12.5t26.5 -17.5q11 -10 20 -24t15 -32t9 -39t3 -46v-77q0 -19 1 -34.5t4 -29.5q3 -13 7 -25t9 -22t13.5 -17.5t18.5 -12.5q11 -5 24.5 -7.5t29.5 -2.5v-112v0v0v0z" />
    <glyph glyph-name="asciitilde" unicode="~" horiz-adv-x="584" 
d="M29 175v131q8 6 16.5 12t15.5 11q8 5 15.5 10t14.5 9t14 7.5t14 6.5q8 3 14.5 5.5t13.5 3.5q2 1 4.5 1.5t5.5 0.5h3t3 1q1 0 2.5 0.5t2.5 0.5h2h2h3.5t2.5 1h2.5h2.5h3.5h2.5q8 0 16 -0.5t16 -2.5q8 -1 16 -3.5t16 -5.5q4 -1 8 -3t8 -3q3 -2 7 -3.5t8 -3.5q4 -1 8 -3
l8 -4q3 -1 7 -3l8 -4t7.5 -4t7.5 -4q4 -1 8 -2.5t8 -3.5q3 -2 7 -3.5t8 -3.5q4 -1 7.5 -2.5t7.5 -3.5q4 -1 7.5 -2.5t7.5 -2.5q3 -1 6.5 -2t7.5 -2t7.5 -1.5t7.5 -0.5q3 -1 6.5 -1h7.5h1.5h1.5h1h2h0.5h1.5h1.5h1.5h1.5h1.5h1t2 1h0.5h1.5h0.5t1.5 1h0.5h0.5q7 1 13.5 2.5
t13.5 4.5q7 2 14.5 6t14.5 8t14.5 9t16.5 12q9 6 18 13.5t19 16.5v-128q-5 -6 -10.5 -11t-11.5 -10q-6 -4 -12.5 -8.5t-13.5 -8.5q-4 -2 -7.5 -4.5t-6.5 -4.5q-4 -2 -7.5 -3.5t-7.5 -3.5q-4 -1 -7.5 -2.5t-6.5 -3.5q-4 -1 -7.5 -2.5t-7.5 -2.5t-7.5 -2t-6.5 -2q-1 0 -3 -0.5
t-3 -0.5q-2 -1 -3.5 -1.5t-3.5 -0.5q-4 -1 -7 -1.5t-6 -0.5h-6h-6h-10t-10 1q-4 0 -9.5 1.5t-10.5 2.5q-5 2 -10.5 3.5t-10.5 2.5l-10 4l-10 4l-6 2l-6 2q-3 2 -6 3.5t-6 2.5q-1 0 -2.5 0.5t-3.5 1.5q-1 1 -2.5 1.5t-2.5 1.5t-2.5 1.5t-3.5 1.5q-1 1 -2.5 1.5t-3.5 1.5
q-4 2 -8 3.5t-8 3.5q-4 1 -7.5 3t-7.5 3q-4 2 -7.5 3.5t-7.5 3.5q-4 1 -7.5 3t-7.5 3q-7 3 -14.5 5.5t-13.5 3.5q-7 2 -13 3t-11 1h-2h-2h-2h-1q-1 -1 -2 -1h-2h-1.5h-1.5h-2h-2q-1 -1 -2 -1h-2h-1.5h-1.5q-1 -1 -1.5 -1h-1.5q-7 -1 -13.5 -3.5t-14.5 -5.5l-14 -6t-14 -7
t-15 -10l-16 -12q-9 -6 -18 -13.5t-19 -15.5v2v0v0z" />
    <glyph glyph-name="Adieresis" unicode="&#xc4;" horiz-adv-x="625" 
d="M461 691l120 -691h-149l-21 149h-212l-66 -149h-160l334 691h154v0v0v0zM361 548l-120 -302h158l-36 302h-2v0v0v0zM286 887q7 -1 13 -3l12 -4q5 -3 10.5 -6t10.5 -8t8 -10.5t6 -10.5q2 -6 3.5 -12t1.5 -13t-1.5 -13t-3.5 -12q-3 -6 -6 -11.5t-8 -10.5t-10.5 -9t-10.5 -6
q-6 -2 -12 -3t-13 -1t-13 1t-12 3t-11.5 6t-10.5 9t-9 10.5t-6 11.5t-3 12t-1 13t1 13t3 12q2 5 6 10.5t9 10.5t10.5 8t11.5 6q6 2 12 3.5t13 1.5v2v0v0zM488 887q7 -1 13 -3l12 -4q5 -3 10.5 -6t10.5 -8t8 -10.5t6 -10.5q2 -6 3.5 -12t1.5 -13t-1.5 -13t-3.5 -12
q-3 -6 -6 -11.5t-8 -10.5t-10.5 -9t-10.5 -6q-6 -2 -12 -3t-13 -1t-13 1t-12 3t-11.5 6t-10.5 9t-9 10.5t-6 11.5t-3 12t-1 13t1 13t3 12q2 5 6 10.5t9 10.5t10.5 8t11.5 6q6 2 12 3.5t13 1.5v2v0v0z" />
    <glyph glyph-name="Aring" unicode="&#xc5;" horiz-adv-x="625" 
d="M461 691l120 -691h-149l-21 149h-212l-66 -149h-160l334 691h154v0v0v0zM361 548l-120 -302h158l-36 302h-2v0v0v0zM402 915q10 -1 19 -3.5t18 -6.5t17.5 -9t15.5 -13q8 -7 13 -15.5t9 -17.5t6 -18t2 -19t-2 -20t-6 -19t-9 -16.5t-13 -15.5q-7 -7 -15.5 -13t-17.5 -9
q-9 -4 -18 -5.5t-19 -1.5t-20 1.5t-19 5.5q-9 3 -16.5 9t-15.5 13q-7 8 -13 15.5t-9 16.5q-4 9 -5.5 19t-1.5 20t1.5 19t5.5 18q3 9 9 17.5t13 15.5q8 8 15.5 13t16.5 9t19 6t20 2v2v0v0zM402 870q-6 -1 -11 -2.5t-10 -3.5t-9.5 -5t-8.5 -7t-7 -8.5t-5 -9.5t-3 -10.5
t-1 -10.5q0 -6 1 -11t3 -10t5 -9.5t7 -8.5t8.5 -7t9.5 -5t10 -3t11 -1q5 0 10.5 1t10.5 3t9.5 5t8.5 7t7 8.5t5 9.5t3 10t1 11q0 5 -1 10.5t-3 10.5t-5 9.5t-7 8.5t-8.5 7t-9.5 5t-10.5 3t-10.5 1v2v0v0z" />
    <glyph glyph-name="Ccedilla" unicode="&#xc7;" horiz-adv-x="688" 
d="M651 197l-21 -152q-4 -3 -8.5 -5.5t-9.5 -4.5q-4 -2 -8.5 -3.5t-8.5 -3.5q-4 -1 -8.5 -2.5t-9.5 -3.5q-4 -1 -8 -2.5t-8 -3.5q-11 -4 -22 -7t-22 -5q-10 -2 -21.5 -3.5t-22.5 -2.5q-11 -2 -23 -2.5t-25 -1.5t-27 -1.5t-28 -0.5l-8 -20q6 -1 11.5 -3t10.5 -5t9 -7l8 -8
q3 -5 6 -9.5t4 -9.5q2 -5 3 -11t1 -13q0 -10 -2 -19t-6 -16q-4 -8 -9.5 -14t-13.5 -12q-7 -5 -16.5 -9.5t-20.5 -7.5q-10 -3 -22 -4.5t-26 -1.5h-5.5h-4.5q-3 1 -5.5 1h-4.5q-5 0 -9.5 0.5t-9.5 1.5t-9.5 1.5t-8.5 1.5t-7 2t-5 2l10 44q1 1 2 1t2 -1h1h2q2 0 4 -0.5t4 -1.5
h2h2h1h2q2 0 4 -0.5t4 -1.5h0.5h1.5h0.5h1.5v0h1h0.5h1.5h2h2h2h2q6 0 12 0.5t10 1.5q5 1 9 2.5t8 3.5q3 2 6 4.5t4 5.5q2 3 3 6.5t1 7.5t-0.5 7t-2.5 6q-1 3 -3.5 5.5t-5.5 4.5t-6.5 3.5t-7.5 3.5q-4 1 -8 1.5t-9 0.5l28 60q-31 4 -58 12t-51 21t-45 29.5t-39 37.5
q-18 20 -31.5 43.5t-22.5 48.5q-9 26 -13.5 54t-4.5 59q0 43 7.5 82t23.5 74q15 35 38.5 66t54.5 58t66.5 47.5t75.5 33.5q40 14 85 20.5t94 6.5h2h2h3.5h2.5q1 -1 2 -1h2h1.5h1.5h0.5h1.5h2h2h3.5h2.5h2h2h1.5h1.5h0.5h1.5q8 -1 17 -1.5t18 -1.5q5 -1 9.5 -1.5t8.5 -0.5
q5 -1 9.5 -1.5t8.5 -1.5q5 -1 9.5 -2t8.5 -1q5 -1 9.5 -2t9.5 -2q9 -2 19 -4.5t20 -4.5l-24 -124q-10 2 -19.5 4t-20.5 4q-10 2 -20 4.5t-20 3.5q-5 1 -10 1.5t-10 1.5q-6 0 -11 0.5t-10 1.5q-10 1 -21.5 1.5t-22.5 0.5q-31 0 -58 -3.5t-51 -10.5t-43.5 -17.5t-35.5 -24.5
t-30 -29t-25 -30q-11 -16 -19.5 -31.5t-13.5 -32.5q-2 -6 -3.5 -11.5t-3.5 -10.5q-1 -6 -2.5 -11.5t-2.5 -10.5q-1 -6 -1.5 -11.5t-0.5 -10.5q-1 -5 -1 -10v-10q0 -21 3 -40t10 -36q6 -16 16 -31t23 -27q13 -13 28.5 -22t33.5 -15t38.5 -9t42.5 -3h4.5h5.5h6h6h4.5t5.5 1h3
t3 1q1 0 2.5 0.5t2.5 0.5q11 1 23 3t24 5t24 7t25 9q12 5 25 10t26 12q14 7 28.5 14.5t29.5 16.5v2v0v0z" />
    <glyph glyph-name="Eacute" unicode="&#xc9;" horiz-adv-x="583" 
d="M564 682l-16 -114h-281l-23 -161h247l-16 -114h-247l-25 -179h354l-16 -114h-499l96 682h426v0v0v0zM276 728l89 172h161l-177 -172h-73v0v0v0z" />
    <glyph glyph-name="Ntilde" unicode="&#xd1;" horiz-adv-x="781" 
d="M767 682l-95 -682h-138l-280 462h-2l-64 -462h-145l96 682h145l275 -445h2l61 445h145v0v0v0zM630 886q0 -19 -1.5 -35t-4.5 -30q-3 -13 -8 -25t-12 -22t-14.5 -17t-16.5 -12q-9 -4 -19.5 -6.5t-21.5 -2.5h-4h-4h-4t-4 1q-2 0 -4 0.5t-4 1.5t-4 1.5t-4 1.5q-3 1 -5.5 1.5
t-4.5 1.5q-3 1 -5.5 2.5t-4.5 2.5q-3 1 -5.5 2t-4.5 2q-3 2 -5.5 3.5t-4.5 2.5q-4 2 -8.5 4.5t-8.5 3.5q-4 2 -7.5 4t-7.5 4t-7.5 3.5t-6.5 2.5q-4 1 -7 1.5t-5 0.5q-4 0 -8 -1t-7 -3q-3 -1 -6 -3.5t-5 -5.5q-3 -3 -4.5 -6.5t-3.5 -8.5q-1 -4 -2.5 -9t-1.5 -10l-64 2
q0 17 1.5 32.5t4.5 28.5q3 14 7.5 25t11.5 21q6 9 14 16.5t17 11.5q9 5 19 7.5t22 2.5q5 0 10.5 -0.5t10.5 -1.5t10 -2.5t10 -3.5t9.5 -4t8.5 -4l4 -2t5 -2l4 -2l4 -2q4 -2 7.5 -4.5t7.5 -4.5t7.5 -4t7.5 -4q2 -1 3.5 -2t3.5 -2q1 0 3 -1t3 -1q3 -1 6 -1h6q4 0 7.5 0.5
t6.5 1.5l6 4t5 5t4.5 7t3.5 8q1 2 1.5 4.5t1.5 5.5q0 3 0.5 6t1.5 6l64 2v0v0v0z" />
    <glyph glyph-name="Odieresis" unicode="&#xd6;" horiz-adv-x="833" 
d="M797 380q0 -45 -7 -85t-21 -75q-14 -36 -35 -67t-49 -57q-28 -27 -59.5 -46.5t-66.5 -32.5t-74 -19t-81 -6q-37 0 -71 5t-65 15q-31 11 -58.5 27.5t-51.5 38.5q-25 22 -43.5 47.5t-30.5 53.5q-12 29 -18 60.5t-6 66.5q0 41 7 79t21 72q14 35 36 65.5t50 57.5
q29 27 60.5 47.5t67.5 33.5q36 14 76 21t83 7q37 0 70.5 -5.5t64.5 -16.5q30 -10 57 -26.5t50 -38.5t40.5 -46.5t29.5 -53.5q12 -28 18 -59t6 -65v2v0v0zM647 370q0 20 -3.5 39t-10.5 36t-17 33t-24 30t-30 24t-33 17q-18 7 -37.5 10.5t-40.5 3.5q-25 0 -48 -5t-44 -14
q-22 -9 -41.5 -23t-36.5 -32q-18 -19 -31.5 -39t-22.5 -42t-13 -45.5t-4 -49.5q0 -22 3 -42t10 -38t17.5 -33.5t23.5 -29.5q14 -14 29 -24.5t33 -17.5t37.5 -10t41.5 -3q25 0 48 4.5t45 13.5q21 9 40.5 22.5t37.5 32.5q17 18 30.5 39t22.5 43q9 23 13.5 47t4.5 51v2v0v0z
M390 887q7 -1 13 -3l12 -4q5 -3 10.5 -6t10.5 -8t8 -10.5t6 -10.5q2 -6 3.5 -12t1.5 -13t-1.5 -13t-3.5 -12q-3 -6 -6 -11.5t-8 -10.5t-10.5 -9t-10.5 -6q-6 -2 -12 -3t-13 -1t-13 1t-12 3t-11.5 6t-10.5 9t-9 10.5t-6 11.5t-3 12t-1 13t1 13t3 12q2 5 6 10.5t9 10.5t10.5 8
t11.5 6q6 2 12 3.5t13 1.5v2v0v0zM592 887q7 -1 13 -3l12 -4q5 -3 10.5 -6t10.5 -8t8 -10.5t6 -10.5q2 -6 3.5 -12t1.5 -13t-1.5 -13t-3.5 -12q-3 -6 -6 -11.5t-8 -10.5t-10.5 -9t-10.5 -6q-6 -2 -12 -3t-13 -1t-13 1t-12 3t-11.5 6t-10.5 9t-9 10.5t-6 11.5t-3 12t-1 13
t1 13t3 12q2 5 6 10.5t9 10.5t10.5 8t11.5 6q6 2 12 3.5t13 1.5v2v0v0z" />
    <glyph glyph-name="Udieresis" unicode="&#xdc;" horiz-adv-x="750" 
d="M744 682l-60 -425q-5 -36 -13.5 -66t-19.5 -54q-12 -24 -26.5 -43t-32.5 -33t-36.5 -25.5t-38.5 -19.5q-19 -8 -39.5 -12.5t-40.5 -7.5h-4.5t-4.5 -1h-4.5h-4.5q-4 0 -8 -0.5t-8 -1.5h-4.5h-4.5h-4t-4 -1h-4h-4h-4h-4q-40 0 -74 4t-63 12q-28 8 -51.5 21t-41.5 30
t-31.5 37t-22.5 42q-9 23 -13.5 47.5t-4.5 52.5v3.5v3.5v3v3v6.5t1 7.5v3.5v3.5q0 1 0.5 3t0.5 3q0 3 0.5 6.5t1.5 7.5l56 390h145l-55 -386q-1 -4 -1.5 -7t-0.5 -5v-5.5v-4.5q-1 -2 -1 -4.5v-4.5v-4.5v-4.5q0 -16 1.5 -29.5t5.5 -24.5q4 -12 10 -21t13 -17q8 -7 15.5 -14
t15.5 -12t16.5 -9t17.5 -6q2 -1 4 -1.5t4 -0.5q2 -1 4 -1.5t4 -0.5h1.5h1.5q1 -1 2 -1h2q2 -1 4 -1h4q4 -1 7.5 -1.5t7.5 -0.5h6.5h7.5v0v0h0.5h1.5v0v0h0.5h1.5q14 0 28 2.5t27 6.5q13 5 25.5 11t25.5 14q12 8 22 19.5t17 26.5q8 15 13.5 33t8.5 39l58 415h145v0v0v0z
M349 887q7 -1 13 -3l12 -4q5 -3 10.5 -6t10.5 -8t8 -10.5t6 -10.5q2 -6 3.5 -12t1.5 -13t-1.5 -13t-3.5 -12q-3 -6 -6 -11.5t-8 -10.5t-10.5 -9t-10.5 -6q-6 -2 -12 -3t-13 -1t-13 1t-12 3t-11.5 6t-10.5 9t-9 10.5t-6 11.5t-3 12t-1 13t1 13t3 12q2 5 6 10.5t9 10.5t10.5 8
t11.5 6q6 2 12 3.5t13 1.5v2v0v0zM551 887q7 -1 13 -3l12 -4q5 -3 10.5 -6t10.5 -8t8 -10.5t6 -10.5q2 -6 3.5 -12t1.5 -13t-1.5 -13t-3.5 -12q-3 -6 -6 -11.5t-8 -10.5t-10.5 -9t-10.5 -6q-6 -2 -12 -3t-13 -1t-13 1t-12 3t-11.5 6t-10.5 9t-9 10.5t-6 11.5t-3 12t-1 13
t1 13t3 12q2 5 6 10.5t9 10.5t10.5 8t11.5 6q6 2 12 3.5t13 1.5v2v0v0z" />
    <glyph glyph-name="aacute" unicode="&#xe1;" horiz-adv-x="552" 
d="M521 447l-63 -447h-135l6 42q-3 -4 -6 -7t-6 -5l-6 -4l-6 -4q-1 -1 -2.5 -2t-3.5 -2q-1 -1 -2.5 -1.5t-2.5 -1.5t-2.5 -1.5t-3.5 -1.5q-1 -1 -2.5 -1.5t-3.5 -1.5q-3 -1 -5.5 -2.5t-4.5 -2.5q-3 -1 -5.5 -2t-4.5 -1q-1 0 -2.5 -0.5t-3.5 -0.5h-2.5h-2.5q-3 -1 -5.5 -1.5
t-4.5 -1.5h-2.5t-2.5 -1q-2 0 -3 -0.5t-3 -0.5q-3 0 -5.5 -0.5t-4.5 -1.5h-6h-6h-2.5t-2.5 -1h-3h-2q-17 0 -33 3.5t-30 8.5q-14 6 -27 16.5t-24 23.5q-11 14 -19.5 29t-14.5 33q-6 17 -8.5 36.5t-2.5 41.5v2v2v1v2v4v4v4v4t0.5 4t1.5 4q2 23 8.5 45t16.5 43q11 21 25 41
t33 39q18 19 42.5 33t55.5 24q30 10 66.5 15t79.5 5h4.5h5.5h3h3h2.5h2.5q2 -1 4.5 -1h5.5h4.5h5.5q5 -1 9.5 -1.5t8.5 -0.5h4.5h5.5q2 -1 4.5 -1h5.5q5 -1 9.5 -1.5t8.5 -0.5q5 0 9.5 -0.5t8.5 -1.5q2 -1 4.5 -1.5t4.5 -0.5q2 -1 4.5 -1h4.5q2 -1 4.5 -1.5t5.5 -0.5
q2 -1 4.5 -1.5t5.5 -0.5v2v0v0zM342 132l30 216q-2 -1 -4 -1h-4h-2h-1h-2h-2h-2h-2h-2t-1 1h-2h-2h-2h-2q-17 0 -32 -2t-28 -6t-23.5 -9.5t-18.5 -13.5q-9 -7 -16 -15.5t-13 -16.5q-3 -4 -6 -8.5t-5 -8.5q-2 -5 -4 -9t-4 -9t-3.5 -10t-3.5 -10l-2 -10l-2 -10t-1.5 -9.5
t-0.5 -8.5v-8v-7q0 -10 1 -19.5t3 -17.5t5.5 -15t7.5 -12q5 -6 10 -10.5t11 -7.5t13 -4t15 -1h6h6t6 0.5t6 1.5t6 1.5t6 1.5t6 2.5t7 2.5q3 1 6 2.5t6 2.5q3 2 6 3.5t6 3.5l6 4l6 4t6 4.5t6 5.5v2v0v0zM226 504l89 172h161l-177 -172h-73v0v0v0z" />
    <glyph glyph-name="agrave" unicode="&#xe0;" horiz-adv-x="552" 
d="M521 447l-63 -447h-135l6 42q-3 -4 -6 -7t-6 -5l-6 -4l-6 -4q-1 -1 -2.5 -2t-3.5 -2q-1 -1 -2.5 -1.5t-2.5 -1.5t-2.5 -1.5t-3.5 -1.5q-1 -1 -2.5 -1.5t-3.5 -1.5q-3 -1 -5.5 -2.5t-4.5 -2.5q-3 -1 -5.5 -2t-4.5 -1q-1 0 -2.5 -0.5t-3.5 -0.5h-2.5h-2.5q-3 -1 -5.5 -1.5
t-4.5 -1.5h-2.5t-2.5 -1q-2 0 -3 -0.5t-3 -0.5q-3 0 -5.5 -0.5t-4.5 -1.5h-6h-6h-2.5t-2.5 -1h-3h-2q-17 0 -33 3.5t-30 8.5q-14 6 -27 16.5t-24 23.5q-11 14 -19.5 29t-14.5 33q-6 17 -8.5 36.5t-2.5 41.5v2v2v1v2v4v4v4v4t0.5 4t1.5 4q2 23 8.5 45t16.5 43q11 21 25 41
t33 39q18 19 42.5 33t55.5 24q30 10 66.5 15t79.5 5h4.5h5.5h3h3h2.5h2.5q2 -1 4.5 -1h5.5h4.5h5.5q5 -1 9.5 -1.5t8.5 -0.5h4.5h5.5q2 -1 4.5 -1h5.5q5 -1 9.5 -1.5t8.5 -0.5q5 0 9.5 -0.5t8.5 -1.5q2 -1 4.5 -1.5t4.5 -0.5q2 -1 4.5 -1h4.5q2 -1 4.5 -1.5t5.5 -0.5
q2 -1 4.5 -1.5t5.5 -0.5v2v0v0zM342 132l30 216q-2 -1 -4 -1h-4h-2h-1h-2h-2h-2h-2h-2t-1 1h-2h-2h-2h-2q-17 0 -32 -2t-28 -6t-23.5 -9.5t-18.5 -13.5q-9 -7 -16 -15.5t-13 -16.5q-3 -4 -6 -8.5t-5 -8.5q-2 -5 -4 -9t-4 -9t-3.5 -10t-3.5 -10l-2 -10l-2 -10t-1.5 -9.5
t-0.5 -8.5v-8v-7q0 -10 1 -19.5t3 -17.5t5.5 -15t7.5 -12q5 -6 10 -10.5t11 -7.5t13 -4t15 -1h6h6t6 0.5t6 1.5t6 1.5t6 1.5t6 2.5t7 2.5q3 1 6 2.5t6 2.5q3 2 6 3.5t6 3.5l6 4l6 4t6 4.5t6 5.5v2v0v0zM411 504h-73l-177 172h161l89 -172v0v0v0z" />
    <glyph glyph-name="acircumflex" unicode="&#xe2;" horiz-adv-x="552" 
d="M521 447l-63 -447h-135l6 42q-3 -4 -6 -7t-6 -5l-6 -4l-6 -4q-1 -1 -2.5 -2t-3.5 -2q-1 -1 -2.5 -1.5t-2.5 -1.5t-2.5 -1.5t-3.5 -1.5q-1 -1 -2.5 -1.5t-3.5 -1.5q-3 -1 -5.5 -2.5t-4.5 -2.5q-3 -1 -5.5 -2t-4.5 -1q-1 0 -2.5 -0.5t-3.5 -0.5h-2.5h-2.5q-3 -1 -5.5 -1.5
t-4.5 -1.5h-2.5t-2.5 -1q-2 0 -3 -0.5t-3 -0.5q-3 0 -5.5 -0.5t-4.5 -1.5h-6h-6h-2.5t-2.5 -1h-3h-2q-17 0 -33 3.5t-30 8.5q-14 6 -27 16.5t-24 23.5q-11 14 -19.5 29t-14.5 33q-6 17 -8.5 36.5t-2.5 41.5v2v2v1v2v4v4v4v4t0.5 4t1.5 4q2 23 8.5 45t16.5 43q11 21 25 41
t33 39q18 19 42.5 33t55.5 24q30 10 66.5 15t79.5 5h4.5h5.5h3h3h2.5h2.5q2 -1 4.5 -1h5.5h4.5h5.5q5 -1 9.5 -1.5t8.5 -0.5h4.5h5.5q2 -1 4.5 -1h5.5q5 -1 9.5 -1.5t8.5 -0.5q5 0 9.5 -0.5t8.5 -1.5q2 -1 4.5 -1.5t4.5 -0.5q2 -1 4.5 -1h4.5q2 -1 4.5 -1.5t5.5 -0.5
q2 -1 4.5 -1.5t5.5 -0.5v2v0v0zM342 132l30 216q-2 -1 -4 -1h-4h-2h-1h-2h-2h-2h-2h-2t-1 1h-2h-2h-2h-2q-17 0 -32 -2t-28 -6t-23.5 -9.5t-18.5 -13.5q-9 -7 -16 -15.5t-13 -16.5q-3 -4 -6 -8.5t-5 -8.5q-2 -5 -4 -9t-4 -9t-3.5 -10t-3.5 -10l-2 -10l-2 -10t-1.5 -9.5
t-0.5 -8.5v-8v-7q0 -10 1 -19.5t3 -17.5t5.5 -15t7.5 -12q5 -6 10 -10.5t11 -7.5t13 -4t15 -1h6h6t6 0.5t6 1.5t6 1.5t6 1.5t6 2.5t7 2.5q3 1 6 2.5t6 2.5q3 2 6 3.5t6 3.5l6 4l6 4t6 4.5t6 5.5v2v0v0zM415 676l59 -160h-82l-61 91l-100 -91h-91l126 160h149v0v0v0z" />
    <glyph glyph-name="adieresis" unicode="&#xe4;" horiz-adv-x="552" 
d="M521 447l-63 -447h-135l6 42q-3 -4 -6 -7t-6 -5l-6 -4l-6 -4q-1 -1 -2.5 -2t-3.5 -2q-1 -1 -2.5 -1.5t-2.5 -1.5t-2.5 -1.5t-3.5 -1.5q-1 -1 -2.5 -1.5t-3.5 -1.5q-3 -1 -5.5 -2.5t-4.5 -2.5q-3 -1 -5.5 -2t-4.5 -1q-1 0 -2.5 -0.5t-3.5 -0.5h-2.5h-2.5q-3 -1 -5.5 -1.5
t-4.5 -1.5h-2.5t-2.5 -1q-2 0 -3 -0.5t-3 -0.5q-3 0 -5.5 -0.5t-4.5 -1.5h-6h-6h-2.5t-2.5 -1h-3h-2q-17 0 -33 3.5t-30 8.5q-14 6 -27 16.5t-24 23.5q-11 14 -19.5 29t-14.5 33q-6 17 -8.5 36.5t-2.5 41.5v2v2v1v2v4v4v4v4t0.5 4t1.5 4q2 23 8.5 45t16.5 43q11 21 25 41
t33 39q18 19 42.5 33t55.5 24q30 10 66.5 15t79.5 5h4.5h5.5h3h3h2.5h2.5q2 -1 4.5 -1h5.5h4.5h5.5q5 -1 9.5 -1.5t8.5 -0.5h4.5h5.5q2 -1 4.5 -1h5.5q5 -1 9.5 -1.5t8.5 -0.5q5 0 9.5 -0.5t8.5 -1.5q2 -1 4.5 -1.5t4.5 -0.5q2 -1 4.5 -1h4.5q2 -1 4.5 -1.5t5.5 -0.5
q2 -1 4.5 -1.5t5.5 -0.5v2v0v0zM342 132l30 216q-2 -1 -4 -1h-4h-2h-1h-2h-2h-2h-2h-2t-1 1h-2h-2h-2h-2q-17 0 -32 -2t-28 -6t-23.5 -9.5t-18.5 -13.5q-9 -7 -16 -15.5t-13 -16.5q-3 -4 -6 -8.5t-5 -8.5q-2 -5 -4 -9t-4 -9t-3.5 -10t-3.5 -10l-2 -10l-2 -10t-1.5 -9.5
t-0.5 -8.5v-8v-7q0 -10 1 -19.5t3 -17.5t5.5 -15t7.5 -12q5 -6 10 -10.5t11 -7.5t13 -4t15 -1h6h6t6 0.5t6 1.5t6 1.5t6 1.5t6 2.5t7 2.5q3 1 6 2.5t6 2.5q3 2 6 3.5t6 3.5l6 4l6 4t6 4.5t6 5.5v2v0v0zM215 663q7 -1 13 -3l12 -4q5 -3 10.5 -6t10.5 -8t8 -10.5t6 -10.5
q2 -6 3.5 -12t1.5 -13t-1.5 -13t-3.5 -12q-3 -6 -6 -11.5t-8 -10.5t-10.5 -9t-10.5 -6q-6 -2 -12 -3t-13 -1t-13 1t-12 3t-11.5 6t-10.5 9t-9 10.5t-6 11.5t-3 12t-1 13t1 13t3 12q2 5 6 10.5t9 10.5t10.5 8t11.5 6q6 2 12 3.5t13 1.5v2v0v0zM417 663q7 -1 13 -3l12 -4
q5 -3 10.5 -6t10.5 -8t8 -10.5t6 -10.5q2 -6 3.5 -12t1.5 -13t-1.5 -13t-3.5 -12q-3 -6 -6 -11.5t-8 -10.5t-10.5 -9t-10.5 -6q-6 -2 -12 -3t-13 -1t-13 1t-12 3t-11.5 6t-10.5 9t-9 10.5t-6 11.5t-3 12t-1 13t1 13t3 12q2 5 6 10.5t9 10.5t10.5 8t11.5 6q6 2 12 3.5t13 1.5
v2v0v0z" />
    <glyph glyph-name="atilde" unicode="&#xe3;" horiz-adv-x="552" 
d="M521 447l-63 -447h-135l6 42q-3 -4 -6 -7t-6 -5l-6 -4l-6 -4q-1 -1 -2.5 -2t-3.5 -2q-1 -1 -2.5 -1.5t-2.5 -1.5t-2.5 -1.5t-3.5 -1.5q-1 -1 -2.5 -1.5t-3.5 -1.5q-3 -1 -5.5 -2.5t-4.5 -2.5q-3 -1 -5.5 -2t-4.5 -1q-1 0 -2.5 -0.5t-3.5 -0.5h-2.5h-2.5q-3 -1 -5.5 -1.5
t-4.5 -1.5h-2.5t-2.5 -1q-2 0 -3 -0.5t-3 -0.5q-3 0 -5.5 -0.5t-4.5 -1.5h-6h-6h-2.5t-2.5 -1h-3h-2q-17 0 -33 3.5t-30 8.5q-14 6 -27 16.5t-24 23.5q-11 14 -19.5 29t-14.5 33q-6 17 -8.5 36.5t-2.5 41.5v2v2v1v2v4v4v4v4t0.5 4t1.5 4q2 23 8.5 45t16.5 43q11 21 25 41
t33 39q18 19 42.5 33t55.5 24q30 10 66.5 15t79.5 5h4.5h5.5h3h3h2.5h2.5q2 -1 4.5 -1h5.5h4.5h5.5q5 -1 9.5 -1.5t8.5 -0.5h4.5h5.5q2 -1 4.5 -1h5.5q5 -1 9.5 -1.5t8.5 -0.5q5 0 9.5 -0.5t8.5 -1.5q2 -1 4.5 -1.5t4.5 -0.5q2 -1 4.5 -1h4.5q2 -1 4.5 -1.5t5.5 -0.5
q2 -1 4.5 -1.5t5.5 -0.5v2v0v0zM342 132l30 216q-2 -1 -4 -1h-4h-2h-1h-2h-2h-2h-2h-2t-1 1h-2h-2h-2h-2q-17 0 -32 -2t-28 -6t-23.5 -9.5t-18.5 -13.5q-9 -7 -16 -15.5t-13 -16.5q-3 -4 -6 -8.5t-5 -8.5q-2 -5 -4 -9t-4 -9t-3.5 -10t-3.5 -10l-2 -10l-2 -10t-1.5 -9.5
t-0.5 -8.5v-8v-7q0 -10 1 -19.5t3 -17.5t5.5 -15t7.5 -12q5 -6 10 -10.5t11 -7.5t13 -4t15 -1h6h6t6 0.5t6 1.5t6 1.5t6 1.5t6 2.5t7 2.5q3 1 6 2.5t6 2.5q3 2 6 3.5t6 3.5l6 4l6 4t6 4.5t6 5.5v2v0v0zM481 662q0 -19 -1.5 -35t-4.5 -30q-3 -13 -8 -25t-12 -22t-14.5 -17
t-16.5 -12q-9 -4 -19.5 -6.5t-21.5 -2.5h-4h-4h-4t-4 1q-2 0 -4 0.5t-4 1.5t-4 1.5t-4 1.5q-3 1 -5.5 1.5t-4.5 1.5q-3 1 -5.5 2.5t-4.5 2.5q-3 1 -5.5 2t-4.5 2q-3 2 -5.5 3.5t-4.5 2.5q-4 2 -8.5 4.5t-8.5 3.5q-4 2 -7.5 4t-7.5 4t-7.5 3.5t-6.5 2.5q-4 1 -7 1.5t-5 0.5
q-4 0 -8 -1t-7 -3q-3 -1 -6 -3.5t-5 -5.5q-3 -3 -4.5 -6.5t-3.5 -8.5q-1 -4 -2.5 -9t-1.5 -10l-64 2q0 17 1.5 32.5t4.5 28.5q3 14 7.5 25t11.5 21q6 9 14 16.5t17 11.5q9 5 19 7.5t22 2.5q5 0 10.5 -0.5t10.5 -1.5t10 -2.5t10 -3.5t9.5 -4t8.5 -4l4 -2t5 -2l4 -2l4 -2
q4 -2 7.5 -4.5t7.5 -4.5t7.5 -4t7.5 -4q2 -1 3.5 -2t3.5 -2q1 0 3 -1t3 -1q3 -1 6 -1h6q4 0 7.5 0.5t6.5 1.5l6 4t5 5t4.5 7t3.5 8q1 2 1.5 4.5t1.5 5.5q0 3 0.5 6t1.5 6l64 2v0v0v0z" />
    <glyph glyph-name="aring" unicode="&#xe5;" horiz-adv-x="552" 
d="M521 447l-63 -447h-135l6 42q-3 -4 -6 -7t-6 -5l-6 -4l-6 -4q-1 -1 -2.5 -2t-3.5 -2q-1 -1 -2.5 -1.5t-2.5 -1.5t-2.5 -1.5t-3.5 -1.5q-1 -1 -2.5 -1.5t-3.5 -1.5q-3 -1 -5.5 -2.5t-4.5 -2.5q-3 -1 -5.5 -2t-4.5 -1q-1 0 -2.5 -0.5t-3.5 -0.5h-2.5h-2.5q-3 -1 -5.5 -1.5
t-4.5 -1.5h-2.5t-2.5 -1q-2 0 -3 -0.5t-3 -0.5q-3 0 -5.5 -0.5t-4.5 -1.5h-6h-6h-2.5t-2.5 -1h-3h-2q-17 0 -33 3.5t-30 8.5q-14 6 -27 16.5t-24 23.5q-11 14 -19.5 29t-14.5 33q-6 17 -8.5 36.5t-2.5 41.5v2v2v1v2v4v4v4v4t0.5 4t1.5 4q2 23 8.5 45t16.5 43q11 21 25 41
t33 39q18 19 42.5 33t55.5 24q30 10 66.5 15t79.5 5h4.5h5.5h3h3h2.5h2.5q2 -1 4.5 -1h5.5h4.5h5.5q5 -1 9.5 -1.5t8.5 -0.5h4.5h5.5q2 -1 4.5 -1h5.5q5 -1 9.5 -1.5t8.5 -0.5q5 0 9.5 -0.5t8.5 -1.5q2 -1 4.5 -1.5t4.5 -0.5q2 -1 4.5 -1h4.5q2 -1 4.5 -1.5t5.5 -0.5
q2 -1 4.5 -1.5t5.5 -0.5v2v0v0zM342 132l30 216q-2 -1 -4 -1h-4h-2h-1h-2h-2h-2h-2h-2t-1 1h-2h-2h-2h-2q-17 0 -32 -2t-28 -6t-23.5 -9.5t-18.5 -13.5q-9 -7 -16 -15.5t-13 -16.5q-3 -4 -6 -8.5t-5 -8.5q-2 -5 -4 -9t-4 -9t-3.5 -10t-3.5 -10l-2 -10l-2 -10t-1.5 -9.5
t-0.5 -8.5v-8v-7q0 -10 1 -19.5t3 -17.5t5.5 -15t7.5 -12q5 -6 10 -10.5t11 -7.5t13 -4t15 -1h6h6t6 0.5t6 1.5t6 1.5t6 1.5t6 2.5t7 2.5q3 1 6 2.5t6 2.5q3 2 6 3.5t6 3.5l6 4l6 4t6 4.5t6 5.5v2v0v0zM331 691q10 -1 19 -3.5t18 -6.5t17.5 -9t15.5 -13q8 -7 13 -15.5
t9 -17.5t6 -18t2 -19t-2 -20t-6 -19t-9 -16.5t-13 -15.5q-7 -7 -15.5 -13t-17.5 -9q-9 -4 -18 -5.5t-19 -1.5t-20 1.5t-19 5.5q-9 3 -16.5 9t-15.5 13q-7 8 -13 15.5t-9 16.5q-4 9 -5.5 19t-1.5 20t1.5 19t5.5 18q3 9 9 17.5t13 15.5q8 8 15.5 13t16.5 9t19 6t20 2v2v0v0z
M331 646q-6 -1 -11 -2.5t-10 -3.5t-9.5 -5t-8.5 -7t-7 -8.5t-5 -9.5t-3 -10.5t-1 -10.5q0 -6 1 -11t3 -10t5 -9.5t7 -8.5t8.5 -7t9.5 -5t10 -3t11 -1q5 0 10.5 1t10.5 3t9.5 5t8.5 7t7 8.5t5 9.5t3 10t1 11q0 5 -1 10.5t-3 10.5t-5 9.5t-7 8.5t-8.5 7t-9.5 5t-10.5 3
t-10.5 1v2v0v0z" />
    <glyph glyph-name="ccedilla" unicode="&#xe7;" horiz-adv-x="469" 
d="M422 131l-16 -123q-3 -1 -6 -2.5t-6 -2.5q-4 0 -7 -1t-6 -1q-7 -1 -13.5 -1t-13.5 -1q-4 0 -7.5 -0.5t-6.5 -1.5q-4 0 -7.5 -0.5t-7.5 -0.5q-7 -1 -14.5 -1.5t-15.5 -1.5h-4.5h-4.5h-4.5h-4.5h-2h-2h-2t-2 -1h-2.5h-2.5h-2h-2l-8 -20q6 -1 11.5 -3t10.5 -5t9 -7l8 -8
q3 -5 6 -9.5t4 -9.5q2 -5 3 -11t1 -13q0 -10 -2 -19t-6 -16q-4 -8 -9.5 -14t-13.5 -12q-7 -5 -16.5 -9.5t-20.5 -7.5q-10 -3 -22 -4.5t-26 -1.5h-5.5h-4.5q-3 1 -5.5 1h-4.5q-5 0 -9.5 0.5t-9.5 1.5t-9.5 1.5t-8.5 1.5t-7 2t-5 2l10 44q1 1 2 1t2 -1h1h2q2 0 4 -0.5t4 -1.5
h2h2h1h2q2 0 4 -0.5t4 -1.5h0.5h1.5h0.5h1.5v0h1h0.5h1.5h2h2h2h2q6 0 12 0.5t10 1.5q5 1 9 2.5t8 3.5q3 2 6 4.5t4 5.5q2 3 3 6.5t1 7.5t-0.5 7t-2.5 6q-1 3 -3.5 5.5t-5.5 4.5t-6.5 3.5t-7.5 3.5q-4 1 -8 1.5t-9 0.5l28 61q-20 3 -38 9t-35 15q-16 9 -30 20.5t-26 25.5
q-13 14 -22 30t-15 34q-6 17 -9 36.5t-3 40.5q0 26 5.5 51t15.5 47q11 23 26.5 43t36.5 38t44.5 31.5t49.5 22.5t54 14t59 5h2h2h1.5h1.5h0.5h1.5q1 -1 2 -1h2h1.5h1.5h0.5h1.5h4.5h4.5h4.5h4.5q3 0 6 -0.5t7 -0.5q3 -1 6 -1.5t6 -0.5t6 -0.5t7 -0.5q3 -1 6 -1.5t6 -0.5
q3 -1 6 -1.5t5 -0.5q3 -1 5.5 -1.5t5.5 -1.5q5 -1 9 -2l8 -2l-17 -120q-4 1 -8.5 2.5t-8.5 2.5q-2 1 -4 1.5t-4 1.5q-2 0 -3.5 0.5t-3.5 1.5q-4 1 -7.5 1.5t-6.5 1.5q-3 0 -6 0.5t-5 1.5h-3.5h-3.5q-1 0 -2.5 0.5t-3.5 1.5h-1.5h-1.5h-1.5t-1.5 1h-1.5h-1.5h-1.5h-1.5h-2h-2
h-2h-2h-2h-2h-2h-2q-17 0 -33 -2.5t-30 -7.5q-15 -5 -28 -12.5t-24 -17.5q-12 -10 -20.5 -21.5t-14.5 -23.5q-6 -13 -8.5 -26.5t-2.5 -27.5q0 -13 1.5 -24t5.5 -20q4 -10 10 -18t14 -15t17 -12t20 -8q11 -4 23.5 -5.5t26.5 -1.5h2h2h2.5h2.5h2h2h2h2h4h4t4 0.5t4 1.5
q5 0 10 1l10 2t10.5 2.5t11.5 2.5q5 2 11 3.5t13 4.5q7 2 14.5 5t15.5 7v2v0v0z" />
    <glyph glyph-name="eacute" unicode="&#xe9;" horiz-adv-x="510" 
d="M468 208h-297v-2v-2v-1.5v-0.5v-1.5v-0.5v-1v0q-1 -1 -1 -1.5v-0.5v-1.5v-0.5v-1.5v-0.5v-1.5v-0.5q0 -13 1.5 -24t5.5 -20t10 -17t13 -15q8 -7 16 -12t18 -8q9 -3 19.5 -4.5t21.5 -1.5q8 0 16.5 1t17.5 2q9 2 18.5 4t19.5 5t21 6.5t23 7.5q12 5 25 9.5t27 10.5l-24 -111
q-10 -5 -20.5 -9t-21.5 -7q-10 -3 -20.5 -5t-20.5 -3q-10 -2 -20 -3.5t-19 -2.5q-10 -1 -19 -1.5t-17 -0.5q-26 0 -49.5 3.5t-43.5 9.5q-21 8 -39 19t-33 26q-16 15 -27 32.5t-19 37.5q-7 20 -11 42.5t-4 47.5q0 26 4 50t13 46t22.5 42t31.5 39q18 18 37.5 31.5t41.5 22.5
t46 14t50 5q23 0 43 -3.5t38 -10.5t33 -16.5t28 -23.5q13 -13 22.5 -28.5t16.5 -32.5q6 -17 9.5 -36t3.5 -40v-4v-4v-2v-2q-1 -1 -1 -1.5v-1.5v-2v-2q-1 -1 -1 -2v-2v-4v-4q-1 -4 -1.5 -7.5t-0.5 -8.5q-1 -4 -1.5 -8t-1.5 -8v2v0v0zM184 286h159v0v1v0.5t1 1.5v0.5v1.5v0.5
v1.5v2v2v2v2q0 8 -1.5 14.5t-3.5 12.5t-5 11.5t-8 9.5q-4 5 -9.5 8t-11.5 5t-12.5 3.5t-14.5 1.5t-15.5 -1.5t-15.5 -3.5q-7 -3 -13.5 -6.5t-11.5 -8.5q-6 -5 -11 -11.5t-10 -14.5l-8.5 -17t-8.5 -20v2v0v0zM205 504l89 172h161l-177 -172h-73v0v0v0z" />
    <glyph glyph-name="egrave" unicode="&#xe8;" horiz-adv-x="510" 
d="M468 208h-297v-2v-2v-1.5v-0.5v-1.5v-0.5v-1v0q-1 -1 -1 -1.5v-0.5v-1.5v-0.5v-1.5v-0.5v-1.5v-0.5q0 -13 1.5 -24t5.5 -20t10 -17t13 -15q8 -7 16 -12t18 -8q9 -3 19.5 -4.5t21.5 -1.5q8 0 16.5 1t17.5 2q9 2 18.5 4t19.5 5t21 6.5t23 7.5q12 5 25 9.5t27 10.5l-24 -111
q-10 -5 -20.5 -9t-21.5 -7q-10 -3 -20.5 -5t-20.5 -3q-10 -2 -20 -3.5t-19 -2.5q-10 -1 -19 -1.5t-17 -0.5q-26 0 -49.5 3.5t-43.5 9.5q-21 8 -39 19t-33 26q-16 15 -27 32.5t-19 37.5q-7 20 -11 42.5t-4 47.5q0 26 4 50t13 46t22.5 42t31.5 39q18 18 37.5 31.5t41.5 22.5
t46 14t50 5q23 0 43 -3.5t38 -10.5t33 -16.5t28 -23.5q13 -13 22.5 -28.5t16.5 -32.5q6 -17 9.5 -36t3.5 -40v-4v-4v-2v-2q-1 -1 -1 -1.5v-1.5v-2v-2q-1 -1 -1 -2v-2v-4v-4q-1 -4 -1.5 -7.5t-0.5 -8.5q-1 -4 -1.5 -8t-1.5 -8v2v0v0zM184 286h159v0v1v0.5t1 1.5v0.5v1.5v0.5
v1.5v2v2v2v2q0 8 -1.5 14.5t-3.5 12.5t-5 11.5t-8 9.5q-4 5 -9.5 8t-11.5 5t-12.5 3.5t-14.5 1.5t-15.5 -1.5t-15.5 -3.5q-7 -3 -13.5 -6.5t-11.5 -8.5q-6 -5 -11 -11.5t-10 -14.5l-8.5 -17t-8.5 -20v2v0v0zM390 504h-73l-177 172h161l89 -172v0v0v0z" />
    <glyph glyph-name="ecircumflex" unicode="&#xea;" horiz-adv-x="510" 
d="M468 208h-297v-2v-2v-1.5v-0.5v-1.5v-0.5v-1v0q-1 -1 -1 -1.5v-0.5v-1.5v-0.5v-1.5v-0.5v-1.5v-0.5q0 -13 1.5 -24t5.5 -20t10 -17t13 -15q8 -7 16 -12t18 -8q9 -3 19.5 -4.5t21.5 -1.5q8 0 16.5 1t17.5 2q9 2 18.5 4t19.5 5t21 6.5t23 7.5q12 5 25 9.5t27 10.5l-24 -111
q-10 -5 -20.5 -9t-21.5 -7q-10 -3 -20.5 -5t-20.5 -3q-10 -2 -20 -3.5t-19 -2.5q-10 -1 -19 -1.5t-17 -0.5q-26 0 -49.5 3.5t-43.5 9.5q-21 8 -39 19t-33 26q-16 15 -27 32.5t-19 37.5q-7 20 -11 42.5t-4 47.5q0 26 4 50t13 46t22.5 42t31.5 39q18 18 37.5 31.5t41.5 22.5
t46 14t50 5q23 0 43 -3.5t38 -10.5t33 -16.5t28 -23.5q13 -13 22.5 -28.5t16.5 -32.5q6 -17 9.5 -36t3.5 -40v-4v-4v-2v-2q-1 -1 -1 -1.5v-1.5v-2v-2q-1 -1 -1 -2v-2v-4v-4q-1 -4 -1.5 -7.5t-0.5 -8.5q-1 -4 -1.5 -8t-1.5 -8v2v0v0zM184 286h159v0v1v0.5t1 1.5v0.5v1.5v0.5
v1.5v2v2v2v2q0 8 -1.5 14.5t-3.5 12.5t-5 11.5t-8 9.5q-4 5 -9.5 8t-11.5 5t-12.5 3.5t-14.5 1.5t-15.5 -1.5t-15.5 -3.5q-7 -3 -13.5 -6.5t-11.5 -8.5q-6 -5 -11 -11.5t-10 -14.5l-8.5 -17t-8.5 -20v2v0v0zM394 676l59 -160h-82l-61 91l-100 -91h-91l126 160h149v0v0v0z
" />
    <glyph glyph-name="edieresis" unicode="&#xeb;" horiz-adv-x="510" 
d="M468 208h-297v-2v-2v-1.5v-0.5v-1.5v-0.5v-1v0q-1 -1 -1 -1.5v-0.5v-1.5v-0.5v-1.5v-0.5v-1.5v-0.5q0 -13 1.5 -24t5.5 -20t10 -17t13 -15q8 -7 16 -12t18 -8q9 -3 19.5 -4.5t21.5 -1.5q8 0 16.5 1t17.5 2q9 2 18.5 4t19.5 5t21 6.5t23 7.5q12 5 25 9.5t27 10.5l-24 -111
q-10 -5 -20.5 -9t-21.5 -7q-10 -3 -20.5 -5t-20.5 -3q-10 -2 -20 -3.5t-19 -2.5q-10 -1 -19 -1.5t-17 -0.5q-26 0 -49.5 3.5t-43.5 9.5q-21 8 -39 19t-33 26q-16 15 -27 32.5t-19 37.5q-7 20 -11 42.5t-4 47.5q0 26 4 50t13 46t22.5 42t31.5 39q18 18 37.5 31.5t41.5 22.5
t46 14t50 5q23 0 43 -3.5t38 -10.5t33 -16.5t28 -23.5q13 -13 22.5 -28.5t16.5 -32.5q6 -17 9.5 -36t3.5 -40v-4v-4v-2v-2q-1 -1 -1 -1.5v-1.5v-2v-2q-1 -1 -1 -2v-2v-4v-4q-1 -4 -1.5 -7.5t-0.5 -8.5q-1 -4 -1.5 -8t-1.5 -8v2v0v0zM184 286h159v0v1v0.5t1 1.5v0.5v1.5v0.5
v1.5v2v2v2v2q0 8 -1.5 14.5t-3.5 12.5t-5 11.5t-8 9.5q-4 5 -9.5 8t-11.5 5t-12.5 3.5t-14.5 1.5t-15.5 -1.5t-15.5 -3.5q-7 -3 -13.5 -6.5t-11.5 -8.5q-6 -5 -11 -11.5t-10 -14.5l-8.5 -17t-8.5 -20v2v0v0zM194 663q7 -1 13 -3l12 -4q5 -3 10.5 -6t10.5 -8t8 -10.5t6 -10.5
q2 -6 3.5 -12t1.5 -13t-1.5 -13t-3.5 -12q-3 -6 -6 -11.5t-8 -10.5t-10.5 -9t-10.5 -6q-6 -2 -12 -3t-13 -1t-13 1t-12 3t-11.5 6t-10.5 9t-9 10.5t-6 11.5t-3 12t-1 13t1 13t3 12q2 5 6 10.5t9 10.5t10.5 8t11.5 6q6 2 12 3.5t13 1.5v2v0v0zM396 663q7 -1 13 -3l12 -4
q5 -3 10.5 -6t10.5 -8t8 -10.5t6 -10.5q2 -6 3.5 -12t1.5 -13t-1.5 -13t-3.5 -12q-3 -6 -6 -11.5t-8 -10.5t-10.5 -9t-10.5 -6q-6 -2 -12 -3t-13 -1t-13 1t-12 3t-11.5 6t-10.5 9t-9 10.5t-6 11.5t-3 12t-1 13t1 13t3 12q2 5 6 10.5t9 10.5t10.5 8t11.5 6q6 2 12 3.5t13 1.5
v2v0v0z" />
    <glyph glyph-name="iacute" unicode="&#xed;" horiz-adv-x="260" 
d="M228 454l-64 -454h-135l64 454h135v0v0v0zM95 504l89 172h161l-177 -172h-73v0v0v0z" />
    <glyph glyph-name="igrave" unicode="&#xec;" horiz-adv-x="260" 
d="M228 454l-64 -454h-135l64 454h135v0v0v0zM225 504h-73l-177 172h161l89 -172v0v0v0z" />
    <glyph glyph-name="icircumflex" unicode="&#xee;" horiz-adv-x="260" 
d="M228 454l-64 -454h-135l64 454h135v0v0v0zM269 676l59 -160h-82l-61 91l-100 -91h-91l126 160h149v0v0v0z" />
    <glyph glyph-name="idieresis" unicode="&#xef;" horiz-adv-x="260" 
d="M228 454l-64 -454h-135l64 454h135v0v0v0zM69 663q7 -1 13 -3l12 -4q5 -3 10.5 -6t10.5 -8t8 -10.5t6 -10.5q2 -6 3.5 -12t1.5 -13t-1.5 -13t-3.5 -12q-3 -6 -6 -11.5t-8 -10.5t-10.5 -9t-10.5 -6q-6 -2 -12 -3t-13 -1t-13 1t-12 3t-11.5 6t-10.5 9t-9 10.5t-6 11.5
t-3 12t-1 13t1 13t3 12q2 5 6 10.5t9 10.5t10.5 8t11.5 6q6 2 12 3.5t13 1.5v2v0v0zM271 663q7 -1 13 -3l12 -4q5 -3 10.5 -6t10.5 -8t8 -10.5t6 -10.5q2 -6 3.5 -12t1.5 -13t-1.5 -13t-3.5 -12q-3 -6 -6 -11.5t-8 -10.5t-10.5 -9t-10.5 -6q-6 -2 -12 -3t-13 -1t-13 1t-12 3
t-11.5 6t-10.5 9t-9 10.5t-6 11.5t-3 12t-1 13t1 13t3 12q2 5 6 10.5t9 10.5t10.5 8t11.5 6q6 2 12 3.5t13 1.5v2v0v0z" />
    <glyph glyph-name="ntilde" unicode="&#xf1;" horiz-adv-x="552" 
d="M229 454l-8 -51q3 2 5.5 3.5t4.5 3.5q3 1 5.5 3t4.5 3l10 6l10 6q5 2 9.5 4.5t8.5 4.5q5 2 10 4.5t10 4.5t9.5 3.5t8.5 2.5q5 2 9.5 2.5t9.5 1.5t9.5 1.5t9.5 1.5h5.5t5.5 1h4.5h5.5q17 0 31.5 -3t26.5 -8t21 -12.5t16 -18.5q7 -10 12 -22t9 -24q3 -12 5 -25.5t2 -27.5
v-2.5v-3.5v-2v-2q-1 -1 -1 -2.5v-3.5v-2v-2v-2v-3q-1 -1 -1 -2v-3v-2.5v-2.5q-1 -2 -1 -3v-2l-39 -279h-135l38 271v0v1v1.5t1 1.5v1.5v1.5v1.5v1.5v1.5v1.5v1.5t1 1.5v1.5v1.5v1.5v1.5q0 6 -0.5 12t-2.5 12q-1 6 -3 11.5t-4 10.5t-5 9t-8 7q-4 2 -9 3.5t-10 1.5
q-3 0 -6 -0.5t-6 -0.5q-4 -1 -7 -2l-6 -2q-6 -2 -12.5 -5t-13.5 -7t-14.5 -9.5t-15.5 -12.5t-16.5 -14.5t-16.5 -16.5l-41 -290h-135l64 454h135v0v0v0zM481 662q0 -19 -1.5 -35t-4.5 -30q-3 -13 -8 -25t-12 -22t-14.5 -17t-16.5 -12q-9 -4 -19.5 -6.5t-21.5 -2.5h-4h-4h-4
t-4 1q-2 0 -4 0.5t-4 1.5t-4 1.5t-4 1.5q-3 1 -5.5 1.5t-4.5 1.5q-3 1 -5.5 2.5t-4.5 2.5q-3 1 -5.5 2t-4.5 2q-3 2 -5.5 3.5t-4.5 2.5q-4 2 -8.5 4.5t-8.5 3.5q-4 2 -7.5 4t-7.5 4t-7.5 3.5t-6.5 2.5q-4 1 -7 1.5t-5 0.5q-4 0 -8 -1t-7 -3q-3 -1 -6 -3.5t-5 -5.5
q-3 -3 -4.5 -6.5t-3.5 -8.5q-1 -4 -2.5 -9t-1.5 -10l-64 2q0 17 1.5 32.5t4.5 28.5q3 14 7.5 25t11.5 21q6 9 14 16.5t17 11.5q9 5 19 7.5t22 2.5q5 0 10.5 -0.5t10.5 -1.5t10 -2.5t10 -3.5t9.5 -4t8.5 -4l4 -2t5 -2l4 -2l4 -2q4 -2 7.5 -4.5t7.5 -4.5t7.5 -4t7.5 -4
q2 -1 3.5 -2t3.5 -2q1 0 3 -1t3 -1q3 -1 6 -1h6q4 0 7.5 0.5t6.5 1.5l6 4t5 5t4.5 7t3.5 8q1 2 1.5 4.5t1.5 5.5q0 3 0.5 6t1.5 6l64 2v0v0v0z" />
    <glyph glyph-name="oacute" unicode="&#xf3;" horiz-adv-x="563" 
d="M522 248q0 -28 -5 -53.5t-14 -48.5t-23 -44t-32 -39q-19 -19 -39.5 -32.5t-43.5 -22.5q-23 -8 -48.5 -12t-52.5 -4q-25 0 -47.5 4t-42.5 10q-20 8 -38 19.5t-35 27.5q-16 16 -29 33.5t-21 36.5q-8 20 -12 41t-4 44q0 26 4.5 50t14.5 46q9 23 24 43t34 39q19 18 40 32
t44 23t48.5 14t52.5 5q24 0 46.5 -3.5t42.5 -11.5q20 -7 38 -18t34 -25q16 -15 28 -31.5t20 -36.5q8 -19 12 -41.5t4 -46.5v2v0v0zM382 252q0 11 -2 20.5t-5 18.5t-7.5 16.5t-10.5 14.5q-7 7 -14.5 12t-15.5 9q-8 3 -17 5t-19 2t-20 -2t-18 -5q-9 -3 -16 -8t-13 -12
q-7 -7 -12 -13.5t-10 -14.5l-4 -8t-4 -7q-2 -4 -3.5 -8t-3.5 -8q-1 -4 -2.5 -8.5t-2.5 -9.5q-1 -4 -2 -8.5t-2 -8.5t-1.5 -8.5t-0.5 -7.5q-1 -4 -1 -7v-6q0 -11 1 -21t4 -18q3 -9 7 -16t9 -13t11 -11t12 -9t12 -6t13 -4l1.5 -1.5t1.5 -0.5h1h2q0 -1 0.5 -1h1.5h1.5h1.5h2h2
h3.5h2.5q11 0 21.5 2t19.5 6q9 5 17 11t15 14t13 17t10 18q5 9 8.5 19t6.5 20q1 2 1.5 4.5t0.5 5.5t0.5 6t1.5 6v3t1 3v2.5v2.5v3t1 3v2.5v2.5v2v0v0zM231 504l89 172h161l-177 -172h-73v0v0v0z" />
    <glyph glyph-name="ograve" unicode="&#xf2;" horiz-adv-x="563" 
d="M522 248q0 -28 -5 -53.5t-14 -48.5t-23 -44t-32 -39q-19 -19 -39.5 -32.5t-43.5 -22.5q-23 -8 -48.5 -12t-52.5 -4q-25 0 -47.5 4t-42.5 10q-20 8 -38 19.5t-35 27.5q-16 16 -29 33.5t-21 36.5q-8 20 -12 41t-4 44q0 26 4.5 50t14.5 46q9 23 24 43t34 39q19 18 40 32
t44 23t48.5 14t52.5 5q24 0 46.5 -3.5t42.5 -11.5q20 -7 38 -18t34 -25q16 -15 28 -31.5t20 -36.5q8 -19 12 -41.5t4 -46.5v2v0v0zM382 252q0 11 -2 20.5t-5 18.5t-7.5 16.5t-10.5 14.5q-7 7 -14.5 12t-15.5 9q-8 3 -17 5t-19 2t-20 -2t-18 -5q-9 -3 -16 -8t-13 -12
q-7 -7 -12 -13.5t-10 -14.5l-4 -8t-4 -7q-2 -4 -3.5 -8t-3.5 -8q-1 -4 -2.5 -8.5t-2.5 -9.5q-1 -4 -2 -8.5t-2 -8.5t-1.5 -8.5t-0.5 -7.5q-1 -4 -1 -7v-6q0 -11 1 -21t4 -18q3 -9 7 -16t9 -13t11 -11t12 -9t12 -6t13 -4l1.5 -1.5t1.5 -0.5h1h2q0 -1 0.5 -1h1.5h1.5h1.5h2h2
h3.5h2.5q11 0 21.5 2t19.5 6q9 5 17 11t15 14t13 17t10 18q5 9 8.5 19t6.5 20q1 2 1.5 4.5t0.5 5.5t0.5 6t1.5 6v3t1 3v2.5v2.5v3t1 3v2.5v2.5v2v0v0zM416 504h-73l-177 172h161l89 -172v0v0v0z" />
    <glyph glyph-name="ocircumflex" unicode="&#xf4;" horiz-adv-x="563" 
d="M522 248q0 -28 -5 -53.5t-14 -48.5t-23 -44t-32 -39q-19 -19 -39.5 -32.5t-43.5 -22.5q-23 -8 -48.5 -12t-52.5 -4q-25 0 -47.5 4t-42.5 10q-20 8 -38 19.5t-35 27.5q-16 16 -29 33.5t-21 36.5q-8 20 -12 41t-4 44q0 26 4.5 50t14.5 46q9 23 24 43t34 39q19 18 40 32
t44 23t48.5 14t52.5 5q24 0 46.5 -3.5t42.5 -11.5q20 -7 38 -18t34 -25q16 -15 28 -31.5t20 -36.5q8 -19 12 -41.5t4 -46.5v2v0v0zM382 252q0 11 -2 20.5t-5 18.5t-7.5 16.5t-10.5 14.5q-7 7 -14.5 12t-15.5 9q-8 3 -17 5t-19 2t-20 -2t-18 -5q-9 -3 -16 -8t-13 -12
q-7 -7 -12 -13.5t-10 -14.5l-4 -8t-4 -7q-2 -4 -3.5 -8t-3.5 -8q-1 -4 -2.5 -8.5t-2.5 -9.5q-1 -4 -2 -8.5t-2 -8.5t-1.5 -8.5t-0.5 -7.5q-1 -4 -1 -7v-6q0 -11 1 -21t4 -18q3 -9 7 -16t9 -13t11 -11t12 -9t12 -6t13 -4l1.5 -1.5t1.5 -0.5h1h2q0 -1 0.5 -1h1.5h1.5h1.5h2h2
h3.5h2.5q11 0 21.5 2t19.5 6q9 5 17 11t15 14t13 17t10 18q5 9 8.5 19t6.5 20q1 2 1.5 4.5t0.5 5.5t0.5 6t1.5 6v3t1 3v2.5v2.5v3t1 3v2.5v2.5v2v0v0zM420 676l59 -160h-82l-61 91l-100 -91h-91l126 160h149v0v0v0z" />
    <glyph glyph-name="odieresis" unicode="&#xf6;" horiz-adv-x="563" 
d="M522 248q0 -28 -5 -53.5t-14 -48.5t-23 -44t-32 -39q-19 -19 -39.5 -32.5t-43.5 -22.5q-23 -8 -48.5 -12t-52.5 -4q-25 0 -47.5 4t-42.5 10q-20 8 -38 19.5t-35 27.5q-16 16 -29 33.5t-21 36.5q-8 20 -12 41t-4 44q0 26 4.5 50t14.5 46q9 23 24 43t34 39q19 18 40 32
t44 23t48.5 14t52.5 5q24 0 46.5 -3.5t42.5 -11.5q20 -7 38 -18t34 -25q16 -15 28 -31.5t20 -36.5q8 -19 12 -41.5t4 -46.5v2v0v0zM382 252q0 11 -2 20.5t-5 18.5t-7.5 16.5t-10.5 14.5q-7 7 -14.5 12t-15.5 9q-8 3 -17 5t-19 2t-20 -2t-18 -5q-9 -3 -16 -8t-13 -12
q-7 -7 -12 -13.5t-10 -14.5l-4 -8t-4 -7q-2 -4 -3.5 -8t-3.5 -8q-1 -4 -2.5 -8.5t-2.5 -9.5q-1 -4 -2 -8.5t-2 -8.5t-1.5 -8.5t-0.5 -7.5q-1 -4 -1 -7v-6q0 -11 1 -21t4 -18q3 -9 7 -16t9 -13t11 -11t12 -9t12 -6t13 -4l1.5 -1.5t1.5 -0.5h1h2q0 -1 0.5 -1h1.5h1.5h1.5h2h2
h3.5h2.5q11 0 21.5 2t19.5 6q9 5 17 11t15 14t13 17t10 18q5 9 8.5 19t6.5 20q1 2 1.5 4.5t0.5 5.5t0.5 6t1.5 6v3t1 3v2.5v2.5v3t1 3v2.5v2.5v2v0v0zM220 663q7 -1 13 -3l12 -4q5 -3 10.5 -6t10.5 -8t8 -10.5t6 -10.5q2 -6 3.5 -12t1.5 -13t-1.5 -13t-3.5 -12
q-3 -6 -6 -11.5t-8 -10.5t-10.5 -9t-10.5 -6q-6 -2 -12 -3t-13 -1t-13 1t-12 3t-11.5 6t-10.5 9t-9 10.5t-6 11.5t-3 12t-1 13t1 13t3 12q2 5 6 10.5t9 10.5t10.5 8t11.5 6q6 2 12 3.5t13 1.5v2v0v0zM422 663q7 -1 13 -3l12 -4q5 -3 10.5 -6t10.5 -8t8 -10.5t6 -10.5
q2 -6 3.5 -12t1.5 -13t-1.5 -13t-3.5 -12q-3 -6 -6 -11.5t-8 -10.5t-10.5 -9t-10.5 -6q-6 -2 -12 -3t-13 -1t-13 1t-12 3t-11.5 6t-10.5 9t-9 10.5t-6 11.5t-3 12t-1 13t1 13t3 12q2 5 6 10.5t9 10.5t10.5 8t11.5 6q6 2 12 3.5t13 1.5v2v0v0z" />
    <glyph glyph-name="otilde" unicode="&#xf5;" horiz-adv-x="563" 
d="M522 248q0 -28 -5 -53.5t-14 -48.5t-23 -44t-32 -39q-19 -19 -39.5 -32.5t-43.5 -22.5q-23 -8 -48.5 -12t-52.5 -4q-25 0 -47.5 4t-42.5 10q-20 8 -38 19.5t-35 27.5q-16 16 -29 33.5t-21 36.5q-8 20 -12 41t-4 44q0 26 4.5 50t14.5 46q9 23 24 43t34 39q19 18 40 32
t44 23t48.5 14t52.5 5q24 0 46.5 -3.5t42.5 -11.5q20 -7 38 -18t34 -25q16 -15 28 -31.5t20 -36.5q8 -19 12 -41.5t4 -46.5v2v0v0zM382 252q0 11 -2 20.5t-5 18.5t-7.5 16.5t-10.5 14.5q-7 7 -14.5 12t-15.5 9q-8 3 -17 5t-19 2t-20 -2t-18 -5q-9 -3 -16 -8t-13 -12
q-7 -7 -12 -13.5t-10 -14.5l-4 -8t-4 -7q-2 -4 -3.5 -8t-3.5 -8q-1 -4 -2.5 -8.5t-2.5 -9.5q-1 -4 -2 -8.5t-2 -8.5t-1.5 -8.5t-0.5 -7.5q-1 -4 -1 -7v-6q0 -11 1 -21t4 -18q3 -9 7 -16t9 -13t11 -11t12 -9t12 -6t13 -4l1.5 -1.5t1.5 -0.5h1h2q0 -1 0.5 -1h1.5h1.5h1.5h2h2
h3.5h2.5q11 0 21.5 2t19.5 6q9 5 17 11t15 14t13 17t10 18q5 9 8.5 19t6.5 20q1 2 1.5 4.5t0.5 5.5t0.5 6t1.5 6v3t1 3v2.5v2.5v3t1 3v2.5v2.5v2v0v0zM486 662q0 -19 -1.5 -35t-4.5 -30q-3 -13 -8 -25t-12 -22t-14.5 -17t-16.5 -12q-9 -4 -19.5 -6.5t-21.5 -2.5h-4h-4h-4
t-4 1q-2 0 -4 0.5t-4 1.5t-4 1.5t-4 1.5q-3 1 -5.5 1.5t-4.5 1.5q-3 1 -5.5 2.5t-4.5 2.5q-3 1 -5.5 2t-4.5 2q-3 2 -5.5 3.5t-4.5 2.5q-4 2 -8.5 4.5t-8.5 3.5q-4 2 -7.5 4t-7.5 4t-7.5 3.5t-6.5 2.5q-4 1 -7 1.5t-5 0.5q-4 0 -8 -1t-7 -3q-3 -1 -6 -3.5t-5 -5.5
q-3 -3 -4.5 -6.5t-3.5 -8.5q-1 -4 -2.5 -9t-1.5 -10l-64 2q0 17 1.5 32.5t4.5 28.5q3 14 7.5 25t11.5 21q6 9 14 16.5t17 11.5q9 5 19 7.5t22 2.5q5 0 10.5 -0.5t10.5 -1.5t10 -2.5t10 -3.5t9.5 -4t8.5 -4l4 -2t5 -2l4 -2l4 -2q4 -2 7.5 -4.5t7.5 -4.5t7.5 -4t7.5 -4
q2 -1 3.5 -2t3.5 -2q1 0 3 -1t3 -1q3 -1 6 -1h6q4 0 7.5 0.5t6.5 1.5l6 4t5 5t4.5 7t3.5 8q1 2 1.5 4.5t1.5 5.5q0 3 0.5 6t1.5 6l64 2v0v0v0z" />
    <glyph glyph-name="uacute" unicode="&#xfa;" horiz-adv-x="552" 
d="M518 454l-64 -454h-135l8 51q-3 -3 -6 -5.5t-5 -5.5q-3 -2 -6 -4.5t-6 -4.5q-6 -4 -12 -7.5t-12 -6.5q-7 -4 -13.5 -7t-12.5 -5t-12 -3.5t-12 -1.5q-4 -1 -7.5 -1.5t-6.5 -1.5q-3 0 -6 -0.5t-6 -1.5h-2.5t-3.5 -1h-2.5h-3.5h-2.5t-3.5 -1h-2.5h-3.5q-17 0 -32 2.5
t-27 5.5q-13 5 -23.5 12t-18.5 17t-14 21t-10 23t-6 26t-2 29v4v4v4.5t1 4.5v4.5v4.5t0.5 4.5t1.5 4.5l41 290h135l-34 -241q-1 -5 -1.5 -9.5t-0.5 -8.5q-1 -4 -1 -7.5v-6.5q-1 -4 -1 -7v-6v-6v-5q0 -10 0.5 -18t1.5 -14q2 -6 3.5 -11t4.5 -9q2 -4 5 -6.5t7 -4.5t8.5 -3
t9.5 -1q6 0 12.5 1t13.5 3t14.5 5.5t14.5 7.5t14.5 9t14.5 11q8 6 15.5 13.5t14.5 15.5l41 298h135v0v0v0zM226 504l89 172h161l-177 -172h-73v0v0v0z" />
    <glyph glyph-name="ugrave" unicode="&#xf9;" horiz-adv-x="552" 
d="M518 454l-64 -454h-135l8 51q-3 -3 -6 -5.5t-5 -5.5q-3 -2 -6 -4.5t-6 -4.5q-6 -4 -12 -7.5t-12 -6.5q-7 -4 -13.5 -7t-12.5 -5t-12 -3.5t-12 -1.5q-4 -1 -7.5 -1.5t-6.5 -1.5q-3 0 -6 -0.5t-6 -1.5h-2.5t-3.5 -1h-2.5h-3.5h-2.5t-3.5 -1h-2.5h-3.5q-17 0 -32 2.5
t-27 5.5q-13 5 -23.5 12t-18.5 17t-14 21t-10 23t-6 26t-2 29v4v4v4.5t1 4.5v4.5v4.5t0.5 4.5t1.5 4.5l41 290h135l-34 -241q-1 -5 -1.5 -9.5t-0.5 -8.5q-1 -4 -1 -7.5v-6.5q-1 -4 -1 -7v-6v-6v-5q0 -10 0.5 -18t1.5 -14q2 -6 3.5 -11t4.5 -9q2 -4 5 -6.5t7 -4.5t8.5 -3
t9.5 -1q6 0 12.5 1t13.5 3t14.5 5.5t14.5 7.5t14.5 9t14.5 11q8 6 15.5 13.5t14.5 15.5l41 298h135v0v0v0zM371 504h-73l-177 172h161l89 -172v0v0v0z" />
    <glyph glyph-name="ucircumflex" unicode="&#xfb;" horiz-adv-x="552" 
d="M518 454l-64 -454h-135l8 51q-3 -3 -6 -5.5t-5 -5.5q-3 -2 -6 -4.5t-6 -4.5q-6 -4 -12 -7.5t-12 -6.5q-7 -4 -13.5 -7t-12.5 -5t-12 -3.5t-12 -1.5q-4 -1 -7.5 -1.5t-6.5 -1.5q-3 0 -6 -0.5t-6 -1.5h-2.5t-3.5 -1h-2.5h-3.5h-2.5t-3.5 -1h-2.5h-3.5q-17 0 -32 2.5
t-27 5.5q-13 5 -23.5 12t-18.5 17t-14 21t-10 23t-6 26t-2 29v4v4v4.5t1 4.5v4.5v4.5t0.5 4.5t1.5 4.5l41 290h135l-34 -241q-1 -5 -1.5 -9.5t-0.5 -8.5q-1 -4 -1 -7.5v-6.5q-1 -4 -1 -7v-6v-6v-5q0 -10 0.5 -18t1.5 -14q2 -6 3.5 -11t4.5 -9q2 -4 5 -6.5t7 -4.5t8.5 -3
t9.5 -1q6 0 12.5 1t13.5 3t14.5 5.5t14.5 7.5t14.5 9t14.5 11q8 6 15.5 13.5t14.5 15.5l41 298h135v0v0v0zM415 676l59 -160h-82l-61 91l-100 -91h-91l126 160h149v0v0v0z" />
    <glyph glyph-name="udieresis" unicode="&#xfc;" horiz-adv-x="552" 
d="M518 454l-64 -454h-135l8 51q-3 -3 -6 -5.5t-5 -5.5q-3 -2 -6 -4.5t-6 -4.5q-6 -4 -12 -7.5t-12 -6.5q-7 -4 -13.5 -7t-12.5 -5t-12 -3.5t-12 -1.5q-4 -1 -7.5 -1.5t-6.5 -1.5q-3 0 -6 -0.5t-6 -1.5h-2.5t-3.5 -1h-2.5h-3.5h-2.5t-3.5 -1h-2.5h-3.5q-17 0 -32 2.5
t-27 5.5q-13 5 -23.5 12t-18.5 17t-14 21t-10 23t-6 26t-2 29v4v4v4.5t1 4.5v4.5v4.5t0.5 4.5t1.5 4.5l41 290h135l-34 -241q-1 -5 -1.5 -9.5t-0.5 -8.5q-1 -4 -1 -7.5v-6.5q-1 -4 -1 -7v-6v-6v-5q0 -10 0.5 -18t1.5 -14q2 -6 3.5 -11t4.5 -9q2 -4 5 -6.5t7 -4.5t8.5 -3
t9.5 -1q6 0 12.5 1t13.5 3t14.5 5.5t14.5 7.5t14.5 9t14.5 11q8 6 15.5 13.5t14.5 15.5l41 298h135v0v0v0zM215 663q7 -1 13 -3l12 -4q5 -3 10.5 -6t10.5 -8t8 -10.5t6 -10.5q2 -6 3.5 -12t1.5 -13t-1.5 -13t-3.5 -12q-3 -6 -6 -11.5t-8 -10.5t-10.5 -9t-10.5 -6
q-6 -2 -12 -3t-13 -1t-13 1t-12 3t-11.5 6t-10.5 9t-9 10.5t-6 11.5t-3 12t-1 13t1 13t3 12q2 5 6 10.5t9 10.5t10.5 8t11.5 6q6 2 12 3.5t13 1.5v2v0v0zM417 663q7 -1 13 -3l12 -4q5 -3 10.5 -6t10.5 -8t8 -10.5t6 -10.5q2 -6 3.5 -12t1.5 -13t-1.5 -13t-3.5 -12
q-3 -6 -6 -11.5t-8 -10.5t-10.5 -9t-10.5 -6q-6 -2 -12 -3t-13 -1t-13 1t-12 3t-11.5 6t-10.5 9t-9 10.5t-6 11.5t-3 12t-1 13t1 13t3 12q2 5 6 10.5t9 10.5t10.5 8t11.5 6q6 2 12 3.5t13 1.5v2v0v0z" />
    <glyph glyph-name="dagger" unicode="&#x2020;" horiz-adv-x="531" 
d="M257 423q-1 7 -2 14.5t-2 15.5t-1.5 16.5t-1.5 17.5q-1 8 -1.5 16.5t-0.5 17.5q-1 9 -1 18v19q0 14 1 27t3 25t6 22.5t9 19.5t11.5 16t13.5 11q8 5 17.5 7.5t20.5 2.5q7 0 13 -1.5t12 -3.5q5 -3 10.5 -6t9.5 -8q5 -5 8 -11t5 -13t3.5 -15t1.5 -17q0 -5 -0.5 -10.5
t-1.5 -11.5t-1.5 -12t-2.5 -12q-1 -3 -2 -6.5t-1 -6.5q-1 -4 -2 -7l-2 -6l-2 -6l-2 -6q-1 -4 -2 -7l-2 -6q-1 -2 -1.5 -4t-1.5 -4t-2 -3.5t-1 -3.5l-2 -4l-2 -4t-1.5 -4t-1.5 -4q-1 -4 -2.5 -7.5t-3.5 -7.5q-1 -4 -2.5 -7.5t-3.5 -6.5q-1 -1 -1.5 -2.5t-0.5 -2.5l-1.5 -3
t-1.5 -2q-1 -2 -2 -4.5t-2 -4.5t-2 -4.5t-2 -4.5t-2 -4.5t-2 -4.5q5 2 9 4t9 4q4 1 8.5 3t8.5 4q5 2 9 3.5t9 3.5q4 1 8.5 3t8.5 3q8 3 16.5 5.5t15.5 3.5q8 2 15 2.5t14 0.5q8 0 15 -1.5t13 -3.5q6 -3 10.5 -6.5t8.5 -8.5t7 -10.5t4 -10.5q2 -5 3 -10.5t1 -11.5
q0 -7 -1.5 -13t-3.5 -12q-3 -6 -6.5 -12t-8.5 -11t-11.5 -9t-14.5 -7q-7 -3 -16 -4t-20 -1h-2.5h-2.5h-3h-3h-5.5t-4.5 1h-5.5t-4.5 1q-3 0 -5.5 0.5t-4.5 1.5q-3 0 -5.5 0.5t-4.5 1.5q-3 1 -5.5 1.5t-4.5 1.5l-6 2t-5 2q-3 1 -5.5 2t-4.5 2q-3 1 -5.5 2t-4.5 2q-3 1 -5.5 2
t-4.5 2q-1 1 -2.5 1.5t-3.5 1.5q-1 0 -2.5 0.5t-2.5 1.5q-3 2 -5.5 3.5t-4.5 2.5v-6v-6v-5.5v-4.5q-1 -3 -1 -6v-6v-5.5v-4.5v-2.5v-2.5v-3v-3v-5.5v-4.5v-6v-6v-5.5v-4.5v-2.5v-2.5v-3v-3v-5.5v-4.5q-1 -3 -1 -6v-6v-5.5v-4.5v-10.5v-10.5v-10.5v-10.5q-1 -35 -1.5 -68
t-2.5 -65q-1 -31 -3 -59.5t-4 -56.5t-6 -51t-10 -42t-14 -33t-17 -24q-2 -2 -4 -3.5t-4 -2.5q-1 -2 -3.5 -3.5t-4.5 -2.5q-1 0 -2 -0.5t-2 -1.5q-1 0 -2 -0.5t-2 -1.5q-1 0 -2.5 -0.5t-2.5 -1.5q-1 0 -2 -0.5t-2 -1.5h-1.5h-0.5h-1.5t-0.5 -1h-1.5h-0.5h-1.5h-0.5h-1.5h-0.5
v0v0q-1 0 -1 -0.5v-0.5h-1.5h-0.5v0v0h-1v0q-9 0 -16.5 2t-13.5 5q-7 3 -12 8t-10 12q-4 7 -8 14.5t-6 16.5t-3 19t-1 21q0 12 1 26.5t3 31.5q2 16 6 35t8 39q5 22 9.5 44.5t10.5 44.5q5 23 11 45.5t12 46.5l2 8l2 8q0 2 0.5 4t1.5 5q0 2 0.5 4t1.5 4l2 8l2 8q1 2 1.5 4
t1.5 4q0 2 0.5 4t1.5 4q2 8 4 15.5t4 14.5q2 8 4 15.5t4 14.5q1 4 2 7.5t2 7.5q1 3 2 6.5t2 7.5q2 8 4 14.5t4 13.5l-1.5 -1.5t-1.5 -0.5h-1.5h-0.5q-1 -1 -2 -1.5l-1 -0.5h-1.5h-1.5q-1 -1 -2.5 -1.5t-3.5 -0.5q-1 -1 -2 -1.5t-2 -0.5q-1 -1 -2.5 -1.5t-2.5 -0.5l-3 -1.5
t-3 -0.5q-3 -1 -5.5 -2t-4.5 -2q-1 -1 -2.5 -1.5t-3.5 -0.5q-1 -1 -2 -1h-2q-1 -1 -2.5 -1.5t-3.5 -0.5q-1 -1 -2 -1.5t-2 -0.5q-5 -1 -9.5 -2.5t-9.5 -2.5q-4 -1 -8.5 -2t-9.5 -2q-4 -1 -8.5 -2t-8.5 -1q-4 -1 -8 -1h-8q-7 0 -14 1t-13 3t-10.5 5t-8.5 7t-7.5 8t-6.5 8
q-3 5 -4.5 9.5t-2.5 9.5v0v1v0v0v0.5v1.5h-0.5t-0.5 1v0v0v0.5v1.5v0.5v1.5v0.5v1.5v0v1v0.5v1.5q0 7 1 13t4 12q2 6 6 11.5t9 10.5t11.5 9t13.5 7q7 2 15 3.5t18 1.5q4 0 8.5 -0.5t9.5 -1.5t10.5 -1.5t11.5 -2.5l6 -2t6 -1q3 -1 6.5 -2t6.5 -2q6 -1 12.5 -3.5t13.5 -4.5
q1 -1 2 -1.5t2 -0.5q2 -1 3.5 -1.5t2.5 -0.5l2 -2t2 -1t1.5 -0.5t1.5 -0.5q0 -1 0.5 -1h1.5q1 -1 2 -1.5t2 -0.5q2 -1 3.5 -1.5t2.5 -0.5l2 -2t2 -1t1.5 -0.5t1.5 -0.5q0 -1 0.5 -1h1.5v2v0v0z" />
    <glyph glyph-name="degree" horiz-adv-x="333" 
d="M221 691q10 -1 19 -3.5t18 -6.5t17.5 -9t15.5 -13q8 -7 13 -15.5t9 -17.5t6 -18t2 -19t-2 -20t-6 -19t-9 -16.5t-13 -15.5q-7 -7 -15.5 -13t-17.5 -9q-9 -4 -18 -5.5t-19 -1.5t-20 1.5t-19 5.5q-9 3 -16.5 9t-15.5 13q-7 8 -13 15.5t-9 16.5q-4 9 -5.5 19t-1.5 20t1.5 19
t5.5 18q3 9 9 17.5t13 15.5q8 8 15.5 13t16.5 9t19 6t20 2v2v0v0zM221 646q-6 -1 -11 -2.5t-10 -3.5t-9.5 -5t-8.5 -7t-7 -8.5t-5 -9.5t-3 -10.5t-1 -10.5q0 -6 1 -11t3 -10t5 -9.5t7 -8.5t8.5 -7t9.5 -5t10 -3t11 -1q5 0 10.5 1t10.5 3t9.5 5t8.5 7t7 8.5t5 9.5t3 10t1 11
q0 5 -1 10.5t-3 10.5t-5 9.5t-7 8.5t-8.5 7t-9.5 5t-10.5 3t-10.5 1v2v0v0z" />
    <glyph glyph-name="cent" unicode="&#xa2;" horiz-adv-x="469" 
d="M463 633l-57 -177l2 -2t2 -1q2 -1 3.5 -1h2.5h0.5h1.5h1.5h1.5q1 -1 1.5 -1h1.5h1.5h1.5q2 -1 3.5 -1.5t2.5 -0.5h1.5h1.5q1 -1 1.5 -1h1.5h0.5h1.5q0 -1 0.5 -1h0.5h1h2q0 -1 0.5 -1h1.5h1.5h1.5l-18 -119h-2.5t-3.5 1q-1 0 -2.5 0.5t-2.5 1.5h-2.5t-3.5 1q-1 0 -2 0.5
t-2 1.5h-1.5t-0.5 1h-1.5h-0.5q-1 0 -2 0.5t-2 1.5h-2h-2t-2 0.5t-2 1.5h-1.5h-1.5h-1.5t-0.5 1h-2h-1h-0.5t-0.5 1h-1.5h-0.5h-1.5h-1.5h-1.5t-0.5 1h-2h-1h-0.5t-0.5 1h-1.5h-0.5l-73 -234q2 0 4.5 -0.5t5.5 -0.5q2 0 4.5 0.5t4.5 0.5t4.5 0.5t5.5 1.5q2 0 4.5 0.5
t4.5 0.5q5 1 9.5 2t8.5 2q5 2 9.5 3.5t8.5 3.5q2 0 3.5 0.5t2.5 1.5q2 0 3.5 0.5t3.5 1.5t3.5 1.5t2.5 1.5q2 1 3.5 1.5t2.5 1.5q3 2 6 3.5t6 2.5q3 2 6.5 3.5t7.5 3.5l-19 -132q-7 -4 -15 -6.5t-16 -4.5q-4 -1 -8 -1.5t-9 -0.5q-4 0 -8 -0.5t-9 -1.5q-10 -2 -19.5 -2.5
t-19.5 -1.5t-19.5 -1.5t-19.5 -0.5l-57 -179h-66l59 187q-19 3 -35.5 9.5t-31.5 15.5t-28.5 20.5t-24.5 25.5t-19.5 29.5t-14.5 31.5q-6 17 -8.5 35.5t-2.5 37.5q0 27 5.5 52t15.5 47q11 23 26.5 43t36.5 39q21 18 44.5 32t49.5 23t54.5 14t59.5 5l18 2l54 171h65v0v0v0z
M236 116l71 229q-15 -3 -28 -7t-25 -10t-22.5 -13.5t-19.5 -16.5q-9 -10 -15.5 -20.5t-11.5 -21.5q-4 -12 -6.5 -24t-2.5 -25q0 -9 1 -16.5t2 -15.5q2 -7 4.5 -13.5t6.5 -11.5q4 -6 8.5 -10.5t10.5 -9.5q5 -4 12 -8.5t15 -7.5v2v0v0z" />
    <glyph glyph-name="sterling" unicode="&#xa3;" horiz-adv-x="542" 
d="M518 663l-13 -123l-4 2l-4 2q-2 0 -3.5 1t-3.5 2l-7 3.5t-6 2.5q-1 1 -2.5 1.5t-3.5 1.5q-1 0 -2.5 0.5t-3.5 1.5q-3 1 -6 1.5t-6 1.5h-1.5h-0.5h-1.5h-1.5h-2h-2h-1.5h-0.5h-1.5t-0.5 1h-1.5h-0.5h-1.5h-0.5q-10 0 -18.5 -2t-16.5 -6t-15 -9t-13 -12t-11.5 -16
t-10.5 -19q-4 -10 -8.5 -21t-8.5 -23l-27 -87h85l-18 -106h-99l-39 -131q3 -1 6 -1h6t6.5 0.5t7.5 1.5h3.5t3.5 1h3h3h3.5t3.5 1h3h4h2h2h2h2q1 -1 2 -1h2h2h2q2 -1 4 -1.5t4 -0.5h4h4h0.5h1.5q0 -1 0.5 -1h0.5h2h2q0 -1 1 -1.5t2 -0.5h1.5h1.5q2 -1 3.5 -1.5t2.5 -0.5h4h4
q4 -1 7.5 -2t7.5 -2t8.5 -1.5t8.5 -1.5t8.5 -1.5t9.5 -0.5h10h10h10.5t10.5 1q5 0 10.5 0.5t9.5 1.5q5 1 9.5 2t8.5 2q5 2 9.5 3.5t8.5 3.5q1 0 2.5 0.5t2.5 1.5q2 1 3.5 1.5t2.5 1.5q2 1 3.5 1.5t2.5 1.5q2 1 3.5 1.5t2.5 1.5l-26 -136l-2.5 -2.5t-3.5 -1.5q-1 0 -1.5 -0.5
t-1.5 -0.5h-1.5h-1.5h-1.5h-0.5v0v-1h-1v0h-2t-2 -1h-2h-2t-2.5 -0.5t-3.5 -1.5h-2h-2t-2 -0.5t-2 -1.5h-2.5h-2.5h-1.5t-0.5 -1h-1.5h-0.5h-1.5h-0.5h-1.5h-1.5h-1.5h-0.5q-1 0 -1.5 -0.5t-1.5 -0.5h-1.5h-0.5h-1.5h-1.5h-2.5h-3.5h-5.5h-4.5q-3 1 -5.5 1h-5.5h-5.5h-4.5
q-2 1 -4.5 1h-4.5q-2 1 -4.5 1.5t-4.5 0.5h-4.5h-4.5q-2 1 -4.5 1.5t-4.5 0.5h-2h-2q-2 1 -3 1h-2q-2 1 -4 1h-4h-2.5h-3.5h-1.5h-1.5h-2h-1h-2h-2h-1.5t-1.5 1q-4 0 -7.5 0.5t-6.5 1.5h-3t-3 1q-2 0 -3.5 0.5t-3.5 0.5h-7.5t-6.5 1q-4 0 -7.5 0.5t-6.5 1.5q-7 1 -15.5 1.5
t-16.5 1.5h-8.5t-8.5 1h-9.5h-9.5h-4.5h-4.5h-4.5h-4.5q-2 -1 -4 -1h-4h-4h-4q-4 -1 -8 -1.5t-8 -0.5t-7.5 -0.5t-7.5 -1.5q-2 -1 -4 -1.5t-4 -0.5q-2 -1 -3.5 -1h-3.5q-2 -1 -4 -1.5t-4 -0.5q-2 -1 -4 -1.5t-4 -0.5h-4h-4q-3 0 -5 -0.5t-4 -1.5t-4 -1.5t-4 -1.5
q-3 -1 -5 -1.5t-4 -1.5l-13 -1l79 270h-75l15 106h92l20 68q8 26 17.5 51t19.5 47q11 23 23.5 43t25.5 39q14 18 29.5 32t33.5 23t39 14t44 5q7 0 13.5 -0.5t13.5 -1.5q3 -1 6 -1.5t7 -0.5q3 -1 6.5 -1.5t6.5 -1.5q6 -2 12 -4.5t12 -4.5q6 -3 11.5 -6t10.5 -6v2v0v0z" />
    <glyph glyph-name="section" unicode="&#xa7;" horiz-adv-x="552" 
d="M525 534l-120 -21q-1 8 -2.5 14.5t-3.5 12.5t-5 11.5t-8 9.5q-4 5 -10 8t-12 5q-7 2 -14.5 3.5t-15.5 1.5q-7 0 -14 -1t-13 -3q-6 -1 -11 -4t-10 -7l-8 -8t-6 -9t-3 -10.5t-1 -10.5q0 -4 0.5 -8.5t1.5 -8.5l4 -8t5 -8q2 -4 5 -7.5t7 -7.5t8.5 -7.5t9.5 -7.5
q4 -4 8.5 -7.5t8.5 -6.5q2 -1 4.5 -3t5.5 -3q2 -2 4.5 -3.5t5.5 -3.5q2 -2 4.5 -4t5.5 -4l3 -1.5l3 -1.5q1 -1 2.5 -1.5t2.5 -1.5q2 -2 4.5 -4t5.5 -4q2 -1 3 -2t3 -1q1 -1 2.5 -2t2.5 -2q11 -8 22 -17t21 -19l19.5 -19.5t19.5 -20.5q9 -10 16.5 -22t11.5 -26q5 -13 7.5 -28
t2.5 -31t-2 -30t-6 -27t-9 -24t-13 -22q-7 -10 -17 -20.5t-21 -20.5q-12 -10 -25.5 -19t-29.5 -17q4 -6 7.5 -11t6.5 -10t5.5 -9.5t4.5 -9.5q2 -3 4.5 -7t3.5 -8q1 -2 1.5 -4.5t1.5 -4.5q0 -2 0.5 -4.5t1.5 -4.5v-2t1 -2v-2v-2q0 -2 0.5 -4t1.5 -4v-2v-2v-2.5t1 -2.5v-2v-2
v-2v-2v-0.5v-1.5v-0.5v-1.5q-1 0 -1 -0.5v-1.5v-0.5v-1.5v-2v-2v-3.5v-2.5q-1 -14 -5.5 -27t-11.5 -26t-17 -25t-22 -24q-13 -11 -28.5 -20t-34.5 -15t-40.5 -9t-47.5 -3q-22 0 -41.5 2t-36.5 7q-17 4 -32 11t-28 15q-13 9 -23 21.5t-17 27.5q-7 16 -10.5 34.5t-4.5 40.5
l114 30q1 -8 2.5 -16.5t4.5 -15.5t7 -13t8 -10q5 -5 10.5 -8t12.5 -5t15 -3.5t17 -1.5q8 0 15 1t13 3q6 1 12 4t11 7t8 8t6 9q2 4 3.5 9.5t1.5 11.5q0 5 -1 10t-3 10q-1 5 -4 9.5t-6 9.5q-2 2 -4 4.5t-4 4.5l-4 4l-4 4t-3.5 3t-3.5 2l-1.5 1.5l-1.5 1.5q-3 2 -5.5 4t-4.5 4
t-4 3.5t-4 2.5q-3 2 -5 3.5t-4 2.5q-4 3 -8.5 6t-9.5 7q-2 2 -4.5 3.5t-4.5 2.5q-3 2 -5 3.5t-4 3.5q-3 2 -5.5 3.5t-4.5 2.5l-2 2l-2 2q-2 0 -3 1l-2 2q-11 8 -21.5 17t-21.5 18q-10 9 -20.5 19.5t-19.5 21.5q-10 11 -17 23.5t-12 25.5q-4 14 -6.5 29t-2.5 31q0 14 2 26.5
t6 24.5t10 24t14 23t18.5 21t22.5 20q12 9 27 18t32 17q-4 5 -7 10.5t-6 10.5t-6 10.5t-5 9.5q-2 5 -3.5 9.5t-3.5 8.5q-1 5 -2 9.5t-2 8.5q-1 2 -1.5 3.5t-0.5 2.5q-1 2 -1 4v4v4v4v4v4q0 18 3.5 34t10.5 31q8 14 18.5 27t24.5 24t31 19t36 14q20 5 41.5 8t45.5 3
q23 0 43.5 -3t37.5 -8q17 -6 30.5 -13.5t23.5 -18.5q10 -10 17.5 -23t12.5 -27t8 -30t4 -34v2v0v0zM241 354q-7 -5 -13.5 -10t-12.5 -10t-12 -10.5t-11 -10.5q-5 -6 -9 -12t-6 -12q-3 -7 -4 -13.5t-1 -13.5q0 -4 0.5 -8.5t1.5 -8.5t2.5 -8t3.5 -8t4.5 -7.5t5.5 -6.5
q3 -4 6 -7t7 -6q5 -5 10.5 -10t11.5 -10q6 -4 13.5 -9.5t14.5 -10.5q8 -5 15.5 -11t15.5 -12q8 -7 17 -13.5t18 -13.5q6 3 11.5 6.5t9.5 7.5q5 4 9 8.5t8 8.5q4 5 7 9.5t6 8.5q2 5 4.5 9.5t3.5 9.5v1.5v1.5v1t1 2v0.5v1.5v0.5t1 1.5v0.5v0.5v1.5v1.5v1.5t1 1.5v1.5v1.5v1.5
v1.5q0 8 -1.5 15t-3.5 14q-3 7 -6.5 13.5t-8.5 12.5q-5 5 -11 10.5t-12 11.5t-12.5 11.5t-14.5 10.5q-1 1 -2.5 2t-3.5 2l-2.5 2.5t-3.5 2.5t-3.5 2t-3.5 2q-1 1 -2.5 2t-3.5 2q-1 1 -3 2t-3 3q-2 1 -3.5 2t-3.5 2q-1 1 -3 2t-3 3q-2 1 -3.5 2.5t-3.5 2.5q-1 0 -1.5 0.5
t-0.5 1.5q-1 0 -1.5 0.5t-1.5 0.5q-1 1 -2 1.5t-2 1.5t-2.5 2t-3.5 2l-2 2l-2 2v2v0v0z" />
    <glyph glyph-name="bullet" horiz-adv-x="354" 
d="M188 485q15 -1 28.5 -4.5t26.5 -8.5t25 -12.5t22 -18.5q11 -10 18.5 -22t12.5 -25t8 -26.5t3 -28.5t-3 -29t-8 -27t-12.5 -24t-18.5 -22q-10 -10 -22 -18.5t-25 -13.5t-26.5 -7.5t-28.5 -2.5t-29 2.5t-27 7.5t-24 13.5t-22 18.5q-10 11 -18.5 22t-13.5 24t-7.5 27
t-2.5 29t2.5 28.5t7.5 26.5t13.5 25t18.5 22q11 11 22 18.5t24 12.5t27 8t29 3v2v0v0z" />
    <glyph glyph-name="paragraph" unicode="&#xb6;" horiz-adv-x="552" 
d="M310 -197h-119v511q-23 1 -43.5 5t-37.5 11q-18 8 -33 18t-27 23q-13 13 -22.5 28t-15.5 33q-6 17 -9 36.5t-3 41.5q0 20 3 38.5t9 36.5t15.5 34.5t22.5 32.5q12 15 29 27t38 19q21 8 46 12t54 4l334 2v-128h-55v-785h-119v785h-67v-785v0v0v0z" />
    <glyph glyph-name="germandbls" unicode="&#xdf;" horiz-adv-x="552" 
d="M27 0l61 434q2 17 5 33.5t6 31.5t6.5 28t7.5 24q3 11 7.5 21.5t10.5 20.5q5 9 12 18t14 16q8 8 16.5 15t17.5 13t18.5 10.5t19.5 8.5t20.5 7t21.5 4q11 2 23 3t25 1q22 0 41.5 -3t37.5 -9t33.5 -15t28.5 -20q13 -12 22.5 -25.5t16.5 -29.5t10.5 -33t3.5 -37q0 -14 -2 -27
t-5 -24t-8 -21t-11 -19q-7 -9 -15 -17t-18 -15t-21 -12.5t-24 -10.5q12 -7 23 -14t20 -15q9 -7 16 -16t13 -18q5 -10 9.5 -20.5t7.5 -22.5t4.5 -25.5t1.5 -27.5q0 -24 -4 -46t-12 -42q-7 -19 -18.5 -37t-26.5 -34q-16 -16 -33 -27.5t-36 -19.5q-19 -6 -40 -10t-44 -4h-3.5
h-3.5h-2.5h-3.5q-1 1 -2.5 1h-2.5h-2h-2h-2h-2q-1 1 -2 1h-2h-2h-2q-1 1 -1.5 1h-1.5q-1 1 -2.5 1.5t-3.5 0.5h-2h-2t-1.5 0.5l-0.5 0.5q-1 1 -1.5 1h-1.5h-1.5h-0.5q-1 1 -1.5 1h-1.5l15 107q2 -1 3.5 -2.5l2.5 -2.5q2 -1 3.5 -1h2.5h0.5h1.5q0 -1 0.5 -1h0.5h1h2
q0 -1 0.5 -1h1.5h1.5h1.5h0.5h1.5h0.5h1.5h0.5h1.5h0.5h1.5q10 0 19 2.5t16 6.5q8 5 15 11.5t13 15.5t10.5 19.5t7.5 22.5t4.5 26t1.5 29q0 11 -1.5 20t-4.5 18t-7 16.5t-9 14.5t-11 12t-13 9q-7 3 -15 5t-16 2l-10 2l14 99h7q9 -1 18 0t16 4q8 3 14.5 7.5t12.5 10.5
t10.5 13t7.5 14q3 8 4.5 16.5t1.5 18.5q0 8 -1.5 15.5t-3.5 14.5q-3 7 -6.5 13t-8.5 11t-11 9t-12 7q-7 2 -13.5 3.5t-14.5 1.5q-11 0 -20.5 -2.5t-17.5 -7.5q-8 -4 -14 -11t-10 -16q-4 -10 -8 -21t-7 -25q-4 -13 -7 -28.5t-5 -32.5v-1.5v-0.5v-1.5v-0.5q-1 -1 -1 -2v-1
v-1.5v-0.5v-1.5v-0.5v-1.5v-0.5q-1 -1 -1 -1.5v-0.5v-1.5v-0.5l-61 -428h-135v0v0v0z" />
    <glyph glyph-name="registered" unicode="&#xae;" horiz-adv-x="740" 
d="M370 730q38 -1 74 -8.5t69 -21.5q33 -13 63 -34t58 -48q27 -28 48 -58t34 -63q14 -33 21 -69t7 -74q0 -39 -7 -75t-21 -69q-13 -33 -34 -63t-48 -57q-28 -28 -58 -48t-63 -34q-33 -12 -69 -18.5t-74 -6.5q-39 0 -75 6.5t-69 18.5q-33 14 -63 34t-57 48q-28 27 -48 57
t-34 63q-13 33 -19 69t-6 75q0 38 6 74t19 69q14 33 34 63t48 58q27 27 57 48t63 34q33 14 69 21t75 7v2v0v0zM370 656q-31 -1 -60 -7t-55 -17q-27 -11 -51 -27.5t-46 -38.5t-38.5 -46t-27.5 -51t-16.5 -55.5t-5.5 -59.5t5.5 -60t16.5 -56t27.5 -51t38.5 -46t46 -38.5
t51 -27.5q26 -11 55 -16.5t60 -5.5t59.5 5.5t55.5 16.5t51.5 27.5t46.5 38.5t38.5 46t27.5 51t16.5 56t5.5 60t-5.5 59.5t-16.5 55.5t-27.5 51t-38.5 46t-46.5 38.5t-51.5 27.5t-55.5 16.5t-59.5 5.5v2v0v0zM546 156h-99l-32 65q-1 0 -1.5 1t-1.5 2t-1.5 2.5t-1.5 2.5
q-1 2 -1.5 3.5t-1.5 2.5q-1 2 -1.5 3.5t-1.5 2.5l-1.5 1.5t-0.5 1.5q-1 1 -1.5 2t-0.5 2q-1 0 -2 1t-1 2l-1.5 1.5t-0.5 1.5l-1.5 1.5t-0.5 1.5q-1 1 -1.5 2t-0.5 2q-1 0 -2 1t-1 2l-1.5 1.5t-0.5 1.5q-1 1 -1.5 2t-1.5 2t-2 2.5t-1 2.5l-2 2l-2 2t-1.5 2t-1.5 2t-1.5 2
t-1.5 2q-1 0 -1.5 1t-1.5 2q-1 2 -2.5 3.5l-2.5 2.5h-1.5h-0.5v0.5v1.5h-1.5h-0.5v0.5v1.5q-3 2 -6 4.5t-6 3.5q-3 2 -6 2.5t-6 1.5q-4 1 -7.5 1.5t-8.5 1.5h-4.5t-5.5 1h-5h-6l-15 2v-163h-80v397h196q16 -1 29.5 -3.5t25.5 -6.5t22 -10t17 -14q8 -8 13.5 -17t9.5 -19
t6 -21t2 -22t-2 -21.5t-6 -19.5q-4 -10 -9 -18t-12 -16q-7 -7 -15.5 -13t-18.5 -11q-10 -4 -21 -7t-23 -5v0v-1.5v-0.5v0v0v0v0v0h1v-1v0v0h1v0v0q2 -1 4.5 -1.5t4.5 -2.5q2 -1 4.5 -2t4.5 -2q1 -1 2 -1.5t2 -0.5q1 -1 2 -1.5t2 -1.5l2 -2t2 -1l2 -2l2 -2q2 -2 4.5 -5
t5.5 -6q2 -4 5 -7.5t6 -7.5q2 -4 5 -9.5t7 -11.5q3 -6 7.5 -12t8.5 -13l46 -78v0v0v0zM281 382h83q10 -1 18.5 -0.5t15.5 2.5q8 2 13.5 5.5t9.5 7.5t7 8.5t5 9.5t3 10t1 10q0 6 -1.5 12t-3.5 11q-3 5 -7 9t-9 8q-5 3 -11.5 6t-14.5 4q-7 2 -16 3t-19 1l-74 2v-109v0v0v0z
" />
    <glyph glyph-name="copyright" unicode="&#xa9;" horiz-adv-x="740" 
d="M370 730q38 -1 74 -8.5t69 -21.5q33 -13 63 -34t58 -48q27 -28 48 -58t34 -63q14 -33 21 -69t7 -74q0 -39 -7 -75t-21 -69q-13 -33 -34 -63t-48 -57q-28 -28 -58 -48t-63 -34q-33 -12 -69 -18.5t-74 -6.5q-39 0 -75 6.5t-69 18.5q-33 14 -63 34t-57 48q-28 27 -48 57
t-34 63q-13 33 -19 69t-6 75q0 38 6 74t19 69q14 33 34 63t48 58q27 27 57 48t63 34q33 14 69 21t75 7v2v0v0zM370 656q-31 -1 -60 -7t-55 -17q-27 -11 -51 -27.5t-46 -38.5t-38.5 -46t-27.5 -51t-16.5 -55.5t-5.5 -59.5t5.5 -60t16.5 -56t27.5 -51t38.5 -46t46 -38.5
t51 -27.5q26 -11 55 -16.5t60 -5.5t59.5 5.5t55.5 16.5t51.5 27.5t46.5 38.5t38.5 46t27.5 51t16.5 56t5.5 60t-5.5 59.5t-16.5 55.5t-27.5 51t-38.5 46t-46.5 38.5t-51.5 27.5t-55.5 16.5t-59.5 5.5v2v0v0zM460 301l79 -27q-5 -16 -11 -30t-14 -26q-7 -12 -16 -22t-20 -18
q-10 -8 -22 -14t-25 -10t-27 -6t-29 -2q-22 0 -41.5 3t-36.5 10t-32 17.5t-28 24.5t-22.5 30t-15.5 35q-7 19 -10 40t-3 45t3 46t10 41q6 20 15.5 36.5t22.5 30.5t28 25t32 18t37 10.5t42 3.5q15 0 29 -2t27 -6t24 -9t21 -12t19 -17t16 -21q8 -11 14.5 -24t12.5 -28l-79 -17
l-7.5 15t-7.5 13t-9 11.5t-10 9.5t-11 7t-13 5t-14 3.5t-15 1.5q-12 0 -23 -2t-20 -7q-9 -4 -17 -11t-15 -16t-12 -20t-8 -24t-4.5 -27t-1.5 -31q0 -16 1.5 -31t4.5 -28t7.5 -23.5t11.5 -19.5q6 -10 14 -16.5t17 -11.5q9 -4 19 -6.5t22 -2.5q8 0 16 1t15 4t13 7t12 9
q5 5 10.5 12t9.5 14q5 8 8.5 17.5t6.5 19.5v2v0v0z" />
    <glyph glyph-name="trademark" unicode="&#x2122;" horiz-adv-x="1000" 
d="M229 316v330h-123v70h324v-70h-120v-330h-81v0v0v0zM478 316v400h127l72 -276h2l72 276h127v-400h-77v319h-2l-85 -319h-73l-84 319h-2v-319h-77v0v0v0z" />
    <glyph glyph-name="acute" unicode="&#xb4;" horiz-adv-x="333" 
d="M116 504l89 172h161l-177 -172h-73v0v0v0z" />
    <glyph glyph-name="dieresis" unicode="&#xa8;" horiz-adv-x="333" 
d="M105 663q7 -1 13 -3l12 -4q5 -3 10.5 -6t10.5 -8t8 -10.5t6 -10.5q2 -6 3.5 -12t1.5 -13t-1.5 -13t-3.5 -12q-3 -6 -6 -11.5t-8 -10.5t-10.5 -9t-10.5 -6q-6 -2 -12 -3t-13 -1t-13 1t-12 3t-11.5 6t-10.5 9t-9 10.5t-6 11.5t-3 12t-1 13t1 13t3 12q2 5 6 10.5t9 10.5
t10.5 8t11.5 6q6 2 12 3.5t13 1.5v2v0v0zM307 663q7 -1 13 -3l12 -4q5 -3 10.5 -6t10.5 -8t8 -10.5t6 -10.5q2 -6 3.5 -12t1.5 -13t-1.5 -13t-3.5 -12q-3 -6 -6 -11.5t-8 -10.5t-10.5 -9t-10.5 -6q-6 -2 -12 -3t-13 -1t-13 1t-12 3t-11.5 6t-10.5 9t-9 10.5t-6 11.5t-3 12
t-1 13t1 13t3 12q2 5 6 10.5t9 10.5t10.5 8t11.5 6q6 2 12 3.5t13 1.5v2v0v0z" />
    <glyph glyph-name="notequal" unicode="&#x2260;" 
 />
    <glyph glyph-name="AE" unicode="&#xc6;" horiz-adv-x="990" 
d="M974 682l-13 -114h-311l-22 -160h275l-17 -114h-274l-26 -180h388l-19 -114h-530l24 169h-239l-108 -169h-167l438 682h601v0v0v0zM507 581h-35l-198 -311h189l44 311v0v0v0z" />
    <glyph glyph-name="Oslash" unicode="&#xd8;" horiz-adv-x="833" 
d="M199 48l-91 -101l-47 44l87 97q-11 10 -21 21t-18 24q-8 12 -15 25.5t-12 27.5q-6 14 -10 29t-7 30t-4 30t-1 31q0 41 7 79t21 72q14 35 36 65.5t50 57.5q29 27 60.5 47.5t67.5 33.5q36 14 76 21t83 7q14 0 27 -1t26 -3q13 -1 25 -3.5t24 -5.5q11 -3 22 -6.5t21 -7.5
q11 -4 20.5 -9t19.5 -10l57 66l68 -27l-69 -76q11 -11 20.5 -23t18.5 -24q8 -13 15.5 -26.5t14.5 -27.5q6 -15 11 -30t8 -31t5 -32.5t2 -33.5q0 -44 -7 -84t-21 -75t-35 -66t-49 -57q-28 -27 -59.5 -46.5t-66.5 -32.5t-74 -19t-81 -6q-17 0 -33 1t-30 3q-15 2 -28.5 4
t-26.5 6t-24.5 8.5t-22.5 9.5t-21 10.5t-19 11.5v2v0v0zM604 497l-313 -347q2 -3 4.5 -4.5t4.5 -3.5q2 -1 4.5 -2.5t4.5 -2.5t4.5 -2t4.5 -2t4.5 -2t4.5 -2q4 -2 8.5 -3.5t8.5 -3.5q5 -1 9.5 -2t8.5 -2q5 -1 9.5 -1.5t10.5 -0.5q5 -1 11 -1h12q25 0 48 4.5t45 13.5
q21 9 40.5 22.5t37.5 32.5q17 18 30.5 39t22.5 43q9 23 13.5 47t4.5 51v1.5v1.5v1.5v1.5q-1 1 -1 1.5v1.5v1.5v1.5v3.5v2.5v4v4q-1 3 -1.5 6t-1.5 7q-1 3 -1.5 6t-1.5 6q-1 6 -3.5 12.5t-4.5 13.5q-1 3 -2.5 6t-2.5 7q-2 3 -3.5 6t-3.5 6l-4 6t-4 7l-4 6l-4 6v2v0v0z
M244 196l308 344q-2 0 -4 0.5t-4 1.5t-3.5 1.5t-3.5 1.5t-4 1.5t-4 1.5q-1 1 -2.5 1.5t-3.5 1.5t-4 1.5t-4 1.5q-3 0 -5 0.5t-4 1.5q-4 2 -8 2.5t-8 1.5t-8.5 1.5t-9.5 0.5h-5.5t-4.5 1h-5.5h-5.5q-25 0 -48 -5t-44 -14q-22 -9 -41.5 -23t-36.5 -32q-18 -19 -31.5 -39
t-22.5 -42t-13 -45.5t-4 -49.5v-1.5v-1.5v-1.5v-1.5v-1.5v-0.5v-1v0v-1.5v-0.5v-1.5v-0.5q0 -7 1 -14l2 -14q2 -7 3.5 -14t3.5 -14t4.5 -13.5t5.5 -12.5q3 -7 6.5 -13t7.5 -11v2v0v0z" />
    <glyph glyph-name="infinity" unicode="&#x221e;" 
 />
    <glyph glyph-name="plusminus" unicode="&#xb1;" horiz-adv-x="584" 
d="M55 0v128h500v-128h-500v0v0v0zM55 360v128h186v186h128v-186h186v-128h-186v-186h-128v186h-186v0v0v0z" />
    <glyph glyph-name="lessequal" unicode="&#x2264;" 
 />
    <glyph glyph-name="greaterequal" unicode="&#x2265;" 
 />
    <glyph glyph-name="yen" unicode="&#xa5;" horiz-adv-x="552" 
d="M291 0h-138l28 136h-182l19 94h183l13 62h-182l20 94h132l-98 330h141l71 -307h2l182 307h160l-227 -330h137l-20 -94h-180l-13 -62h180l-19 -94h-181l-28 -136v0v0v0z" />
    <glyph glyph-name="mu" unicode="&#xb5;" horiz-adv-x="615" 
d="M143 454h133l-59 -247q-1 -4 -1.5 -7.5t-1.5 -6.5t-1.5 -6t-0.5 -5q-1 -3 -1 -6v-6v-5.5v-4.5q0 -9 1 -16.5t3 -15.5q2 -7 6 -13.5t9 -12.5t11.5 -10.5t14.5 -7.5t18 -4t22 -1t23 1.5t21 5.5t18.5 10t15.5 14t13 16.5t11 18.5t9 21t7 24l64 264h133l-109 -454h-120l11 42
l-2 2q-1 -2 -2 -3.5t-2 -3.5l-2 -2l-2 -2l-2 -2l-2 -2t-2 -1.5t-2 -1.5q-7 -6 -13 -10.5t-12 -8.5t-12 -5.5t-12 -2.5q-3 -1 -6 -1.5t-6 -1.5q-3 0 -5.5 -0.5t-5.5 -1.5q-6 -1 -11.5 -1.5t-10.5 -0.5h-1.5h-0.5h-1.5h-0.5q-1 1 -2 1h-1h-1.5h-0.5h-1.5h-0.5h-1.5h-1.5h-2h-2
q-7 1 -13 2t-12 3l-12 4t-11 5q-6 3 -11 7t-10 9q-4 5 -8 11.5t-7 13.5l-2 2l-54 -225h-133l153 629v0v0v0z" />
    <glyph glyph-name="partialdiff" unicode="&#x2202;" 
 />
    <glyph glyph-name="summation" unicode="&#x3a3;" 
 />
    <glyph glyph-name="product" unicode="&#x220f;" 
 />
    <glyph glyph-name="pi" unicode="&#x3c0;" 
 />
    <glyph glyph-name="integral" unicode="&#x222b;" 
 />
    <glyph glyph-name="ordfeminine" unicode="&#xaa;" horiz-adv-x="365" 
d="M392 682l-44 -270h-93l3 18q-2 -2 -4.5 -3.5t-4.5 -3.5q-3 -1 -5.5 -2.5t-4.5 -2.5t-4.5 -2t-4.5 -2q-3 -1 -5.5 -1.5t-4.5 -1.5q-5 -1 -10 -2.5t-10 -1.5q-4 -1 -9.5 -1h-10.5q-12 0 -23 2t-20 6q-10 5 -18 11t-16 14q-7 8 -13 18t-10 20q-4 11 -5.5 22.5t-1.5 24.5
q0 19 3.5 36t10.5 32q8 15 18.5 28.5t25.5 24.5q14 11 31.5 19t36.5 14q20 5 43 8t48 3h2h2h1h2h2h2h1h2t2 -0.5t2 -0.5h1h2h3.5h2.5h3.5h2.5h3.5h2.5q2 -1 3.5 -1h2.5h3.5h2.5q3 -1 6 -1.5t6 -0.5h3.5h2.5q2 -1 3.5 -1h2.5q3 -1 6 -1.5t7 -0.5q3 0 6.5 -0.5t7.5 -1.5v2v0v0
zM267 494l17 124h-18q-10 -1 -19.5 -3.5t-17.5 -5.5q-9 -3 -16.5 -7.5t-14.5 -10.5t-12.5 -13.5t-8.5 -16.5q-4 -9 -5.5 -19.5t-1.5 -21.5q0 -6 0.5 -10.5t1.5 -9.5q2 -4 3.5 -8t4.5 -7q2 -3 5 -5t7 -4q3 -1 7.5 -2t8.5 -1h0.5h1.5h0.5h1.5v0h1h0.5h1.5h0.5h1.5h0.5h1.5v0h1
v0l1 1h0.5h0.5q2 0 4.5 0.5t5.5 1.5q2 1 5 2l6 2l5 2.5t6 2.5q3 2 6 3.5l7 3.5v2v0v0z" />
    <glyph glyph-name="ordmasculine" unicode="&#xba;" horiz-adv-x="375" 
d="M394 562q0 -17 -3.5 -32.5t-9.5 -29.5q-6 -13 -15 -26t-21 -24q-13 -11 -26.5 -19.5t-28.5 -13.5q-15 -6 -31.5 -8.5t-34.5 -2.5q-16 0 -30.5 2.5t-28.5 6.5q-13 5 -26 12t-24 17q-11 9 -19.5 19.5t-13.5 22.5q-6 11 -8.5 24t-2.5 27q0 15 3 30t10 28q6 14 15.5 26
t22.5 23t27 19.5t29 14.5q15 5 32 8t35 3q16 0 31 -2.5t28 -7.5q14 -4 26 -11t22 -16q11 -9 18.5 -19.5t12.5 -21.5q5 -12 8 -24.5t3 -26.5v2v0v0zM294 564q0 5 -1 10.5t-3 10.5q-1 5 -4 9.5t-7 8.5t-8 7t-9 4q-4 2 -9.5 3t-11.5 1q-7 0 -14 -2t-13 -5t-12 -8t-11 -11
q-5 -7 -9 -13.5t-6 -14.5q-3 -7 -4 -15.5t-1 -16.5q0 -6 1 -11.5t3 -10.5q2 -4 4.5 -8.5t6.5 -8.5t8.5 -7t8.5 -5q5 -2 10 -3t11 -1q7 0 13.5 1.5t12.5 4.5t12 7.5t11 11.5q5 6 9 13.5t7 14.5q2 8 3.5 15.5t1.5 16.5v2v0v0z" />
    <glyph glyph-name="Omega" unicode="&#x3a9;" 
 />
    <glyph glyph-name="ae" unicode="&#xe6;" horiz-adv-x="688" 
d="M649 207h-279q-1 -2 -1 -3.5v-3.5v-2.5v-2.5v-1.5v-0.5v-1.5v-1.5v-2v-2q0 -12 2 -23t6 -20t10 -16.5t14 -13.5t16.5 -10.5t17.5 -7.5t19.5 -4.5t21.5 -1.5h2h2h1.5h1.5h0.5h1.5h2h2h1.5h1.5l0.5 0.5t1.5 0.5q6 0 12 1.5t13 2.5q6 2 13 3.5t14 3.5t15.5 5t18.5 7t21 8.5
t24 10.5l-15 -106q-4 -4 -9.5 -7t-10.5 -5l-12 -4t-13 -4t-13.5 -3.5t-14.5 -2.5q-7 0 -14 -1l-14 -2h-4t-4 -1h-4h-4q-4 0 -7.5 -0.5t-7.5 -1.5h-4t-3 -1h-4h-4h-4t-3 -1h-3.5h-3.5q-13 0 -25 1.5t-24 3.5t-22.5 4t-20.5 6t-20.5 9t-19.5 12q-10 6 -19 13.5t-18 16.5
q-5 -4 -10 -8.5t-10 -8.5t-9.5 -7t-9.5 -6q-4 -4 -8.5 -7t-9.5 -5q-4 -3 -8.5 -5t-9.5 -4q-3 -1 -5.5 -2t-4.5 -2q-3 -1 -5.5 -2t-4.5 -1h-6t-5 -1q-3 0 -5.5 -0.5t-4.5 -1.5q-5 -1 -10.5 -1.5t-10.5 -1.5t-10.5 -1.5t-10.5 -0.5q-14 0 -27 2t-24 5q-12 2 -22 8t-19 14
t-15.5 17t-11.5 19q-3 10 -5 21t-2 23q0 18 4 34.5t13 30.5t23 26.5t33 22.5t39.5 18.5t42.5 15.5t46 12t49 9q1 2 1.5 4.5t0.5 5.5v3t1 3q0 1 0.5 2.5t0.5 2.5v2t1 3v2v2v2t1 3v2v2q0 5 -0.5 9t-2.5 8q-1 4 -3.5 7t-4.5 6q-3 2 -6 4.5t-8 3.5q-4 2 -9.5 2.5t-11.5 0.5h-4.5
t-4.5 -1q-3 0 -5.5 -0.5t-4.5 -0.5q-4 -1 -9.5 -1.5t-10.5 -2.5l-6 -2t-5 -1q-3 -1 -5.5 -2t-5.5 -2q-6 -1 -11.5 -3.5t-10.5 -4.5q-1 0 -1.5 -0.5l-0.5 -0.5q-1 -1 -1.5 -1h-1.5q-1 -1 -2 -1h-2q-1 -1 -2.5 -1.5t-3.5 -0.5q-1 -1 -2 -1.5t-2 -0.5q-2 -1 -4.5 -2t-4.5 -2
l-4 -2l-4 -2q-1 -1 -2 -1.5t-2 -0.5q-1 -1 -2 -1.5t-2 -0.5q-1 -1 -2 -1.5t-2 -0.5h-1.5h-0.5q-1 -1 -1.5 -1h-0.5l16 113q5 2 10.5 4.5t10.5 5.5t11 5.5t12 4.5t12 4.5t12 3.5q6 2 12 3.5t12 2.5q2 0 3.5 0.5t3.5 0.5q1 1 3 1h3q3 0 6.5 0.5t7.5 1.5h3.5t2.5 1h3.5h2.5h3.5
t3.5 1h3h4q9 0 17.5 -0.5t16.5 -2.5l8 -2l8 -2q3 -1 7 -2l8 -2q7 -3 13.5 -6t13.5 -7q6 -4 12 -8.5t12 -9.5q7 5 14.5 10t14.5 9q8 4 15.5 7t15.5 6q8 2 15.5 4t16.5 3q8 2 17 2.5t19 0.5q18 0 35.5 -3.5t33.5 -9.5t31 -15.5t28 -22.5q14 -13 23.5 -28t16.5 -32t10.5 -36.5
t3.5 -40.5v-4v-4q-1 -3 -1 -5v-4v-4v-4q-1 -2 -1 -4v-4t-0.5 -4t-0.5 -4q-1 -3 -1.5 -5t-0.5 -4q-1 -2 -1.5 -4t-0.5 -4q-1 -3 -1.5 -5t-0.5 -4v2v0v0zM217 101l16 88q-12 -3 -23 -6t-21 -6q-10 -4 -18 -7.5t-15 -8.5t-13 -10.5t-9 -10.5q-4 -6 -5.5 -12t-1.5 -12
q0 -4 0.5 -8t1.5 -7l3.5 -7t4.5 -5q2 -3 5 -4.5t6 -3.5q3 -1 7 -1.5t8 -0.5h1.5h1.5h1.5h1.5v0h1v0v0h0.5t1.5 1v0h1v0v0h0.5h1.5h2t2 1h1.5t1.5 1h1.5h1.5t2 0.5t2 1.5h1.5t1.5 1l0.5 0.5t1.5 0.5q2 1 4.5 2.5t5.5 2.5l6 4t7 4v2v0v0zM377 285h155v0v1v0.5t1 1.5v0.5v1.5
v0.5v1.5v2v2v2v2q0 7 -1.5 13t-3.5 12t-5 10.5t-7 8.5t-9.5 7t-11.5 5t-12 3t-13 1t-13.5 -1t-12.5 -3q-7 -1 -13 -4l-12 -6q-7 -4 -13 -9.5t-11 -13.5q-5 -7 -9.5 -17.5t-8.5 -22.5v2v0v0z" />
    <glyph glyph-name="oslash" unicode="&#xf8;" horiz-adv-x="563" 
d="M138 27l-65 -77l-37 33l63 74q-7 6 -14 13.5t-13 16.5q-6 8 -10.5 17l-9.5 19q-4 10 -7.5 20.5t-5.5 20.5q-2 11 -3 21.5t-1 22.5q0 26 4.5 50t14.5 46q9 23 24 43t34 39q19 18 40 32t44 23t48.5 14t52.5 5h1.5h1.5h1h2q0 -1 0.5 -1h1.5h1.5h1.5h3.5h2.5h3.5h2.5
q7 -1 13.5 -1.5t13.5 -2.5q3 -1 6.5 -2t7.5 -1q3 -1 6.5 -2t6.5 -2q6 -2 12 -4.5t12 -4.5q5 -2 10.5 -4.5t9.5 -4.5l62 75l38 -31l-60 -70q8 -8 14 -16.5t12 -16.5q6 -9 11.5 -18t9.5 -19t7 -20.5t5 -21.5t3.5 -22.5t1.5 -23.5q0 -28 -5 -53t-14 -48q-9 -22 -23 -43t-32 -39
q-19 -19 -39.5 -32.5t-43.5 -22.5q-23 -8 -48.5 -12t-52.5 -4q-10 0 -19.5 0.5t-18.5 2.5q-9 1 -17.5 2.5t-16.5 2.5q-8 2 -15.5 5t-14.5 6t-13 6.5t-11 7.5v2v0v0zM372 302l-156 -185q2 -3 4 -4.5t5 -3.5l5 -2.5t7 -2.5q3 -1 6.5 -2.5t7.5 -1.5q3 -1 6.5 -1h7.5
q11 0 21.5 2t19.5 6q9 5 17 11t15 14t13 17t10 18q5 9 8.5 19t6.5 20q1 2 1.5 4.5t0.5 5.5t0.5 6t1.5 6v3t1 3v2.5v2.5v3t1 3v2.5v2.5v2v2v2v2q-1 1 -1 2v2v1.5v1.5v1.5v1.5v0.5v1.5q-1 0 -1 0.5v1.5v0v1q-1 0 -1 0.5v1.5v1.5v1.5q-1 1 -1.5 2t-0.5 2v1.5v1.5q-1 1 -1 1.5
v1.5q-1 2 -1.5 3.5t-0.5 2.5q-1 2 -1.5 3.5t-0.5 2.5v2v0v0zM184 157l155 182h-1.5h-1.5t-1.5 0.5l-1.5 1.5h-1.5h-1.5t-1.5 0.5l-1.5 1.5h-0.5t-0.5 1h-1.5h-0.5q-1 0 -2 0.5t-1 1.5h-2h-2t-1.5 0.5l-1.5 1.5h-1.5h-1.5h-1.5t-1.5 1h-1.5h-1.5h-1.5h-1.5h-1.5h-1.5h-1.5
t-1.5 1h-1.5h-1.5h-1.5h-0.5q-10 0 -20 -2t-18 -5q-9 -3 -16 -8t-13 -12q-7 -7 -12 -13.5t-10 -14.5l-4 -8t-4 -7q-2 -4 -3.5 -8t-3.5 -8q-1 -4 -2.5 -8.5t-2.5 -9.5q-1 -4 -2 -8.5t-2 -8.5t-1.5 -8.5t-0.5 -7.5q-1 -4 -1 -7v-6v-1.5v-1.5v-1.5v-0.5v-2v-1v-1.5v-1.5v-2.5
v-3.5q0 -1 0.5 -2.5t1.5 -2.5v-2.5v-3.5q0 -1 0.5 -2.5t1.5 -3.5q0 -1 0.5 -2.5t1.5 -3.5q1 -1 1.5 -2.5t1.5 -2.5v2v0v0z" />
    <glyph glyph-name="questiondown" unicode="&#xbf;" horiz-adv-x="323" 
d="M141 245h106q-1 -16 -2.5 -30t-4.5 -27t-7.5 -24.5t-10.5 -22.5q-3 -6 -6 -11t-6 -11q-4 -5 -7 -9.5t-6 -9.5q-6 -9 -12.5 -18t-13.5 -17l-10 -12t-10 -11t-9.5 -10.5t-9.5 -10.5q-3 -4 -6 -7.5t-6 -6.5l-2.5 -2.5l-2.5 -2.5q-1 -2 -2 -3l-2 -2q-1 -2 -2 -3.5t-2 -2.5
t-1.5 -2t-0.5 -2q-1 0 -1.5 -1t-0.5 -2l-2 -4l-2 -4t-1.5 -4t-1.5 -4t-1.5 -4.5t-0.5 -4.5v-4.5v-4.5q0 -5 1 -10t3 -9t5 -7.5t7 -7.5q4 -3 8.5 -6t9.5 -4q5 -2 10.5 -3t12.5 -1q6 0 12 0.5t13 2.5q7 1 14.5 3.5t15.5 5.5t16 6.5t16 7.5t16.5 7.5t16.5 8.5q0 1 0.5 1.5
t1.5 0.5q0 1 0.5 1h1.5l1.5 1.5t1.5 0.5h0.5h1.5q0 1 0.5 1h0.5l-19 -133q-6 -3 -12 -6.5t-12 -6.5q-3 -2 -6 -3t-5 -3q-3 -1 -5.5 -2.5t-5.5 -2.5q-6 -2 -11.5 -4.5t-10.5 -3.5q-3 -1 -5.5 -2t-4.5 -2q-3 0 -5.5 -1t-5.5 -2q-4 -1 -7.5 -1.5t-6.5 -1.5h-3t-3 -1
q-2 0 -3.5 -0.5t-3.5 -0.5h-4t-3 -1h-3.5h-3.5h-4t-3 -1h-3.5h-3.5q-18 0 -34 3t-31 9t-28 15t-24 20q-10 12 -18 25t-14 27t-9 29.5t-3 32.5q0 16 2 31t6 27q4 11 9 22t12 21q2 3 4.5 6.5t5.5 6.5q4 6 9 12.5t10 12.5q8 9 16.5 17.5t17.5 16.5q4 3 7.5 6.5l7.5 7.5
q3 4 6.5 7.5l7.5 7.5q8 8 14.5 15.5t13.5 15.5t12.5 16t9.5 18q5 10 8 21t5 23v2v0v0zM198 301q-9 -1 -16.5 0t-15.5 4q-7 3 -14 7.5t-13 11.5q-7 6 -11.5 13t-7.5 14q-3 8 -4.5 15.5t-1.5 16.5q0 8 1.5 16.5t4.5 15.5q3 8 7.5 14.5t11.5 12.5q6 6 13 10.5t14 7.5
q8 3 15.5 5t16.5 2q8 0 16.5 -2t15.5 -5q8 -3 14.5 -7.5t12.5 -10.5t10.5 -12.5t7.5 -14.5q3 -7 5 -15.5t2 -16.5q0 -9 -2 -16.5t-5 -15.5q-3 -7 -7.5 -14t-10.5 -13q-6 -7 -12.5 -11.5t-14.5 -7.5q-7 -3 -15.5 -4.5t-16.5 -1.5v2v0v0z" />
    <glyph glyph-name="exclamdown" unicode="&#xa1;" horiz-adv-x="260" 
d="M107 248h80l-17 -304q-1 -13 -1.5 -26t-2.5 -25q-1 -12 -3.5 -23t-4.5 -21t-5 -18.5t-6 -15.5q-4 -8 -7.5 -13.5t-7.5 -9.5q-1 -1 -2.5 -2t-2.5 -2q-2 -1 -3 -2t-3 -2q-1 -1 -2.5 -2t-3.5 -2q-1 0 -2.5 -1t-3.5 -2q-1 -1 -3 -1.5t-3 -0.5q-2 -1 -3.5 -1.5t-3.5 -0.5
q-4 -1 -7.5 -1.5t-7.5 -0.5q-7 0 -14 1.5t-13 3.5q-6 3 -11 6.5t-9 8.5t-7.5 11t-5.5 12q-2 7 -3 14.5t-1 15.5v7t1 9q0 4 0.5 9.5t1.5 11.5q1 7 2 13.5t2 12.5t2.5 12.5t2.5 13.5v4v4q0 1 0.5 2.5t1.5 3.5v1.5v1.5t0.5 2t1.5 1v2v2t0.5 1.5l1.5 1.5l72 288v0v0v0zM165 301
q-9 -1 -16.5 0t-15.5 4q-7 3 -14 7.5t-13 11.5q-7 6 -11.5 13t-7.5 14q-3 8 -4.5 15.5t-1.5 16.5q0 8 1.5 16.5t4.5 15.5q3 8 7.5 14.5t11.5 12.5q6 6 13 10.5t14 7.5q8 3 15.5 5t16.5 2q8 0 16.5 -2t15.5 -5q8 -3 14.5 -7.5t12.5 -10.5t10.5 -12.5t7.5 -14.5q3 -7 5 -15.5
t2 -16.5q0 -9 -2 -16.5t-5 -15.5q-3 -7 -7.5 -14t-10.5 -13q-6 -7 -12.5 -11.5t-14.5 -7.5q-7 -3 -15.5 -4.5t-16.5 -1.5v2v0v0z" />
    <glyph glyph-name="logicalnot" unicode="&#xac;" 
 />
    <glyph glyph-name="radical" unicode="&#x221a;" 
 />
    <glyph glyph-name="florin" unicode="&#x192;" horiz-adv-x="552" 
d="M135 415l18 103h98l15 83q2 15 6 28.5t10 25.5q6 11 13 21t16 18q8 8 19.5 14t25.5 10t31.5 6t37.5 2l2 2h2q3 -1 6.5 -2t7.5 -1h7.5h7.5h2h2q1 -1 2 -1h2h4h4q2 -1 3.5 -1.5t3.5 -0.5h4h4q2 -1 4.5 -1.5t4.5 -0.5q2 -1 4 -1h5q2 -1 4 -1.5t4 -0.5q2 -1 4.5 -1.5
t4.5 -0.5q2 -1 4 -1.5t5 -0.5q2 -1 4 -1.5t4 -1.5t4 -1.5t5 -0.5q2 -1 4 -1.5t4 -0.5l-27 -108l-12 2t-11 2q-5 2 -9.5 2.5t-9.5 1.5q-4 1 -8.5 1.5t-9.5 0.5h-4.5t-4.5 1h-4h-4q-7 0 -13.5 -1t-11.5 -3q-5 -1 -9 -3.5t-7 -5.5q-3 -4 -6 -9t-5 -11q-3 -6 -4.5 -14t-3.5 -18
l-5 -26h101l-18 -103h-100l-85 -485q-3 -16 -7.5 -31.5t-10.5 -28.5t-13 -24t-15 -20q-8 -8 -19.5 -15t-25.5 -11q-14 -5 -31.5 -7t-37.5 -2h-2.5h-3.5h-2.5h-2.5q-1 1 -2.5 1h-3.5h-2.5h-3.5h-2.5h-3.5h-2.5h-2.5q-1 1 -2.5 1h-3.5h-2.5h-3.5q-1 0 -3 0.5t-3 0.5
q-2 1 -3.5 1h-3.5q-3 1 -6 1h-6q-3 1 -6 1.5t-6 0.5q-3 1 -6 1.5t-6 0.5q-3 1 -6 1.5t-6 0.5q-3 1 -5.5 1.5t-4.5 1.5q-3 1 -5 1.5t-4 0.5q-1 1 -1.5 1h-0.5q-2 1 -3.5 1t-2.5 1l25 107q6 0 12 -1l12 -2t11.5 -1.5t10.5 -1.5t10.5 -1.5t9.5 -0.5h4t5 -1h4h4q6 0 12 0.5
t10 2.5q5 1 8.5 3.5t6.5 5.5q2 3 4.5 8l5.5 11q2 7 4.5 15t4.5 18v1.5v0.5v1.5t1 0.5v2v1v1.5v0.5v1.5v0.5v1.5v1.5t0.5 2t1.5 2l73 425h-98v0v0v0z" />
    <glyph glyph-name="approxequal" unicode="&#x2248;" 
 />
    <glyph glyph-name="Delta" unicode="&#x2206;" 
 />
    <glyph glyph-name="guillemotleft" unicode="&#xab;" horiz-adv-x="542" 
d="M299 461l-164 -230l67 -231h-113l-73 255l151 206h132v0v0v0zM572 461l-164 -230l67 -231h-113l-73 255l151 206h132v0v0v0z" />
    <glyph glyph-name="guillemotright" unicode="&#xbb;" horiz-adv-x="542" 
d="M-30 0l164 230l-67 231h113l73 -255l-151 -206h-132v0v0v0zM243 0l164 230l-67 231h113l73 -255l-151 -206h-132v0v0v0z" />
    <glyph glyph-name="ellipsis" unicode="&#x2026;" horiz-adv-x="1000" 
d="M224 78q0 -10 -2 -19t-5 -17q-3 -7 -8 -14t-11 -13q-7 -6 -13.5 -10.5t-14.5 -6.5q-7 -3 -15.5 -4.5t-17.5 -1.5t-17.5 1.5t-16.5 4.5q-7 2 -14.5 6.5t-13.5 10.5q-7 6 -11.5 13t-7.5 14q-3 8 -4.5 16.5t-1.5 17.5t1.5 17.5t4.5 15.5q3 8 7.5 14.5t11.5 13.5q6 6 13.5 11
t14.5 8q8 3 16.5 5t17.5 2t17.5 -2t15.5 -5q8 -3 14.5 -8t13.5 -11q6 -7 11 -13.5t8 -14.5q3 -7 5 -15.5t2 -17.5v2v0v0zM557 78q0 -10 -2 -19t-5 -17q-3 -7 -8 -14t-11 -13q-7 -6 -13.5 -10.5t-14.5 -6.5q-7 -3 -15.5 -4.5t-17.5 -1.5t-17.5 1.5t-16.5 4.5q-7 2 -14.5 6.5
t-13.5 10.5q-7 6 -11.5 13t-7.5 14q-3 8 -4.5 16.5t-1.5 17.5t1.5 17.5t4.5 15.5q3 8 7.5 14.5t11.5 13.5q6 6 13.5 11t14.5 8q8 3 16.5 5t17.5 2t17.5 -2t15.5 -5q8 -3 14.5 -8t13.5 -11q6 -7 11 -13.5t8 -14.5q3 -7 5 -15.5t2 -17.5v2v0v0zM890 78q0 -10 -2 -19t-5 -17
q-3 -7 -8 -14t-11 -13q-7 -6 -13.5 -10.5t-14.5 -6.5q-7 -3 -15.5 -4.5t-17.5 -1.5t-17.5 1.5t-16.5 4.5q-7 2 -14.5 6.5t-13.5 10.5q-7 6 -11.5 13t-7.5 14q-3 8 -4.5 16.5t-1.5 17.5t1.5 17.5t4.5 15.5q3 8 7.5 14.5t11.5 13.5q6 6 13.5 11t14.5 8q8 3 16.5 5t17.5 2
t17.5 -2t15.5 -5q8 -3 14.5 -8t13.5 -11q6 -7 11 -13.5t8 -14.5q3 -7 5 -15.5t2 -17.5v2v0v0z" />
    <glyph glyph-name="Agrave" unicode="&#xc0;" horiz-adv-x="625" 
d="M461 691l120 -691h-149l-21 149h-212l-66 -149h-160l334 691h154v0v0v0zM361 548l-120 -302h158l-36 302h-2v0v0v0zM482 728h-73l-177 172h161l89 -172v0v0v0z" />
    <glyph glyph-name="Atilde" unicode="&#xc3;" horiz-adv-x="625" 
d="M461 691l120 -691h-149l-21 149h-212l-66 -149h-160l334 691h154v0v0v0zM361 548l-120 -302h158l-36 302h-2v0v0v0zM552 886q0 -19 -1.5 -35t-4.5 -30q-3 -13 -8 -25t-12 -22t-14.5 -17t-16.5 -12q-9 -4 -19.5 -6.5t-21.5 -2.5h-4h-4h-4t-4 1q-2 0 -4 0.5t-4 1.5t-4 1.5
t-4 1.5q-3 1 -5.5 1.5t-4.5 1.5q-3 1 -5.5 2.5t-4.5 2.5q-3 1 -5.5 2t-4.5 2q-3 2 -5.5 3.5t-4.5 2.5q-4 2 -8.5 4.5t-8.5 3.5q-4 2 -7.5 4t-7.5 4t-7.5 3.5t-6.5 2.5q-4 1 -7 1.5t-5 0.5q-4 0 -8 -1t-7 -3q-3 -1 -6 -3.5t-5 -5.5q-3 -3 -4.5 -6.5t-3.5 -8.5q-1 -4 -2.5 -9
t-1.5 -10l-64 2q0 17 1.5 32.5t4.5 28.5q3 14 7.5 25t11.5 21q6 9 14 16.5t17 11.5q9 5 19 7.5t22 2.5q5 0 10.5 -0.5t10.5 -1.5t10 -2.5t10 -3.5t9.5 -4t8.5 -4l4 -2t5 -2l4 -2l4 -2q4 -2 7.5 -4.5t7.5 -4.5t7.5 -4t7.5 -4q2 -1 3.5 -2t3.5 -2q1 0 3 -1t3 -1q3 -1 6 -1h6
q4 0 7.5 0.5t6.5 1.5l6 4t5 5t4.5 7t3.5 8q1 2 1.5 4.5t1.5 5.5q0 3 0.5 6t1.5 6l64 2v0v0v0z" />
    <glyph glyph-name="Otilde" unicode="&#xd5;" horiz-adv-x="833" 
d="M797 380q0 -45 -7 -85t-21 -75q-14 -36 -35 -67t-49 -57q-28 -27 -59.5 -46.5t-66.5 -32.5t-74 -19t-81 -6q-37 0 -71 5t-65 15q-31 11 -58.5 27.5t-51.5 38.5q-25 22 -43.5 47.5t-30.5 53.5q-12 29 -18 60.5t-6 66.5q0 41 7 79t21 72q14 35 36 65.5t50 57.5
q29 27 60.5 47.5t67.5 33.5q36 14 76 21t83 7q37 0 70.5 -5.5t64.5 -16.5q30 -10 57 -26.5t50 -38.5t40.5 -46.5t29.5 -53.5q12 -28 18 -59t6 -65v2v0v0zM647 370q0 20 -3.5 39t-10.5 36t-17 33t-24 30t-30 24t-33 17q-18 7 -37.5 10.5t-40.5 3.5q-25 0 -48 -5t-44 -14
q-22 -9 -41.5 -23t-36.5 -32q-18 -19 -31.5 -39t-22.5 -42t-13 -45.5t-4 -49.5q0 -22 3 -42t10 -38t17.5 -33.5t23.5 -29.5q14 -14 29 -24.5t33 -17.5t37.5 -10t41.5 -3q25 0 48 4.5t45 13.5q21 9 40.5 22.5t37.5 32.5q17 18 30.5 39t22.5 43q9 23 13.5 47t4.5 51v2v0v0z
M656 886q0 -19 -1.5 -35t-4.5 -30q-3 -13 -8 -25t-12 -22t-14.5 -17t-16.5 -12q-9 -4 -19.5 -6.5t-21.5 -2.5h-4h-4h-4t-4 1q-2 0 -4 0.5t-4 1.5t-4 1.5t-4 1.5q-3 1 -5.5 1.5t-4.5 1.5q-3 1 -5.5 2.5t-4.5 2.5q-3 1 -5.5 2t-4.5 2q-3 2 -5.5 3.5t-4.5 2.5q-4 2 -8.5 4.5
t-8.5 3.5q-4 2 -7.5 4t-7.5 4t-7.5 3.5t-6.5 2.5q-4 1 -7 1.5t-5 0.5q-4 0 -8 -1t-7 -3q-3 -1 -6 -3.5t-5 -5.5q-3 -3 -4.5 -6.5t-3.5 -8.5q-1 -4 -2.5 -9t-1.5 -10l-64 2q0 17 1.5 32.5t4.5 28.5q3 14 7.5 25t11.5 21q6 9 14 16.5t17 11.5q9 5 19 7.5t22 2.5q5 0 10.5 -0.5
t10.5 -1.5t10 -2.5t10 -3.5t9.5 -4t8.5 -4l4 -2t5 -2l4 -2l4 -2q4 -2 7.5 -4.5t7.5 -4.5t7.5 -4t7.5 -4q2 -1 3.5 -2t3.5 -2q1 0 3 -1t3 -1q3 -1 6 -1h6q4 0 7.5 0.5t6.5 1.5l6 4t5 5t4.5 7t3.5 8q1 2 1.5 4.5t1.5 5.5q0 3 0.5 6t1.5 6l64 2v0v0v0z" />
    <glyph glyph-name="OE" unicode="&#x152;" horiz-adv-x="1052" 
d="M1039 682l-16 -114h-283l-22 -160h259l-16 -114h-259l-26 -180h363l-16 -114h-554h-95q-38 0 -72 5t-63 15q-30 10 -55.5 25.5t-47.5 36.5q-22 20 -38 44t-27 52q-10 27 -15.5 58t-5.5 65v9.5v9.5t0.5 10t1.5 10q0 5 0.5 10t1.5 10t2.5 10t2.5 10q6 28 16 55t25 53
t34.5 50.5t43.5 47.5q23 23 52 40.5t63 29.5t73 18t83 6l590 2v0v0v0zM595 568h-113q-35 -1 -66 -6.5t-57 -14.5t-48 -23t-40 -32q-18 -19 -31.5 -40t-22.5 -44t-13 -48.5t-4 -53.5v-1.5v-0.5v0v0v-1v0v-1.5v-0.5v0v0v-1v0q0 -18 2.5 -34.5t8.5 -33.5q5 -16 13.5 -31.5
t18.5 -29.5q11 -15 26 -26t36 -19q21 -7 47.5 -10.5t57.5 -3.5l121 2l64 454v0v0v0z" />
    <glyph glyph-name="oe" unicode="&#x153;" horiz-adv-x="792" 
d="M754 209h-284v-2v-2v-1.5v-0.5q-1 -1 -1 -1.5v-0.5v-1.5v-0.5v-1.5v-0.5v-1.5v-0.5q-1 -1 -1 -1.5v-0.5v-1.5v-0.5v-1.5v-0.5v-1.5v-0.5v-1.5v-0.5v-1.5v-0.5q0 -11 1.5 -21t5.5 -18t10 -14.5t14 -11.5t16 -9t18 -6t20.5 -3t22.5 -1h4.5h5.5h6t6 1h4.5h5.5h3t3 1
q1 0 2.5 0.5t2.5 0.5h2t3 1h2.5h2.5q2 0 5 0.5t6 1.5q2 0 4.5 0.5t5.5 1.5q2 1 4.5 1.5t5.5 1.5q5 1 9.5 2.5t8.5 2.5q5 2 9.5 3.5t8.5 2.5q5 2 9.5 3.5t8.5 2.5l10 4l10 4l-24 -109q-2 -1 -4.5 -2.5t-4.5 -3.5q-3 -1 -5.5 -2.5t-4.5 -2.5q-4 -2 -9.5 -3.5t-10.5 -3.5
q-5 -1 -10.5 -2.5t-10.5 -3.5q-3 -1 -6.5 -1.5t-7.5 -0.5h-3.5h-3.5h-2t-2 -1h-3h-2q-3 0 -5 -0.5t-4 -1.5h-2.5t-2.5 -1h-3h-2q-2 0 -4.5 -0.5t-4.5 -1.5h-4.5t-4.5 -1h-4.5h-4.5h-4t-4 -1h-4h-4q-13 0 -25 1t-23 3q-11 1 -21.5 3t-20.5 4q-10 3 -20 7.5t-20 9.5t-19 12
l-18 14q-5 -4 -9.5 -7.5t-9.5 -6.5q-4 -3 -8.5 -6t-9.5 -5q-4 -3 -8.5 -5.5t-9.5 -4.5q-4 -2 -8 -3.5t-8 -3.5q-2 -1 -4.5 -2t-4.5 -1q-1 0 -2.5 -0.5t-2.5 -0.5h-2h-2q-3 0 -5.5 -0.5t-4.5 -1.5q-2 0 -4.5 -0.5t-4.5 -1.5q-2 0 -4.5 -0.5t-4.5 -1.5q-3 0 -5.5 -0.5
t-4.5 -0.5h-4.5t-5.5 -1h-4.5h-5.5q-22 0 -42 4t-38 10q-19 8 -35.5 19.5t-30.5 27.5q-15 16 -26 34t-19 37q-7 20 -10.5 41.5t-3.5 45.5q0 26 4 50.5t13 46.5t22 42t30 38t36.5 31.5t40.5 22.5t44 13.5t48 4.5q8 0 15.5 -0.5t14.5 -1.5q3 -1 6.5 -1.5t7.5 -0.5
q3 -1 6.5 -1.5t6.5 -1.5l6 -2t7 -3l6 -2t6 -3q3 -1 6 -3t7 -3q3 -2 6 -3.5t6 -3.5q2 -1 4.5 -2.5t4.5 -3.5l2 -2t3 -1l2 -2l2 -2q2 -2 4.5 -4t4.5 -4l2 -2t3 -1l2 -2l2 -2q6 5 12 9.5t13 8.5q6 4 13.5 7.5t14.5 7.5l14 6l14 6q8 2 15.5 4.5t14.5 3.5q2 1 4.5 1.5t5.5 0.5
t6 0.5t6 1.5h3.5h2.5h3.5t2.5 1h2.5h2.5h3.5h2.5q19 0 37 -3.5t34 -9.5q17 -7 32 -16.5t28 -22.5q14 -13 24 -28t17 -32t10.5 -36.5t3.5 -41.5v-4v-4v-2v-2q-1 -1 -1 -1.5v-1.5v-2v-2q-1 -1 -1 -2v-2v-4v-4q-1 -4 -1.5 -7.5t-1.5 -8.5q-1 -4 -1.5 -8t-1.5 -8v2v0v0zM341 268
q0 8 -1.5 16.5t-3.5 15.5q-3 8 -6 14.5t-8 12.5q-4 5 -10 9.5t-12 7.5t-12.5 4.5t-14.5 1.5q-10 0 -19 -3t-17 -9q-9 -6 -16.5 -14.5t-14.5 -19.5q-7 -12 -12 -24.5t-8 -26.5q-4 -14 -5.5 -29t-1.5 -32q0 -11 1 -21t3 -18q2 -9 5.5 -16t7.5 -13q5 -7 10 -11.5t11 -7.5
t13 -4.5t14 -1.5q11 0 20 2.5t17 6.5q8 5 14.5 11.5t12.5 16.5q5 9 9.5 19t8.5 20q3 11 6 21.5t5 21.5v3.5t1 2.5v3.5v2.5q0 3 0.5 6t1.5 6v3.5v2.5v3.5t1 2.5v3.5v2.5v3.5v2.5v2v0v0zM480 285h155v0v1v0.5t1 1.5v0v1v0.5v1.5v2v2v2v2q0 8 -1.5 14.5t-3.5 12.5q-3 6 -6 10.5
t-8 8.5t-10.5 7t-10.5 4q-6 2 -12 3t-12 1q-9 0 -16.5 -1.5t-14.5 -3.5t-13.5 -5t-11.5 -8q-5 -4 -9.5 -10t-9.5 -14q-4 -7 -8.5 -16t-8.5 -19v2v0v0z" />
    <glyph glyph-name="endash" horiz-adv-x="500" 
d="M506 298v-134h-512v134h512v0v0v0z" />
    <glyph glyph-name="emdash" unicode="&#x2014;" horiz-adv-x="1000" 
d="M1006 298v-134h-1012v134h1012v0v0v0z" />
    <glyph glyph-name="quotedblleft" unicode="&#x201c;" horiz-adv-x="490" 
d="M286 691l-15 -61q-8 -3 -15.5 -6t-14.5 -6t-13 -6.5t-11 -8.5q-5 -4 -9.5 -9.5t-9.5 -11.5q-4 -6 -7.5 -12.5t-5.5 -13.5q6 -4 11.5 -7.5t9.5 -7.5l4 -4l4 -4q2 -3 4 -5t3 -4q3 -5 5.5 -10.5t3.5 -10.5q1 -3 1.5 -6t0.5 -5q1 -3 1 -6v-6q0 -9 -1.5 -16.5t-4.5 -15.5
q-3 -7 -7.5 -13.5t-10.5 -11.5q-6 -6 -12.5 -10.5t-14.5 -7.5q-7 -3 -15.5 -4t-17.5 -1q-10 0 -19.5 1.5t-17.5 5.5q-9 4 -16.5 10t-14.5 14t-12.5 16t-8.5 17q-4 9 -5.5 19.5t-1.5 21.5v0v1v0v0v0.5v1.5v0v0v0.5v1.5v1.5v1.5v1.5v1.5q1 16 5.5 31.5t12.5 30.5t20 29.5
t28 27.5q15 14 33 23.5t39 16.5t44.5 10.5t50.5 3.5v2v0v0zM544 691l-15 -61q-8 -3 -15.5 -6t-14.5 -6t-13 -6.5t-11 -8.5q-5 -4 -9.5 -9.5t-9.5 -11.5q-4 -6 -7.5 -12.5t-5.5 -13.5q6 -4 11.5 -7.5t9.5 -7.5l4 -4l4 -4q2 -3 4 -5t3 -4q3 -5 5.5 -10.5t3.5 -10.5
q1 -3 1.5 -6t0.5 -5q1 -3 1 -6v-6q0 -9 -1.5 -16.5t-4.5 -15.5q-3 -7 -7.5 -13.5t-10.5 -11.5q-6 -6 -12.5 -10.5t-14.5 -7.5q-7 -3 -15.5 -4t-17.5 -1q-10 0 -19.5 1.5t-17.5 5.5q-9 4 -16.5 10t-14.5 14t-12.5 16t-8.5 17q-4 9 -5.5 19.5t-1.5 21.5v0v1v0v0v0.5v1.5v0v0
v0.5v1.5v1.5v1.5v1.5v1.5q1 16 5.5 31.5t12.5 30.5t20 29.5t28 27.5q15 14 33 23.5t39 16.5t44.5 10.5t50.5 3.5v2v0v0z" />
    <glyph glyph-name="quotedblright" unicode="&#x201d;" horiz-adv-x="490" 
d="M38 402l15 61q8 1 15 3t14 5t13 7t11 8q5 5 10 9.5t9 10.5t7.5 13t6.5 14q-6 3 -11 7l-10 8q-4 4 -8 8.5t-7 8.5q-3 5 -5 9.5t-4 10.5q-1 5 -2 11t-1 13q0 8 1.5 16t4.5 15t7.5 13.5t10.5 12.5q6 5 13 9.5t14 7.5q8 3 16 4.5t17 1.5q10 0 19 -2t18 -6q8 -4 16 -9.5
t15 -13.5q7 -7 12 -16t9 -18q3 -9 5 -19t2 -21v-1.5v-1.5v-1.5v-1.5v-1.5v-0.5v0v0v-1.5v-0.5v0v0v-1v0q-1 -16 -6.5 -32t-13.5 -31t-19.5 -28.5t-26.5 -27.5q-16 -13 -34 -23.5t-39 -17.5t-44.5 -10t-49.5 -3v2v0v0zM295 402l15 61q8 1 15 3t14 5t13 7t11 8q5 5 10 9.5
t9 10.5t7.5 13t6.5 14q-6 3 -11 7l-10 8q-4 4 -8 8.5t-7 8.5q-3 5 -5 9.5t-4 10.5q-1 5 -2 11t-1 13q0 8 1.5 16t4.5 15t7.5 13.5t10.5 12.5q6 5 13 9.5t14 7.5q8 3 16 4.5t17 1.5q10 0 19 -2t18 -6q8 -4 16 -9.5t15 -13.5q7 -7 12 -16t9 -18q3 -9 5 -19t2 -21v-1.5v-1.5
v-1.5v-1.5v-1.5v-0.5v0v0v-1.5v-0.5v0v0v-1v0q-1 -16 -6.5 -32t-13.5 -31t-19.5 -28.5t-26.5 -27.5q-16 -13 -34 -23.5t-39 -17.5t-44.5 -10t-49.5 -3v2v0v0z" />
    <glyph glyph-name="quoteleft" unicode="&#x2018;" horiz-adv-x="260" 
d="M300 691l-15 -61q-8 -3 -15.5 -6t-14.5 -6t-13 -6.5t-11 -8.5q-5 -4 -9.5 -9.5t-9.5 -11.5q-4 -6 -7.5 -12.5t-5.5 -13.5q6 -4 11.5 -7.5t9.5 -7.5l4 -4l4 -4q2 -3 4 -5t3 -4q3 -5 5.5 -10.5t3.5 -10.5q1 -3 1.5 -6t0.5 -5q1 -3 1 -6v-6q0 -9 -1.5 -16.5t-4.5 -15.5
q-3 -7 -7.5 -13.5t-10.5 -11.5q-6 -6 -12.5 -10.5t-14.5 -7.5q-7 -3 -15.5 -4t-17.5 -1q-10 0 -19.5 1.5t-17.5 5.5q-9 4 -16.5 10t-14.5 14t-12.5 16t-8.5 17q-4 9 -5.5 19.5t-1.5 21.5v0v1v0v0v0.5v1.5v0v0v0.5v1.5v1.5v1.5v1.5v1.5q1 16 5.5 31.5t12.5 30.5t20 29.5
t28 27.5q15 14 33 23.5t39 16.5t44.5 10.5t50.5 3.5v2v0v0z" />
    <glyph glyph-name="quoteright" unicode="&#x2019;" horiz-adv-x="260" 
d="M48 402l15 61q8 1 15 3t14 5t13 7t11 8q5 5 10 9.5t9 10.5t7.5 13t6.5 14q-6 3 -11 7l-10 8q-4 4 -8 8.5t-7 8.5q-3 5 -5 9.5t-4 10.5q-1 5 -2 11t-1 13q0 8 1.5 16t4.5 15t7.5 13.5t10.5 12.5q6 5 13 9.5t14 7.5q8 3 16 4.5t17 1.5q10 0 19 -2t18 -6q8 -4 16 -9.5
t15 -13.5q7 -7 12 -16t9 -18q3 -9 5 -19t2 -21v-1.5v-1.5v-1.5v-1.5v-1.5v-0.5v0v0v-1.5v-0.5v0v0v-1v0q-1 -16 -6.5 -32t-13.5 -31t-19.5 -28.5t-26.5 -27.5q-16 -13 -34 -23.5t-39 -17.5t-44.5 -10t-49.5 -3v2v0v0z" />
    <glyph glyph-name="divide" unicode="&#xf7;" 
 />
    <glyph glyph-name="lozenge" unicode="&#x25ca;" 
 />
    <glyph glyph-name="ydieresis" unicode="&#xff;" horiz-adv-x="490" 
d="M510 454l-330 -684h-142l132 272l-145 412h135l89 -265l120 265h141v0v0v0zM184 663q7 -1 13 -3l12 -4q5 -3 10.5 -6t10.5 -8t8 -10.5t6 -10.5q2 -6 3.5 -12t1.5 -13t-1.5 -13t-3.5 -12q-3 -6 -6 -11.5t-8 -10.5t-10.5 -9t-10.5 -6q-6 -2 -12 -3t-13 -1t-13 1t-12 3
t-11.5 6t-10.5 9t-9 10.5t-6 11.5t-3 12t-1 13t1 13t3 12q2 5 6 10.5t9 10.5t10.5 8t11.5 6q6 2 12 3.5t13 1.5v2v0v0zM386 663q7 -1 13 -3l12 -4q5 -3 10.5 -6t10.5 -8t8 -10.5t6 -10.5q2 -6 3.5 -12t1.5 -13t-1.5 -13t-3.5 -12q-3 -6 -6 -11.5t-8 -10.5t-10.5 -9t-10.5 -6
q-6 -2 -12 -3t-13 -1t-13 1t-12 3t-11.5 6t-10.5 9t-9 10.5t-6 11.5t-3 12t-1 13t1 13t3 12q2 5 6 10.5t9 10.5t10.5 8t11.5 6q6 2 12 3.5t13 1.5v2v0v0z" />
    <glyph glyph-name="Ydieresis" unicode="&#x178;" horiz-adv-x="563" 
d="M618 682l-257 -396l-40 -286h-145l40 286l-144 396h145l88 -263l158 263h155v0v0v0zM255 887q7 -1 13 -3l12 -4q5 -3 10.5 -6t10.5 -8t8 -10.5t6 -10.5q2 -6 3.5 -12t1.5 -13t-1.5 -13t-3.5 -12q-3 -6 -6 -11.5t-8 -10.5t-10.5 -9t-10.5 -6q-6 -2 -12 -3t-13 -1t-13 1
t-12 3t-11.5 6t-10.5 9t-9 10.5t-6 11.5t-3 12t-1 13t1 13t3 12q2 5 6 10.5t9 10.5t10.5 8t11.5 6q6 2 12 3.5t13 1.5v2v0v0zM457 887q7 -1 13 -3l12 -4q5 -3 10.5 -6t10.5 -8t8 -10.5t6 -10.5q2 -6 3.5 -12t1.5 -13t-1.5 -13t-3.5 -12q-3 -6 -6 -11.5t-8 -10.5t-10.5 -9
t-10.5 -6q-6 -2 -12 -3t-13 -1t-13 1t-12 3t-11.5 6t-10.5 9t-9 10.5t-6 11.5t-3 12t-1 13t1 13t3 12q2 5 6 10.5t9 10.5t10.5 8t11.5 6q6 2 12 3.5t13 1.5v2v0v0z" />
    <glyph glyph-name="fraction" unicode="&#x2215;" horiz-adv-x="188" 
d="M377 691l-479 -718h-88l479 718h88v0v0v0z" />
    <glyph glyph-name="currency" unicode="&#xa4;" horiz-adv-x="552" 
d="M389 153q-4 -4 -9.5 -7t-10.5 -5q-6 -3 -12 -5.5t-13 -4.5t-13.5 -3.5t-14.5 -2.5q-7 -1 -15.5 -1.5t-16.5 -0.5h-4h-4h-2.5h-3.5h-4h-4h-2t-1 1q-1 0 -2 0.5t-2 0.5q-4 0 -7.5 0.5t-7.5 1.5t-7.5 2t-7.5 2q-3 1 -6 1.5t-6 1.5t-6 2.5l-5 2.5q-3 1 -6 2.5t-6 2.5
q-3 2 -5.5 3.5t-4.5 2.5l-65 -63l-85 85l65 65q-4 4 -7 9t-5 11q-3 6 -4.5 12t-3.5 13t-3.5 14t-2.5 14q-1 8 -1 15.5v14.5v7.5v7.5q0 3 0.5 6.5t0.5 7.5q1 7 2.5 13.5t3.5 13.5t4 13.5t5 12.5q1 3 2.5 6t2.5 6q2 2 3.5 5t2.5 6l-65 67l83 83l64 -64q5 2 11 4l12 4t12 4.5
t13 4.5q6 2 13 3.5t14 2.5q8 1 15.5 1.5t16.5 0.5h2h2h1.5h1.5h0.5h1.5h0.5h1.5h1h2q0 -1 0.5 -1h1.5h1.5h1.5q3 -1 6 -1.5t6 -0.5q3 -1 6 -1.5t6 -0.5q2 -1 5 -1.5t6 -1.5t6 -1.5t6 -1.5q5 -2 10.5 -4t10.5 -4q5 -1 9.5 -3.5t8.5 -4.5l65 67l85 -85l-65 -65l3.5 -7t2.5 -6
q1 -1 1.5 -2.5t1.5 -3.5q0 -1 0.5 -2.5t1.5 -3.5t1.5 -3.5t1.5 -3.5q0 -1 0.5 -2.5t1.5 -3.5l2 -6l2 -6t1.5 -6t1.5 -7q0 -3 0.5 -6.5t1.5 -6.5q1 -7 1.5 -14.5t0.5 -15.5v-6v-5q-1 -3 -1 -5.5v-5.5q-1 -5 -1.5 -9.5t-1.5 -9.5q-1 -3 -1.5 -5.5t-0.5 -4.5q-1 -3 -1.5 -5.5
t-1.5 -4.5q-1 -4 -2.5 -8.5t-3.5 -9.5q-1 -2 -1.5 -4t-1.5 -4q-1 -1 -1.5 -2.5t-1.5 -3.5q-1 -1 -1.5 -2t-0.5 -2q-1 -1 -1 -2v-1q-1 -1 -1.5 -2t-0.5 -2l-1.5 -1.5t-0.5 -1.5l65 -63l-83 -83l-66 66v0v0v0zM284 441q-10 -1 -20 -3.5t-19 -6.5t-16.5 -9t-14.5 -12t-13 -15.5
t-9 -17.5q-4 -9 -5.5 -18t-1.5 -19t1.5 -20t5.5 -19q3 -9 9 -16.5t13 -15.5q7 -7 14.5 -13t16.5 -9q9 -4 19 -5.5t20 -1.5t19 1.5t18 5.5q9 3 17.5 9t15.5 13q8 8 13 15.5t9 16.5t6 19t2 20t-2 19t-6 18t-9 17.5t-13 15.5q-7 7 -15.5 12t-17.5 9t-18 6t-19 2v2v0v0z" />
    <glyph glyph-name="guilsinglleft" unicode="&#x2039;" horiz-adv-x="271" 
d="M298 461l-164 -230l67 -231h-113l-73 255l151 206h132v0v0v0z" />
    <glyph glyph-name="guilsinglright" unicode="&#x203a;" horiz-adv-x="271" 
d="M-21 0l164 230l-67 231h113l73 -255l-151 -206h-132v0v0v0z" />
    <glyph glyph-name="fi" unicode="&#xf001;" horiz-adv-x="583" 
d="M345 454l-14 -100h-82l-77 -553h-135l77 553h-77l14 100h78q2 32 8.5 59.5t16.5 49.5q11 23 25 41t32 31q17 14 36 23.5t38 16.5q20 7 40 10.5t41 3.5h2h2h1.5h1.5h0.5h1.5q1 -1 2 -1h2h1.5h1.5h0.5h1.5h2h3q1 -1 2 -1h2h2h3q1 -1 2 -1h2q15 -2 29.5 -6.5t27.5 -10.5
q14 -7 27 -15t26 -18q12 -10 21.5 -23t15.5 -27t9.5 -30.5t3.5 -35.5v-1.5v-0.5v-1.5v-0.5v-1.5v-0.5v0v0v-1v0q-1 -1 -1 -1.5v-0.5v-1.5v-0.5v-1.5v-0.5v0v0v-1v0l-135 2q-1 8 -3 14.5t-5 12.5t-6 11t-7 9t-9.5 7t-11.5 5t-12 3t-14 1q-10 0 -19 -2t-17 -6t-15.5 -10
t-13.5 -14q-7 -8 -12 -17.5t-9 -20.5q-4 -10 -6 -22.5t-3 -26.5l82 2v0v0v0zM553 454l-64 -454h-135l64 454h135v0v0v0z" />
    <glyph glyph-name="fl" unicode="&#xf002;" horiz-adv-x="583" 
d="M346 454l-14 -100h-83l-78 -553h-134l77 553h-77l14 100h77q2 16 5 30.5t7 27.5q3 14 6.5 25t7.5 21q4 9 8.5 18t10.5 18q5 8 12 16.5t15 16.5q5 5 11.5 10.5t13.5 10.5q8 5 16 9.5t17 8.5q8 4 17 7l18 6q9 2 18 4.5t19 3.5h1.5h1.5h2t2 1h1h2h2h2h1.5h1.5h2t2 1h1h2h2h2
h2h2h1h2h2h2q1 -1 2 -1h2h1.5h1.5q1 -1 1.5 -1h1.5h4h4t3.5 -0.5t3.5 -0.5q1 -1 3 -1.5t3 -0.5q3 -1 6.5 -2t7.5 -2l-16 -111h-2h-2t-1.5 0.5l-1.5 1.5h-1.5h-1.5t-1.5 0.5l-1.5 1.5t-2.5 1.5t-3.5 0.5q-1 0 -2 0.5t-2 1.5h-1.5h-0.5h-1.5t-0.5 1h-1.5h-0.5h-1.5h-0.5h-1.5
h-0.5h-1.5t-0.5 1h-1.5h-0.5h-1.5h-0.5h-1.5h-0.5v0v0h-1.5h-0.5v0v0h-1v0h-1.5h-0.5v0v0q-1 -1 -1.5 -1h-0.5v0v0q-7 -1 -14.5 -3t-14.5 -7q-7 -4 -14 -10t-13 -14q-7 -7 -12 -17t-9 -21q-4 -12 -6.5 -25.5t-3.5 -28.5l83 2v0v0v0zM585 682l-96 -682h-135l96 682h135v0v0v0
z" />
    <glyph glyph-name="daggerdbl" unicode="&#x2021;" horiz-adv-x="510" 
d="M307 395q-1 -4 -1.5 -8t-1.5 -7t-1.5 -6t-0.5 -6q-1 -4 -1.5 -7.5t-0.5 -6.5v-3v-3v-3.5v-3.5v-0.5v-0.5q-1 -1 -1 -1.5v-0.5v-2v-1v-2v-2v-1.5v-1.5v-1.5v-1.5v-2v-1v-2v-2v-1.5v-1.5v-13v-12t0.5 -11.5t1.5 -10.5q1 -6 1.5 -11t1.5 -10q1 -4 1.5 -8.5t1.5 -8.5l-2 -4
l-2 -4q-2 -3 -3 -5l-2 -4l-2 -4l-2 -4q-1 -3 -2 -5l-2 -4t-2 -4.5t-2 -4.5q-1 -3 -1.5 -5t-1.5 -4q-1 -3 -1.5 -5.5t-1.5 -4.5t-1.5 -4.5t-1.5 -4.5q-2 -7 -4 -13.5t-4 -12.5q-1 -6 -2.5 -12t-3.5 -12q-1 -7 -2.5 -13t-2.5 -11q-1 -6 -1.5 -11t-0.5 -10v0v0v0l1 1v0v0v0h1v0
v0v0h1v0v0l0.5 0.5l1.5 1.5q3 2 6 3.5t6 2.5q3 2 6 3.5t7 2.5q2 1 3.5 1.5t2.5 1.5q2 0 3.5 1t3.5 2q2 0 3.5 0.5t2.5 1.5q1 0 2 0.5t2 1.5l1 0.5t2 0.5q5 2 9.5 3.5t8.5 2.5q5 2 10 3.5t10 2.5t9.5 1.5t8.5 1.5q5 1 8.5 1.5t7.5 0.5q7 0 13.5 -1t12.5 -3t11.5 -5t10.5 -7
t8.5 -9.5t6.5 -11.5q2 -7 3.5 -14.5t1.5 -15.5v-1.5v-0.5v-1.5v-0.5q-1 -1 -1 -2v-1v-1.5v-0.5v-1.5v-1.5q-1 -1 -1 -1.5v-1.5v-1.5v-0.5q-1 -1 -1 -1.5v-0.5q-1 -4 -3.5 -8.5t-4.5 -7.5q-2 -4 -5 -6.5t-7 -5.5t-8 -5.5t-9 -3.5q-5 -2 -11 -3t-13 -1q-4 0 -7.5 0.5t-8.5 1.5
q-2 0 -4 0.5t-4 0.5q-3 1 -5 1.5t-4 0.5q-4 1 -8.5 2.5t-9.5 3.5q-2 1 -4.5 2t-4.5 1q-2 1 -4.5 2t-4.5 2q-4 1 -7.5 1.5t-6.5 1.5q-4 2 -7.5 3.5t-6.5 3.5q-4 2 -7.5 3.5t-6.5 2.5l-6 4l-6 4h-1.5h-1.5t-1.5 0.5t-0.5 1.5h-0.5t-0.5 1h-1v0q-1 0 -1.5 0.5t-0.5 1.5v-1.5
v-0.5v-1.5v-0.5v-1.5v-0.5v-1.5v-0.5v-7v-6v-2.5t1 -3.5v-2.5v-2.5v-1.5t1 -1.5v-1.5v-1.5v-2t1 -2v-1v-2q1 -5 1.5 -9.5t1.5 -8.5l2 -10l2 -10v0v0v-0.5v-1.5v0v0v0l1 -1v0v0v0v-1v0v0q1 -5 1.5 -9.5t1.5 -8.5q1 -5 1.5 -9.5t1.5 -8.5q1 -5 1.5 -9.5t0.5 -8.5v-4.5t1 -4.5
v-4.5v-5.5q0 -11 -1.5 -21t-3.5 -18q-3 -8 -6.5 -15t-8.5 -13q-5 -5 -10.5 -9.5t-10.5 -8.5q-5 -3 -10.5 -6t-10.5 -4h-2h-2h-2h-2h-1.5h-0.5v0v0q-1 0 -1 -0.5v-0.5h-1.5h-0.5v0v0h-1v0q-7 0 -14 1.5t-13 4.5t-12 7t-11 9t-9 11t-6 14q-3 7 -4 15t-1 16v1.5v1.5v2v1v2v2
v1.5v1.5v3.5t1 3.5q0 1 0.5 2.5t1.5 3.5q1 6 2.5 11.5t2.5 10.5q2 6 4 11.5t4 10.5t4.5 10.5t5.5 10.5q2 5 4.5 9.5t5.5 9.5q2 5 4.5 10t5.5 10t5.5 9.5t4.5 9.5q2 2 4.5 6t3.5 8q2 5 3.5 8.5t2.5 7.5q-10 -6 -20 -10.5t-20 -9.5q-6 -3 -12.5 -5.5t-12.5 -3.5q-3 -1 -6 -2.5
t-6 -2.5q-10 -3 -18 -6t-16 -4q-7 -2 -14 -3t-13 -1q-8 0 -15 1.5t-13 3.5t-11 5t-9 8q-4 3 -7.5 7.5t-5.5 10.5q0 2 -0.5 4t-0.5 4q0 4 -0.5 8.5t-0.5 9.5v0.5v1.5v0.5v1.5v0v1v0v0v0.5v1.5h0.5t0.5 1v0v0v0.5v1.5q0 5 1 10.5t3 9.5q2 5 5.5 9.5t7.5 8.5q4 5 9 8t12 5
q6 2 13.5 3.5t16.5 1.5q8 0 16.5 -1t16.5 -3q8 -1 16.5 -3.5t17.5 -5.5q8 -4 16.5 -7.5t17.5 -7.5t18 -7.5t18 -8.5v4.5t1 5.5v4.5v4.5v4t1 5v4v4v4v4v4t1 4v2v2v1v2v4v4v4.5v5.5q-1 2 -1 4.5v4.5v4.5v4.5q-1 2 -1 4.5v4.5t-0.5 4t-0.5 5q-1 2 -1 4v4v4t-1 5q0 2 -0.5 4
t-0.5 4v0.5v1.5q-1 0 -1 0.5v0.5v2v2q-1 0 -1 1v2v1.5v1.5q-1 2 -1.5 3.5t-0.5 2.5v2v2q-1 1 -1 2v2q1 2 2 4.5t2 4.5q1 1 1.5 2.5t1.5 2.5q0 2 0.5 3.5t1.5 2.5q1 2 2 4.5t2 5.5q2 3 3.5 6t2.5 6q1 2 2 4.5t2 4.5q0 2 1 4.5t2 4.5q2 5 4 9.5t4 9.5q1 2 2 4.5t2 4.5
q0 2 1 4.5t2 5.5q1 2 2 4.5t2 5.5q0 2 1 4.5t2 5.5t1.5 6t1.5 6t1.5 6t1.5 6v1.5t1 1.5v1.5v1.5q0 2 0.5 3.5t1.5 2.5v3.5v2.5q0 2 0.5 3.5t1.5 2.5q-10 -7 -19 -12l-18 -10q-9 -4 -17.5 -8t-16.5 -6q-8 -3 -15.5 -5t-15.5 -4q-7 -1 -13.5 -1.5t-12.5 -0.5q-8 0 -15 1t-13 3
t-11 5t-9 7t-7.5 8.5t-5.5 8.5q-3 5 -4.5 9.5t-2.5 9.5q-1 1 -1.5 2t-0.5 2v2v2v2v2v2v2q0 6 1 11.5t3 10.5t5 10.5t7 10.5t9 8t11 6q6 2 13 3.5t15 1.5v0h1v0v0h0.5h1.5h0.5h1.5h0.5h1.5l14 -2t14 -3q8 -2 15.5 -5t14.5 -6q8 -4 15.5 -7.5t16.5 -7.5t18 -8.5l19 -9.5v0v1v0
v0v0.5v1.5v0v1v0v0v0.5v1.5v4v4q-1 2 -1 4v4q0 5 -0.5 9.5t-1.5 9.5q0 2 -0.5 4.5t-0.5 5.5q-1 2 -1.5 4.5t-0.5 4.5q-1 5 -1.5 10t-1.5 10v0v0v0.5v1.5h-1v0v0.5v1.5v0.5v1.5v0.5v1.5q-1 5 -2 10.5t-2 10.5t-2 10.5t-2 10.5t-1.5 10.5t-0.5 9.5q0 2 -0.5 4t-0.5 5v4v4
q0 10 1 19t4 17t7.5 15t10.5 14q5 7 11 12t13 8q6 3 13 5t14 3v0v0v0h1v0v0v0v0v0v0h0.5h1.5q8 0 15.5 -1.5t14.5 -4.5q6 -3 12 -7.5t10 -9.5l4 -6l4 -6q1 -4 2.5 -7t2.5 -6q2 -7 3.5 -13.5t1.5 -14.5q0 -5 -0.5 -10.5t-1.5 -10.5t-1.5 -9.5t-2.5 -9.5q-1 -3 -2 -5.5
t-1 -4.5q-1 -2 -2 -4.5t-2 -4.5q-2 -4 -4.5 -8.5t-4.5 -9.5l-2 -4l-2 -4l-2 -4l-2 -4q-1 -1 -1.5 -2t-0.5 -2q-1 -1 -1.5 -2t-1.5 -2l-2 -4l-2 -4q-2 -4 -4.5 -8.5t-4.5 -9.5q-2 -4 -4.5 -8.5t-4.5 -9.5q-1 -2 -2 -4.5t-2 -4.5q-1 -3 -2 -5.5t-2 -4.5q-1 -4 -2.5 -9.5
t-2.5 -10.5q5 2 9.5 4.5t9.5 4.5l9 4.5l9 4.5q9 5 18 8.5t18 7.5q8 4 16.5 7t16.5 4q8 2 16.5 3t15.5 1q8 0 14 -1.5t12 -3.5t10.5 -5t8.5 -8q4 -4 7 -8.5t6 -9.5q1 -2 2 -4.5t2 -4.5q1 -3 1.5 -5.5t0.5 -4.5v-1.5v-0.5v-1.5v-0.5v-1.5v-0.5v-1.5v-0.5q0 -9 -1.5 -16.5
t-3.5 -13.5q-3 -7 -7 -12t-9 -9t-10.5 -7.5t-11.5 -5.5t-12 -3t-12 -1h-8t-7 1q-4 0 -8 0.5t-8 1.5q-8 2 -16.5 4t-16.5 6q-4 2 -9 3.5t-9 3.5q-5 2 -9.5 4t-9.5 4q-10 4 -19.5 8.5t-19.5 9.5v2v0v0z" />
    <glyph glyph-name="periodcentered" unicode="&#x2219;" horiz-adv-x="260" 
d="M233 346q0 -10 -2 -19t-5 -17q-3 -7 -8 -14.5t-11 -13.5q-7 -7 -13.5 -11.5t-14.5 -7.5q-7 -3 -15.5 -4.5t-17.5 -1.5t-17.5 1.5t-16.5 4.5q-7 3 -14.5 7.5t-13.5 11.5q-7 6 -11.5 13.5t-7.5 14.5q-3 8 -4.5 16.5t-1.5 17.5t1.5 17.5t4.5 15.5q3 8 7.5 14.5t11.5 13.5
q6 6 13.5 11t14.5 8q8 3 16.5 5t17.5 2t17.5 -2t15.5 -5q8 -3 14.5 -8t13.5 -11q6 -7 11 -13.5t8 -14.5q3 -7 5 -15.5t2 -17.5v2v0v0z" />
    <glyph glyph-name="quotesinglbase" unicode="&#x201a;" 
 />
    <glyph glyph-name="quotedblbase" unicode="&#x201e;" horiz-adv-x="490" 
d="M-41 -145l15 61q10 3 17.5 5.5t12.5 5.5q6 3 12 6.5t11 8.5q5 4 10 9.5t9 11.5t7.5 12.5t6.5 13.5q-6 4 -11 7.5t-10 5.5q-4 3 -8 7.5t-7 8.5q-3 5 -5 9.5t-4 10.5q-1 5 -2 11t-1 13q0 8 1.5 16t4.5 15t7.5 13.5t10.5 12.5q6 5 13 9.5t14 7.5q8 3 16 4.5t17 1.5
q10 0 19 -2t18 -6q8 -4 16 -9.5t15 -13.5q7 -7 12 -16t9 -18q3 -9 5 -19t2 -21v-1.5v-1.5v-1.5v-1.5v-1.5v-0.5v0v0v-1.5v-0.5v0v0v-1v0q-1 -10 -3.5 -19.5t-6.5 -19.5q-2 -5 -4.5 -10t-5.5 -10q-8 -15 -19.5 -29.5t-26.5 -27.5q-16 -14 -34 -23.5t-38 -16.5
q-21 -7 -43.5 -10.5t-48.5 -3.5l-3 -1v0v0zM186 -145l15 61q8 3 15 5.5t14 5.5t13 6.5t11 8.5q5 4 10 9.5t9 11.5t7.5 12.5t6.5 13.5q-6 4 -11 7.5t-10 5.5q-4 3 -8 7.5t-7 8.5q-3 5 -5 9.5t-4 10.5q-1 5 -2 11t-1 13q0 8 1.5 16t4.5 15t7.5 13.5t10.5 12.5q6 5 13 9.5
t14 7.5q8 3 16 4.5t17 1.5q10 0 19 -2t18 -6q8 -4 16 -9.5t15 -13.5q7 -7 12 -16t9 -18q3 -9 5 -19t2 -21v-1.5v-1.5v-1.5v-1.5v-1.5v-0.5v0v0v-1.5v-0.5v0v0v-1v0q-1 -10 -3.5 -19.5t-6.5 -19.5q-2 -5 -4.5 -10t-5.5 -10q-8 -15 -19.5 -29.5t-26.5 -27.5q-16 -14 -34 -23.5
t-39 -16.5t-44.5 -10.5t-49.5 -3.5v-1v0v0z" />
    <glyph glyph-name="perthousand" unicode="&#x2030;" horiz-adv-x="1083" 
d="M705 152q0 -18 -3 -34t-9 -30t-15 -27t-20 -24q-12 -12 -25.5 -21t-27.5 -14q-14 -4 -29 -7t-32 -3t-33 3t-30 7q-14 5 -27 14t-24 21q-12 11 -21 24t-15 27t-8.5 30t-2.5 32q0 17 2.5 32.5t8.5 29.5t15 27t21 25q11 11 24 20t27 15t30 9t33 3t32 -3t29 -9t27.5 -15
t25.5 -20q11 -12 20 -25t15 -27t9 -29.5t3 -32.5v2v0v0zM615 152q0 7 -1.5 13.5t-3.5 13.5q-3 6 -7 12t-9 12q-5 5 -11 9t-12 7q-7 3 -13.5 4.5t-13.5 1.5t-14.5 -1.5t-13.5 -4.5t-12 -7t-11 -9t-9 -11t-6 -13q-3 -7 -4 -14t-1 -15q0 -7 1 -14.5t4 -14.5t7 -13t9 -11
q5 -6 11 -10t12 -7t13 -4t14 -1q8 0 14.5 1t12.5 4t12 7t11 10q5 5 9 11t7 13q2 6 3.5 13.5t1.5 15.5v2v0v0zM1074 152q0 -18 -3 -34t-9 -30t-15 -27t-20 -24q-12 -12 -25.5 -21t-27.5 -14q-14 -4 -29 -7t-32 -3t-33 3t-30 7q-14 5 -27 14t-24 21q-12 11 -21 24t-15 27
t-8.5 30t-2.5 32q0 17 2.5 32.5t8.5 29.5t15 27t21 25q11 11 24 20t27 15t30 9t33 3t32 -3t29 -9t27.5 -15t25.5 -20q11 -12 20 -25t15 -27t9 -29.5t3 -32.5v2v0v0zM984 152q0 7 -1.5 13.5t-3.5 13.5q-3 6 -7 12t-9 12q-5 5 -11 9t-12 7q-7 3 -13.5 4.5t-13.5 1.5
t-14.5 -1.5t-13.5 -4.5t-12 -7t-11 -9t-9 -11t-6 -13q-3 -7 -4 -14t-1 -15q0 -7 1 -14.5t4 -14.5t7 -13t9 -11q5 -6 11 -10t12 -7t13 -4t14 -1q8 0 14.5 1t12.5 4t12 7t11 10q5 5 9 11t7 13q2 6 3.5 13.5t1.5 15.5v2v0v0zM649 691l-477 -699h-83l480 699h80v0v0v0zM357 530
q0 -18 -3 -34t-9 -30t-15 -27t-20 -25q-12 -12 -25.5 -21t-27.5 -15t-29 -8.5t-32 -2.5t-33 2.5t-30 8.5t-27 15t-24 21q-12 12 -21 25t-15 27t-8.5 30t-2.5 32q0 17 2.5 32.5t8.5 29.5t15 27t21 25q11 11 24 20t27 15t30 9t33 3t32 -3t29 -9t27.5 -15t25.5 -20
q11 -12 20 -25t15 -27t9 -29.5t3 -32.5v2v0v0zM267 530q0 7 -1.5 13.5t-3.5 13.5q-3 6 -7 12t-9 12q-5 5 -11 9t-12 7q-7 3 -13.5 4.5t-13.5 1.5t-14.5 -1.5t-13.5 -4.5t-12 -7t-11 -9t-9 -11t-6 -13q-3 -7 -4 -14t-1 -15q0 -7 1 -14.5t4 -14.5t7 -13t9 -11q5 -6 11 -10
t12 -7t13 -4t14 -1q8 0 14.5 1t12.5 4t12 7t11 10q5 5 9 11t7 13q2 6 3.5 13.5t1.5 15.5v2v0v0z" />
    <glyph glyph-name="Acircumflex" unicode="&#xc2;" horiz-adv-x="625" 
d="M461 691l120 -691h-149l-21 149h-212l-66 -149h-160l334 691h154v0v0v0zM361 548l-120 -302h158l-36 302h-2v0v0v0zM486 900l59 -160h-82l-61 91l-100 -91h-91l126 160h149v0v0v0z" />
    <glyph glyph-name="Ecircumflex" unicode="&#xca;" horiz-adv-x="583" 
d="M564 682l-16 -114h-281l-23 -161h247l-16 -114h-247l-25 -179h354l-16 -114h-499l96 682h426v0v0v0zM465 900l59 -160h-82l-61 91l-100 -91h-91l126 160h149v0v0v0z" />
    <glyph glyph-name="Aacute" unicode="&#xc1;" horiz-adv-x="625" 
d="M461 691l120 -691h-149l-21 149h-212l-66 -149h-160l334 691h154v0v0v0zM361 548l-120 -302h158l-36 302h-2v0v0v0zM297 728l89 172h161l-177 -172h-73v0v0v0z" />
    <glyph glyph-name="Edieresis" unicode="&#xcb;" horiz-adv-x="583" 
d="M564 682l-16 -114h-281l-23 -161h247l-16 -114h-247l-25 -179h354l-16 -114h-499l96 682h426v0v0v0zM265 887q7 -1 13 -3l12 -4q5 -3 10.5 -6t10.5 -8t8 -10.5t6 -10.5q2 -6 3.5 -12t1.5 -13t-1.5 -13t-3.5 -12q-3 -6 -6 -11.5t-8 -10.5t-10.5 -9t-10.5 -6q-6 -2 -12 -3
t-13 -1t-13 1t-12 3t-11.5 6t-10.5 9t-9 10.5t-6 11.5t-3 12t-1 13t1 13t3 12q2 5 6 10.5t9 10.5t10.5 8t11.5 6q6 2 12 3.5t13 1.5v2v0v0zM467 887q7 -1 13 -3l12 -4q5 -3 10.5 -6t10.5 -8t8 -10.5t6 -10.5q2 -6 3.5 -12t1.5 -13t-1.5 -13t-3.5 -12q-3 -6 -6 -11.5
t-8 -10.5t-10.5 -9t-10.5 -6q-6 -2 -12 -3t-13 -1t-13 1t-12 3t-11.5 6t-10.5 9t-9 10.5t-6 11.5t-3 12t-1 13t1 13t3 12q2 5 6 10.5t9 10.5t10.5 8t11.5 6q6 2 12 3.5t13 1.5v2v0v0z" />
    <glyph glyph-name="Egrave" unicode="&#xc8;" horiz-adv-x="583" 
d="M564 682l-16 -114h-281l-23 -161h247l-16 -114h-247l-25 -179h354l-16 -114h-499l96 682h426v0v0v0zM461 728h-73l-177 172h161l89 -172v0v0v0z" />
    <glyph glyph-name="Iacute" unicode="&#xcd;" horiz-adv-x="302" 
d="M286 682l-96 -682h-145l96 682h145v0v0v0zM136 728l89 172h161l-177 -172h-73v0v0v0z" />
    <glyph glyph-name="Icircumflex" unicode="&#xce;" horiz-adv-x="302" 
d="M286 682l-96 -682h-145l96 682h145v0v0v0zM325 900l59 -160h-82l-61 91l-100 -91h-91l126 160h149v0v0v0z" />
    <glyph glyph-name="Idieresis" unicode="&#xcf;" horiz-adv-x="302" 
d="M286 682l-96 -682h-145l96 682h145v0v0v0zM125 887q7 -1 13 -3l12 -4q5 -3 10.5 -6t10.5 -8t8 -10.5t6 -10.5q2 -6 3.5 -12t1.5 -13t-1.5 -13t-3.5 -12q-3 -6 -6 -11.5t-8 -10.5t-10.5 -9t-10.5 -6q-6 -2 -12 -3t-13 -1t-13 1t-12 3t-11.5 6t-10.5 9t-9 10.5t-6 11.5
t-3 12t-1 13t1 13t3 12q2 5 6 10.5t9 10.5t10.5 8t11.5 6q6 2 12 3.5t13 1.5v2v0v0zM327 887q7 -1 13 -3l12 -4q5 -3 10.5 -6t10.5 -8t8 -10.5t6 -10.5q2 -6 3.5 -12t1.5 -13t-1.5 -13t-3.5 -12q-3 -6 -6 -11.5t-8 -10.5t-10.5 -9t-10.5 -6q-6 -2 -12 -3t-13 -1t-13 1t-12 3
t-11.5 6t-10.5 9t-9 10.5t-6 11.5t-3 12t-1 13t1 13t3 12q2 5 6 10.5t9 10.5t10.5 8t11.5 6q6 2 12 3.5t13 1.5v2v0v0z" />
    <glyph glyph-name="Igrave" unicode="&#xcc;" horiz-adv-x="302" 
d="M286 682l-96 -682h-145l96 682h145v0v0v0zM321 728h-73l-177 172h161l89 -172v0v0v0z" />
    <glyph glyph-name="Oacute" unicode="&#xd3;" horiz-adv-x="833" 
d="M797 380q0 -45 -7 -85t-21 -75q-14 -36 -35 -67t-49 -57q-28 -27 -59.5 -46.5t-66.5 -32.5t-74 -19t-81 -6q-37 0 -71 5t-65 15q-31 11 -58.5 27.5t-51.5 38.5q-25 22 -43.5 47.5t-30.5 53.5q-12 29 -18 60.5t-6 66.5q0 41 7 79t21 72q14 35 36 65.5t50 57.5
q29 27 60.5 47.5t67.5 33.5q36 14 76 21t83 7q37 0 70.5 -5.5t64.5 -16.5q30 -10 57 -26.5t50 -38.5t40.5 -46.5t29.5 -53.5q12 -28 18 -59t6 -65v2v0v0zM647 370q0 20 -3.5 39t-10.5 36t-17 33t-24 30t-30 24t-33 17q-18 7 -37.5 10.5t-40.5 3.5q-25 0 -48 -5t-44 -14
q-22 -9 -41.5 -23t-36.5 -32q-18 -19 -31.5 -39t-22.5 -42t-13 -45.5t-4 -49.5q0 -22 3 -42t10 -38t17.5 -33.5t23.5 -29.5q14 -14 29 -24.5t33 -17.5t37.5 -10t41.5 -3q25 0 48 4.5t45 13.5q21 9 40.5 22.5t37.5 32.5q17 18 30.5 39t22.5 43q9 23 13.5 47t4.5 51v2v0v0z
M401 728l89 172h161l-177 -172h-73v0v0v0z" />
    <glyph glyph-name="Ocircumflex" unicode="&#xd4;" horiz-adv-x="833" 
d="M797 380q0 -45 -7 -85t-21 -75q-14 -36 -35 -67t-49 -57q-28 -27 -59.5 -46.5t-66.5 -32.5t-74 -19t-81 -6q-37 0 -71 5t-65 15q-31 11 -58.5 27.5t-51.5 38.5q-25 22 -43.5 47.5t-30.5 53.5q-12 29 -18 60.5t-6 66.5q0 41 7 79t21 72q14 35 36 65.5t50 57.5
q29 27 60.5 47.5t67.5 33.5q36 14 76 21t83 7q37 0 70.5 -5.5t64.5 -16.5q30 -10 57 -26.5t50 -38.5t40.5 -46.5t29.5 -53.5q12 -28 18 -59t6 -65v2v0v0zM647 370q0 20 -3.5 39t-10.5 36t-17 33t-24 30t-30 24t-33 17q-18 7 -37.5 10.5t-40.5 3.5q-25 0 -48 -5t-44 -14
q-22 -9 -41.5 -23t-36.5 -32q-18 -19 -31.5 -39t-22.5 -42t-13 -45.5t-4 -49.5q0 -22 3 -42t10 -38t17.5 -33.5t23.5 -29.5q14 -14 29 -24.5t33 -17.5t37.5 -10t41.5 -3q25 0 48 4.5t45 13.5q21 9 40.5 22.5t37.5 32.5q17 18 30.5 39t22.5 43q9 23 13.5 47t4.5 51v2v0v0z
M590 900l59 -160h-82l-61 91l-100 -91h-91l126 160h149v0v0v0z" />
    <glyph glyph-name="apple" unicode="&#xf000;" 
 />
    <glyph glyph-name="Ograve" unicode="&#xd2;" 
 />
    <glyph glyph-name="Uacute" unicode="&#xda;" horiz-adv-x="750" 
d="M744 682l-60 -425q-5 -36 -13.5 -66t-19.5 -54q-12 -24 -26.5 -43t-32.5 -33t-36.5 -25.5t-38.5 -19.5q-19 -8 -39.5 -12.5t-40.5 -7.5h-4.5t-4.5 -1h-4.5h-4.5q-4 0 -8 -0.5t-8 -1.5h-4.5h-4.5h-4t-4 -1h-4h-4h-4h-4q-40 0 -74 4t-63 12q-28 8 -51.5 21t-41.5 30
t-31.5 37t-22.5 42q-9 23 -13.5 47.5t-4.5 52.5v3.5v3.5v3v3v6.5t1 7.5v3.5v3.5q0 1 0.5 3t0.5 3q0 3 0.5 6.5t1.5 7.5l56 390h145l-55 -386q-1 -4 -1.5 -7t-0.5 -5v-5.5v-4.5q-1 -2 -1 -4.5v-4.5v-4.5v-4.5q0 -16 1.5 -29.5t5.5 -24.5q4 -12 10 -21t13 -17q8 -7 15.5 -14
t15.5 -12t16.5 -9t17.5 -6q2 -1 4 -1.5t4 -0.5q2 -1 4 -1.5t4 -0.5h1.5h1.5q1 -1 2 -1h2q2 -1 4 -1h4q4 -1 7.5 -1.5t7.5 -0.5h6.5h7.5v0v0h0.5h1.5v0v0h0.5h1.5q14 0 28 2.5t27 6.5q13 5 25.5 11t25.5 14q12 8 22 19.5t17 26.5q8 15 13.5 33t8.5 39l58 415h145v0v0v0z
M360 728l89 172h161l-177 -172h-73v0v0v0z" />
    <glyph glyph-name="Ucircumflex" unicode="&#xdb;" horiz-adv-x="750" 
d="M744 682l-60 -425q-5 -36 -13.5 -66t-19.5 -54q-12 -24 -26.5 -43t-32.5 -33t-36.5 -25.5t-38.5 -19.5q-19 -8 -39.5 -12.5t-40.5 -7.5h-4.5t-4.5 -1h-4.5h-4.5q-4 0 -8 -0.5t-8 -1.5h-4.5h-4.5h-4t-4 -1h-4h-4h-4h-4q-40 0 -74 4t-63 12q-28 8 -51.5 21t-41.5 30
t-31.5 37t-22.5 42q-9 23 -13.5 47.5t-4.5 52.5v3.5v3.5v3v3v6.5t1 7.5v3.5v3.5q0 1 0.5 3t0.5 3q0 3 0.5 6.5t1.5 7.5l56 390h145l-55 -386q-1 -4 -1.5 -7t-0.5 -5v-5.5v-4.5q-1 -2 -1 -4.5v-4.5v-4.5v-4.5q0 -16 1.5 -29.5t5.5 -24.5q4 -12 10 -21t13 -17q8 -7 15.5 -14
t15.5 -12t16.5 -9t17.5 -6q2 -1 4 -1.5t4 -0.5q2 -1 4 -1.5t4 -0.5h1.5h1.5q1 -1 2 -1h2q2 -1 4 -1h4q4 -1 7.5 -1.5t7.5 -0.5h6.5h7.5v0v0h0.5h1.5v0v0h0.5h1.5q14 0 28 2.5t27 6.5q13 5 25.5 11t25.5 14q12 8 22 19.5t17 26.5q8 15 13.5 33t8.5 39l58 415h145v0v0v0z
M549 900l59 -160h-82l-61 91l-100 -91h-91l126 160h149v0v0v0z" />
    <glyph glyph-name="Ugrave" unicode="&#xd9;" horiz-adv-x="750" 
d="M744 682l-60 -425q-5 -36 -13.5 -66t-19.5 -54q-12 -24 -26.5 -43t-32.5 -33t-36.5 -25.5t-38.5 -19.5q-19 -8 -39.5 -12.5t-40.5 -7.5h-4.5t-4.5 -1h-4.5h-4.5q-4 0 -8 -0.5t-8 -1.5h-4.5h-4.5h-4t-4 -1h-4h-4h-4h-4q-40 0 -74 4t-63 12q-28 8 -51.5 21t-41.5 30
t-31.5 37t-22.5 42q-9 23 -13.5 47.5t-4.5 52.5v3.5v3.5v3v3v6.5t1 7.5v3.5v3.5q0 1 0.5 3t0.5 3q0 3 0.5 6.5t1.5 7.5l56 390h145l-55 -386q-1 -4 -1.5 -7t-0.5 -5v-5.5v-4.5q-1 -2 -1 -4.5v-4.5v-4.5v-4.5q0 -16 1.5 -29.5t5.5 -24.5q4 -12 10 -21t13 -17q8 -7 15.5 -14
t15.5 -12t16.5 -9t17.5 -6q2 -1 4 -1.5t4 -0.5q2 -1 4 -1.5t4 -0.5h1.5h1.5q1 -1 2 -1h2q2 -1 4 -1h4q4 -1 7.5 -1.5t7.5 -0.5h6.5h7.5v0v0h0.5h1.5v0v0h0.5h1.5q14 0 28 2.5t27 6.5q13 5 25.5 11t25.5 14q12 8 22 19.5t17 26.5q8 15 13.5 33t8.5 39l58 415h145v0v0v0z
M545 728h-73l-177 172h161l89 -172v0v0v0z" />
    <glyph glyph-name="dotlessi" unicode="&#x131;" horiz-adv-x="260" 
d="M228 454l-64 -454h-135l64 454h135v0v0v0z" />
    <glyph glyph-name="circumflex" unicode="&#x2c6;" horiz-adv-x="333" 
d="M371 662q0 -19 -1.5 -35t-4.5 -30q-3 -13 -8 -25t-12 -22t-14.5 -17t-16.5 -12q-9 -4 -19.5 -6.5t-21.5 -2.5h-4h-4h-4t-4 1q-2 0 -4 0.5t-4 1.5t-4 1.5t-4 1.5q-3 1 -5.5 1.5t-4.5 1.5q-3 1 -5.5 2.5t-4.5 2.5q-3 1 -5.5 2t-4.5 2q-3 2 -5.5 3.5t-4.5 2.5q-4 2 -8.5 4.5
t-8.5 3.5q-4 2 -7.5 4t-7.5 4t-7.5 3.5t-6.5 2.5q-4 1 -7 1.5t-5 0.5q-4 0 -8 -1t-7 -3q-3 -1 -6 -3.5t-5 -5.5q-3 -3 -4.5 -6.5t-3.5 -8.5q-1 -4 -2.5 -9t-1.5 -10l-64 2q0 17 1.5 32.5t4.5 28.5q3 14 7.5 25t11.5 21q6 9 14 16.5t17 11.5q9 5 19 7.5t22 2.5q5 0 10.5 -0.5
t10.5 -1.5t10 -2.5t10 -3.5t9.5 -4t8.5 -4l4 -2t5 -2l4 -2l4 -2q4 -2 7.5 -4.5t7.5 -4.5t7.5 -4t7.5 -4q2 -1 3.5 -2t3.5 -2q1 0 3 -1t3 -1q3 -1 6 -1h6q4 0 7.5 0.5t6.5 1.5l6 4t5 5t4.5 7t3.5 8q1 2 1.5 4.5t1.5 5.5q0 3 0.5 6t1.5 6l64 2v0v0v0z" />
    <glyph glyph-name="tilde" unicode="&#x2dc;" horiz-adv-x="333" 
d="M305 676l59 -160h-82l-61 91l-100 -91h-91l126 160h149v0v0v0z" />
    <glyph glyph-name="macron" unicode="&#x2c9;" horiz-adv-x="333" 
d="M413 648l-29 -100h-387l29 100h387v0v0v0z" />
    <glyph glyph-name="breve" unicode="&#x2d8;" horiz-adv-x="333" 
d="M293 673h88q-1 -19 -5.5 -35.5t-10.5 -30.5t-14.5 -26t-19.5 -23q-11 -10 -23.5 -18.5t-26.5 -13.5t-29.5 -7.5t-32.5 -2.5q-16 0 -30.5 2.5t-26.5 7.5q-13 5 -23.5 12.5t-19.5 17.5t-16 22t-12 27q-5 14 -8 30.5t-4 35.5l88 2q1 -9 2.5 -16.5t3.5 -13.5t4.5 -11t6.5 -9
t8.5 -7.5t8.5 -5.5q5 -2 10.5 -3t12.5 -1q6 0 11.5 1t10.5 3t10.5 5.5t9.5 7.5q5 4 8.5 9t7.5 11q3 6 6 13t5 15v2v0v0z" />
    <glyph glyph-name="dotaccent" unicode="&#x2d9;" horiz-adv-x="333" 
d="M203 663q7 -1 13 -3l12 -4q5 -3 10.5 -6t10.5 -8t8 -10.5t6 -10.5q2 -6 3.5 -12t1.5 -13t-1.5 -13t-3.5 -12q-3 -6 -6 -11.5t-8 -10.5t-10.5 -9t-10.5 -6q-6 -2 -12 -3t-13 -1t-13 1t-12 3t-11.5 6t-10.5 9t-9 10.5t-6 11.5t-3 12t-1 13t1 13t3 12q2 5 6 10.5t9 10.5
t10.5 8t11.5 6q6 2 12 3.5t13 1.5v2v0v0z" />
    <glyph glyph-name="ring" unicode="&#x2da;" horiz-adv-x="333" 
d="M221 691q10 -1 19 -3.5t18 -6.5t17.5 -9t15.5 -13q8 -7 13 -15.5t9 -17.5t6 -18t2 -19t-2 -20t-6 -19t-9 -16.5t-13 -15.5q-7 -7 -15.5 -13t-17.5 -9q-9 -4 -18 -5.5t-19 -1.5t-20 1.5t-19 5.5q-9 3 -16.5 9t-15.5 13q-7 8 -13 15.5t-9 16.5q-4 9 -5.5 19t-1.5 20t1.5 19
t5.5 18q3 9 9 17.5t13 15.5q8 8 15.5 13t16.5 9t19 6t20 2v2v0v0zM221 646q-6 -1 -11 -2.5t-10 -3.5t-9.5 -5t-8.5 -7t-7 -8.5t-5 -9.5t-3 -10.5t-1 -10.5q0 -6 1 -11t3 -10t5 -9.5t7 -8.5t8.5 -7t9.5 -5t10 -3t11 -1q5 0 10.5 1t10.5 3t9.5 5t8.5 7t7 8.5t5 9.5t3 10t1 11
q0 5 -1 10.5t-3 10.5t-5 9.5t-7 8.5t-8.5 7t-9.5 5t-10.5 3t-10.5 1v2v0v0z" />
    <glyph glyph-name="cedilla" unicode="&#xb8;" horiz-adv-x="333" 
d="M192 9l-10 -32q6 -1 11.5 -3t10.5 -5t9 -7l8 -8q3 -5 6 -9.5t4 -9.5q2 -5 3 -11t1 -13q0 -10 -2 -19t-6 -16q-4 -8 -9.5 -14t-13.5 -12q-7 -5 -16.5 -9.5t-20.5 -7.5q-10 -3 -22 -4.5t-26 -1.5h-5.5h-4.5q-3 1 -5.5 1h-4.5q-5 0 -9.5 0.5t-9.5 1.5t-9.5 1.5t-8.5 1.5
t-7 2t-5 2l10 44q1 1 2 1t2 -1h1h2q2 0 4 -0.5t4 -1.5h2h2h1h2q2 0 4 -0.5t4 -1.5h0.5h1.5h0.5h1.5v0h1h0.5h1.5h2h2h2h2q6 0 12 0.5t10 1.5q5 1 9 2.5t8 3.5q3 2 6 4.5t4 5.5q2 3 3 6.5t1 7.5t-0.5 7t-2.5 6q-1 3 -3.5 5.5t-5.5 4.5t-6.5 3.5t-7.5 3.5q-4 1 -8 1.5t-9 0.5
l31 68h46v0v0v0z" />
    <glyph glyph-name="hungarumlaut" unicode="&#x2ba;" horiz-adv-x="333" 
d="M59 512l37 164h127l-103 -164h-61v0v0v0zM226 512l37 164h127l-103 -164h-61v0v0v0z" />
    <glyph glyph-name="ogonek" unicode="&#x2db;" horiz-adv-x="333" 
d="M359 -43v-74q-4 0 -7 -0.5t-6 -1.5t-6 -1.5t-5 -1.5q-3 0 -6 -0.5t-6 -1.5q-3 0 -5.5 -0.5t-4.5 -1.5h-2h-2h-2t-2 -1h-2h-2h-2h-2h-2h-2h-2t-2 -1h-2h-2h-2h-2q-13 0 -25 1.5t-23 3.5q-10 3 -18.5 6t-16.5 8q-7 4 -13 10t-10 12t-5.5 13.5t-1.5 15.5v4.5v4.5t0.5 4
t1.5 4q0 3 0.5 5t1.5 4t2 4.5t2 4.5t2 4.5t2 4.5q2 2 3.5 4t2.5 4q2 3 3.5 5t2.5 3l4 4l4 4l68 2q-3 -4 -5 -7t-4 -5q-2 -1 -3.5 -3.5t-2.5 -4.5q-1 -1 -1.5 -2t-1.5 -2q-1 -2 -1 -3.5v-2.5q-1 -1 -1.5 -2t-0.5 -2v-1.5v-1.5v-0.5v-1.5v0v-1v0v0v-0.5v-1.5v0v-1v0v0v-0.5
v-1.5v-3.5v-3.5q0 -1 0.5 -3t1.5 -3q2 -3 4 -5.5t5 -4.5q2 -2 5 -4t7 -3q3 -1 7.5 -1.5t8.5 -0.5h2h3q1 1 2.5 1h2.5h3h2q2 1 3 1h2q1 1 2 1.5t2 0.5h3.5h2.5q1 1 2 1.5t2 0.5h1.5h1.5q0 1 0.5 1h1.5q1 1 2 1.5t2 0.5q1 1 2 1h2q1 1 2 1.5t2 0.5q1 1 2 1.5t2 0.5q1 1 2 1.5
t2 0.5q1 1 2 1.5t2 1.5q2 1 4.5 2t5.5 2v-1v0v0z" />
    <glyph glyph-name="caron" unicode="&#x2c7;" horiz-adv-x="333" 
d="M134 516l-59 160h82l61 -91l100 91h91l-126 -160h-149v0v0v0z" />
    <glyph glyph-name="Lslash" unicode="&#x141;" horiz-adv-x="531" 
d="M281 682l-31 -222l157 127l-17 -115l-156 -127l-33 -231h310l-16 -114h-455l32 230l-73 -60l17 117l73 59l47 336h145v0v0v0z" />
    <glyph glyph-name="lslash" unicode="&#x142;" horiz-adv-x="260" 
d="M293 500l-14 -103l-64 -52l-48 -345h-135l33 237l-52 -42l14 105l53 43l48 339h135l-33 -232l63 50v0v0v0z" />
    <glyph glyph-name="Scaron" unicode="&#x160;" horiz-adv-x="521" 
d="M509 637l-20 -120q-3 1 -5.5 2.5t-4.5 2.5q-1 1 -2.5 1.5t-2.5 1.5q-2 1 -3 2t-3 2q-3 2 -6 3.5t-6 2.5q-3 2 -6 3.5t-6 2.5q-3 2 -6.5 3t-6.5 3q-4 1 -7 2.5t-6 2.5q-3 2 -6 3l-6 2q-4 2 -7 3l-6 2t-5.5 1.5t-4.5 1.5q-3 0 -5.5 0.5t-4.5 1.5q-4 2 -8.5 2.5t-9.5 1.5
t-9.5 1.5t-9.5 1.5h-4t-4 1h-4h-4q-10 0 -19.5 -1.5t-17.5 -3.5q-9 -3 -16.5 -7t-14.5 -9t-12.5 -11t-8.5 -13q-4 -7 -5.5 -14.5t-1.5 -15.5q0 -6 1 -12t3 -11t5.5 -9.5t7.5 -9.5q5 -4 9.5 -8.5t10.5 -9.5q6 -4 12 -8.5t13 -8.5q3 -3 6.5 -5.5t7.5 -4.5q4 -3 8 -5.5t8 -4.5
q1 -1 2 -1.5t2 -0.5q1 -1 2 -1.5t2 -1.5l4 -2t5 -2q2 -1 4 -2.5t4 -3.5q2 -1 4.5 -2t4.5 -2q11 -7 22.5 -15.5t22.5 -17.5t21 -18.5t20 -20.5q10 -10 17.5 -23t11.5 -27q5 -14 7.5 -30t2.5 -34q0 -21 -3.5 -40t-11.5 -37q-7 -18 -18 -35t-25 -33q-15 -16 -33 -27.5
t-40 -19.5q-22 -6 -46.5 -10t-53.5 -4q-19 0 -36 1.5t-34 3.5q-16 2 -31 4t-29 6t-27.5 9t-26.5 11t-25 13t-23 14l22 121q5 -5 10.5 -9.5t11.5 -8.5t12 -7t13 -6q6 -4 12.5 -7t13.5 -5q7 -3 13.5 -5.5t13.5 -4.5l12 -4l12 -4t12 -3.5t12 -2.5q3 -1 6 -1.5t6 -1.5
q2 0 5 -0.5t6 -0.5q6 -1 11.5 -1h10.5q11 0 21 1t19 4q9 2 16.5 6t14.5 9t12 11t8 13t5 14.5t2 16.5q0 8 -1.5 15t-4.5 14t-7.5 13.5t-10.5 12.5q-6 5 -12.5 10.5t-13.5 11.5t-14.5 11.5t-15.5 10.5q-1 1 -2.5 1.5t-3.5 1.5q-1 1 -2.5 2t-2.5 2q-1 0 -2.5 1t-3.5 2
q-1 1 -2.5 2t-3.5 2q-1 1 -2.5 1.5t-3.5 1.5q-1 1 -2.5 2t-2.5 2t-2.5 2t-3.5 2q-1 1 -2.5 2t-3.5 2q-12 8 -23 15.5t-22 16.5q-10 9 -20.5 18.5t-20.5 19.5t-17 21.5t-12 24.5q-5 14 -7.5 29t-2.5 32q0 22 4 42t13 39q8 18 21 34.5t30 31.5q17 14 36.5 25.5t40.5 18.5
q21 8 45 11.5t50 3.5h3.5h2.5h3.5h3.5q2 -1 3.5 -1h2.5h2h2h1h2q2 0 3.5 -0.5t3.5 -0.5q1 -1 3 -1h3h3.5h3.5q1 -1 3 -1h4q5 -1 9.5 -1.5t8.5 -1.5q5 -1 9.5 -2t9.5 -2t9.5 -2.5t8.5 -3.5q2 -1 4.5 -1.5t4.5 -0.5q2 -1 4.5 -1.5t4.5 -1.5q5 -2 9 -4t9 -3q4 -2 8.5 -4t8.5 -4
q5 -2 9 -4l8 -4q5 -3 9 -5l8 -4v2v0v0zM263 740l-59 160h82l61 -91l100 91h91l-126 -160h-149v0v0v0z" />
    <glyph glyph-name="scaron" unicode="&#x161;" horiz-adv-x="375" 
d="M359 421l-11 -107h-2h-2t-2 0.5t-2 1.5h-1.5t-1.5 1h-1.5h-0.5q-1 0 -2 0.5t-2 1.5l-4 2l-4 2l-4 2l-4 2q-7 2 -14.5 4.5t-14.5 4.5t-14 4.5t-14 3.5q-7 2 -13 2.5t-11 1.5t-9.5 1.5t-7.5 0.5q-4 0 -7 -0.5t-5 -1.5q-3 -1 -5.5 -1.5t-4.5 -2.5q-2 -1 -3.5 -2.5t-2.5 -3.5
q-1 -1 -1.5 -3.5t-0.5 -4.5v-1.5v-1.5v-1.5v-0.5v-2v-1q0 -1 0.5 -1.5l1.5 -1.5q0 -1 0.5 -2.5t1.5 -3.5l2 -2l2 -2q2 -4 5 -7.5t7 -6.5q2 -1 3.5 -3t3.5 -3q2 -2 4.5 -3.5t4.5 -3.5q5 -4 9.5 -7.5t9.5 -6.5q5 -4 10.5 -7.5t10.5 -7.5q7 -6 13.5 -12t12.5 -12q3 -3 6 -6.5
t7 -6.5q3 -4 6 -7.5t6 -6.5q6 -7 10.5 -15.5t7.5 -17.5t4.5 -18t1.5 -19q0 -16 -3 -30t-9 -27t-15 -24t-21 -21t-25.5 -17t-28.5 -12q-15 -3 -32 -5.5t-36 -2.5h-4.5h-4.5q-2 1 -4 1h-4h-4h-4q-2 1 -4 1h-4q-4 1 -8 1.5t-8 0.5q-4 1 -8 1.5t-8 1.5h-6t-5 1q-3 0 -6 0.5
t-6 1.5q-6 2 -11.5 3.5t-10.5 3.5l-6 2t-5 2q-3 1 -6 2.5t-6 2.5q-6 2 -12 5t-12 7l19 103l2 -2l2 -2q2 -1 3.5 -1.5t2.5 -0.5l1.5 -1.5t1.5 -0.5h1h2q0 -1 0.5 -1.5t1.5 -0.5h1.5h1.5q6 -2 12 -4.5t13 -4.5q6 -2 12.5 -4t13.5 -4q6 -2 12.5 -3.5t13.5 -2.5q6 -1 12.5 -1
h13.5h9.5t8.5 1t7.5 2.5t6.5 3.5t5.5 3.5t3.5 3.5q2 2 2.5 5t0.5 6q0 5 -1.5 9.5t-4.5 8.5q-3 5 -7.5 9.5t-10.5 9.5q-3 2 -6 4.5t-6 4.5q-4 2 -7 4.5t-6 5.5q-7 5 -13.5 11t-13.5 12q-7 5 -14 11t-13 12q-7 6 -13 12t-12 13t-10.5 14.5t-7.5 14.5q-3 8 -4.5 15.5t-1.5 16.5
q0 16 2.5 30.5t8.5 27.5q6 14 15 26t21 22t25.5 17.5t29.5 12.5q15 5 32 8t36 3h3.5h2.5h3.5h3.5q2 -1 3.5 -1h2.5h3.5h2.5h1.5h1.5q1 -1 1.5 -1h1.5h1.5h1.5q1 -1 2 -1h2h1.5h1.5q1 -1 1.5 -1h1.5h1.5h1.5q1 -1 1.5 -1h1.5q3 -1 5.5 -1.5t5.5 -0.5q2 -1 5 -1.5t6 -1.5
q5 -1 11 -3.5t12 -4.5q5 -2 11 -4.5t12 -5.5q3 -1 6 -3t6 -3q3 -2 6.5 -3.5t6.5 -3.5v2v0v0zM155 516l-59 160h82l61 -91l100 91h91l-126 -160h-149v0v0v0z" />
    <glyph glyph-name="Zcaron" unicode="&#x17d;" 
 />
    <glyph glyph-name="zcaron" unicode="&#x17e;" 
 />
    <glyph glyph-name="brokenbar" unicode="&#xa6;" 
 />
    <glyph glyph-name="Eth" unicode="&#xd0;" horiz-adv-x="750" 
d="M136 682h227q43 -1 80 -6.5t68 -15.5t56.5 -25.5t44.5 -35.5q20 -20 35.5 -41t27.5 -43t20.5 -45t12.5 -47q1 -5 1.5 -10t1.5 -10q0 -4 0.5 -8.5t1.5 -9.5v-5.5t1 -4.5v-4.5v-4.5v-4.5t1 -4.5v-4.5v-4.5q0 -38 -6 -72.5t-17 -66.5q-12 -31 -29.5 -59t-40.5 -53t-49 -43
t-55 -30q-28 -12 -59.5 -18t-65.5 -6h-352l40 289h-72l14 104h73l40 289v0v0v0zM265 568l-24 -175h176l-15 -104h-176l-24 -175h136q29 -1 54.5 3t47.5 13q21 9 39 22.5t31 31.5t23 37t17 39t10.5 41t4.5 43v0v1v0v0v0.5v1.5v0v1v0v0v0.5v1.5q0 23 -3.5 43.5t-11.5 39.5
q-7 20 -18.5 37t-25.5 33q-15 16 -33 28t-39 19q-22 8 -46.5 12t-52.5 4l-70 2v0v0v0z" />
    <glyph glyph-name="eth" unicode="&#xf0;" horiz-adv-x="552" 
d="M536 640l-91 -42q8 -10 14.5 -20t12.5 -20t11.5 -19.5t9.5 -20.5q2 -5 4.5 -10.5t4.5 -10.5q1 -3 2 -5.5t2 -4.5q0 -3 1 -5.5t2 -4.5l2 -6t2 -5q0 -3 1 -5.5t2 -4.5q1 -3 1.5 -5.5t1.5 -4.5q0 -3 0.5 -5.5t1.5 -5.5t1.5 -6.5t1.5 -6.5q0 -4 0.5 -7t1.5 -6q1 -6 1.5 -12
t1.5 -12q1 -7 1.5 -13t0.5 -12v-6t1 -6v-5.5v-5.5q0 -40 -5 -76.5t-15 -68.5q-10 -31 -25.5 -58.5t-35.5 -50.5t-42.5 -40.5t-47.5 -28.5q-25 -10 -51.5 -15.5t-55.5 -5.5q-25 0 -48 3.5t-44 9.5q-21 8 -39 19t-35 27q-16 15 -29 32.5t-21 36.5t-12 40t-4 44q0 26 4.5 50.5
t14.5 46.5q10 23 25 43t35 39t41 33t45 24q23 9 48.5 14t53.5 5h6t6 -1q2 0 5 -0.5t6 -0.5q6 -1 11.5 -1.5t10.5 -1.5q2 -1 4.5 -2t5.5 -1q2 -1 4.5 -2t4.5 -2t4.5 -2t5.5 -2q2 -2 4.5 -3t4.5 -2l1.5 -1.5t1.5 -0.5l1.5 -1.5l1.5 -1.5t2 -1.5t2 -0.5q1 -1 2 -1.5t2 -1.5
t2 -1.5t2 -1.5t2 -1.5t2 -0.5q0 -1 1 -2t2 -1q1 -1 2 -1.5t2 -1.5l2 4q-1 4 -3.5 8.5t-4.5 10.5q-1 3 -2.5 6t-2.5 6q-2 3 -3 6.5t-3 6.5q-4 7 -7.5 13.5t-7.5 13.5t-9 14l-10 14q-1 0 -1.5 0.5t-0.5 1.5l-1.5 1.5l-1.5 1.5q-1 2 -2 3.5t-2 2.5l-1.5 1.5t-0.5 1.5
q-1 0 -1.5 1t-0.5 2q-1 0 -2 0.5t-1 1.5l-1.5 1.5t-0.5 1.5l-106 -47l-24 42l92 43q-1 0 -2 0.5t-2 1.5t-2 1.5t-2 1.5t-2.5 1.5t-2.5 1.5t-2 1.5t-2 1.5q-1 0 -1.5 0.5t-0.5 1.5q-1 0 -1.5 0.5t-1.5 0.5q-1 1 -2 1.5t-2 1.5t-2.5 1.5t-3.5 1.5q-1 1 -2 1.5t-2 1.5l81 78
q2 -2 4.5 -3.5t5.5 -3.5q2 -1 4.5 -2.5t5.5 -2.5q2 -1 4.5 -2.5t5.5 -3.5q2 -1 4.5 -2.5t4.5 -3.5q2 -1 4 -2.5t5 -3.5q2 -1 4 -2.5t4 -3.5q2 -1 4 -3t4 -3q1 -2 3 -3.5t4 -3.5l102 49l24 -42v0v0v0zM372 255q0 10 -2 19t-5 18t-8 16.5t-11 14.5q-7 7 -14.5 12t-15.5 8
q-9 3 -18 5t-19 2q-12 0 -23 -3t-22 -8q-10 -6 -20 -14t-18 -19q-9 -11 -15 -23t-11 -25q-4 -13 -6 -26.5t-2 -27.5q0 -12 1.5 -23t4.5 -20q3 -10 7.5 -18t10.5 -15t13 -12.5t16 -8.5q8 -4 18 -5.5t20 -1.5q14 0 26 2.5t22 7.5q11 5 20.5 13.5t16.5 19.5q8 11 13.5 22.5
t9.5 23.5q5 12 7.5 25t3.5 26v1.5v1.5v1.5v1.5v0.5v1.5v0.5v1.5v0v1v0.5v1.5v2v0v0z" />
    <glyph glyph-name="Yacute" unicode="&#xdd;" 
 />
    <glyph glyph-name="yacute" unicode="&#xfd;" 
 />
    <glyph glyph-name="Thorn" unicode="&#xde;" horiz-adv-x="583" 
d="M141 682h145l-18 -129h78q23 -1 44 -5t40 -10q20 -6 38.5 -15.5t35.5 -22.5t29.5 -28.5t21.5 -34.5q8 -19 12.5 -41t4.5 -48q0 -29 -4.5 -54t-12.5 -46q-9 -21 -21 -37t-29 -28t-35 -21.5t-36 -16.5t-37 -11.5t-39 -6.5h-2h-2h-2h-2q-1 -1 -2.5 -1h-2.5h-2h-2h-4.5h-4.5
h-4h-4l-115 2l-18 -128h-145l95 682v0v0v0zM253 445l-29 -210h61q18 -1 33.5 0.5t28.5 5.5t23.5 10t18.5 14t14.5 16.5t10.5 18.5t6 20.5t2 21.5t-2 20.5t-6 18.5t-10 17.5t-14 15.5t-18.5 12t-23.5 9t-28 6t-32 2l-35 2v0v0v0z" />
    <glyph glyph-name="thorn" unicode="&#xfe;" horiz-adv-x="583" 
d="M34 -230l128 912h135l-32 -228q2 -1 4.5 -1h5.5t6 0.5t6 1.5h3t3 1h2.5h2.5h3t3 1q1 0 2.5 0.5t2.5 0.5h1.5h1.5h0.5h1.5h3.5t2.5 1h2h2h3.5h2.5h2h2h1.5h1.5l0.5 0.5t1.5 0.5h2h2h1.5h1.5h0.5h1.5q22 0 42 -3.5t38 -10.5t34 -17t30 -24q14 -13 24 -29t17 -34t10.5 -38
t3.5 -42q0 -28 -5 -55t-16 -51q-10 -24 -26 -45.5t-36 -41.5q-21 -20 -44 -35t-49 -24q-25 -9 -52.5 -13.5t-56.5 -4.5h-2h-2h-2h-2q-1 1 -2 1h-2h-1.5h-1.5h-2h-2h-2h-1q-1 1 -2 1h-2h-1.5h-1.5q-2 1 -4 1.5t-4 0.5h-2h-1q-1 1 -2 1h-2q-1 1 -2 1.5t-2 0.5h-2h-2
q-1 1 -2.5 1h-2.5h-2h-2l-32 -230h-135v0v0v0zM251 356l-34 -246l1.5 -1.5t1.5 -0.5q0 -1 0.5 -1.5t1.5 -0.5t1.5 -0.5t1.5 -0.5q0 -1 0.5 -1h1.5q1 -1 2 -1.5t2 -0.5t1.5 -0.5t1.5 -0.5h0.5h1.5q1 -1 2 -1.5t2 -0.5h3.5h2.5h2.5h2.5h3.5h3.5q16 0 30 2t27 6q12 5 22.5 11
t18.5 15q8 8 15 17t12 19q5 9 9.5 19.5t7.5 20.5v1.5t1 1.5v1.5v1.5q0 2 0.5 3.5t1.5 3.5v1.5t1 1.5v1.5v1.5v1.5t1 1.5v1.5v1.5v3.5v2.5v1.5t1 1.5v2v2v1.5t1 1.5v1.5v1.5v3.5v2.5q0 12 -2 22.5t-5 19.5t-8 17t-12 15t-15 12t-17 8q-10 3 -21 5t-24 2h-2.5h-3.5h-1.5h-1.5
q-1 -1 -1.5 -1h-1.5h-2h-2q-1 -1 -1.5 -1h-1.5h-2.5h-3.5q-4 -1 -7.5 -1.5t-6.5 -0.5h-3t-3 -1q-2 0 -3.5 -0.5t-3.5 -0.5v2v0v0z" />
    <glyph glyph-name="minus" unicode="&#x2212;" 
 />
    <glyph glyph-name="onesuperior" unicode="&#xb9;" 
 />
    <glyph glyph-name="twosuperior" unicode="&#xb2;" 
 />
    <glyph glyph-name="threesuperior" unicode="&#xb3;" 
 />
    <glyph glyph-name="onehalf" unicode="&#xbd;" horiz-adv-x="844" 
d="M644 691l-479 -718h-88l479 718h88v0v0v0zM718 75l-11 -75h-245l4 16q20 21 37.5 41t33.5 39q15 18 28.5 35t24.5 32t19.5 28t14.5 24q5 11 8 20t3 16v3.5t-1 3.5q0 1 -0.5 3t-1.5 3q-1 3 -3 5.5t-4 4.5t-5 4t-6 3t-6.5 1.5t-7.5 0.5h-6t-5 -1q-3 0 -6 -0.5t-6 -1.5
q-6 -1 -11.5 -3.5t-10.5 -5.5q-6 -3 -12 -6.5t-12 -7.5t-12 -7.5t-12 -8.5l12 89v-0.5t1 -0.5v0v0h0.5t1.5 1v0v0v0l1 1h0.5h0.5v0l1 1h0.5h0.5q1 0 1.5 0.5l1.5 1.5q5 3 10 5.5t10 4.5q2 1 4.5 2t5.5 2q2 0 4.5 1t5.5 2q5 2 10.5 2.5t11.5 1.5q5 1 11 1.5t13 0.5
q13 0 25 -2t22 -5q11 -4 20.5 -9t17.5 -12t14.5 -14.5t10.5 -16.5t6 -18t2 -20v-1.5v-1.5v-1.5v-1.5v-1.5v-0.5v0v0v-1v0q-1 -1 -1 -1.5v-0.5v0v0v-1v0q-1 -8 -3 -16.5t-5 -16.5q-4 -9 -8.5 -18t-10.5 -18q-6 -10 -14 -21t-19 -24q-10 -13 -23 -28.5t-28 -32.5l97 2v0v0v0z
M251 687l-58 -355h-95l58 355h95v0v0v0z" />
    <glyph glyph-name="onequarter" unicode="&#xbc;" 
 />
    <glyph glyph-name="threequarters" unicode="&#xbe;" 
 />
    <glyph glyph-name="franc" unicode="&#x20a3;" 
 />
    <glyph glyph-name="Gbreve" unicode="&#x11e;" 
 />
    <glyph glyph-name="gbreve" unicode="&#x11f;" 
 />
    <glyph glyph-name="Idot" unicode="&#x130;" 
 />
    <glyph glyph-name="Scedilla" unicode="&#x15e;" 
 />
    <glyph glyph-name="scedilla" unicode="&#x15f;" 
 />
    <glyph glyph-name="Cacute" unicode="&#x106;" 
 />
    <glyph glyph-name="cacute" unicode="&#x107;" 
 />
    <glyph glyph-name="ccaron" unicode="&#x10d;" 
 />
    <glyph glyph-name="Dcaron" unicode="&#x10e;" 
 />
    <glyph glyph-name="dslash" unicode="&#x111;" 
 />
    <glyph glyph-name="arrowright" unicode="&#x2192;" horiz-adv-x="500" 
 />
    <glyph glyph-name="house" unicode="&#x2302;" 
 />
    <glyph glyph-name="endash" unicode="&#x2013;" horiz-adv-x="500" 
d="M506 298v-134h-512v134h512v0v0v0z" />
    <glyph glyph-name="sfthyphen" unicode="&#xad;" horiz-adv-x="500" 
 />
    <glyph glyph-name="filledbox" unicode="&#x25a0;" horiz-adv-x="500" 
 />
    <glyph glyph-name="bullet" unicode="&#x2022;" horiz-adv-x="354" 
d="M188 485q15 -1 28.5 -4.5t26.5 -8.5t25 -12.5t22 -18.5q11 -10 18.5 -22t12.5 -25t8 -26.5t3 -28.5t-3 -29t-8 -27t-12.5 -24t-18.5 -22q-10 -10 -22 -18.5t-25 -13.5t-26.5 -7.5t-28.5 -2.5t-29 2.5t-27 7.5t-24 13.5t-22 18.5q-10 11 -18.5 22t-13.5 24t-7.5 27
t-2.5 29t2.5 28.5t7.5 26.5t13.5 25t18.5 22q11 11 22 18.5t24 12.5t27 8t29 3v2v0v0z" />
    <glyph glyph-name="overstore" unicode="&#xaf;" 
 />
    <glyph glyph-name="degree" unicode="&#xb0;" 
 />
    <glyph glyph-name="middot" unicode="&#xb7;" 
 />
    <glyph glyph-name="multiply" unicode="&#xd7;" 
 />
    <glyph glyph-name="underscoredbl" unicode="&#x2017;" 
 />
    <glyph glyph-name="exclamdbl" unicode="&#x203c;" 
 />
    <glyph glyph-name="nsuperior" unicode="&#x207f;" 
 />
    <glyph glyph-name="peseta" unicode="&#x20a7;" 
 />
    <glyph glyph-name="Gamma" unicode="&#x393;" 
 />
    <glyph glyph-name="Theta" unicode="&#x398;" 
 />
    <glyph glyph-name="Phi" unicode="&#x3a6;" 
 />
    <glyph glyph-name="alpha" unicode="&#x3b1;" 
 />
    <glyph glyph-name="delta" unicode="&#x3b4;" 
 />
    <glyph glyph-name="epsilon" unicode="&#x3b5;" 
 />
    <glyph glyph-name="sigma" unicode="&#x3c3;" 
 />
    <glyph glyph-name="tau" unicode="&#x3c4;" 
 />
    <glyph glyph-name="phi" unicode="&#x3c6;" 
 />
    <glyph glyph-name="arrowleft" unicode="&#x2190;" 
 />
    <glyph glyph-name="arrowup" unicode="&#x2191;" 
 />
    <glyph glyph-name="arrowdown" unicode="&#x2193;" 
 />
    <glyph glyph-name="arrowboth" unicode="&#x2194;" 
 />
    <glyph glyph-name="arrowupdn" unicode="&#x2195;" 
 />
    <glyph glyph-name="arrowupdnbase" unicode="&#x21a8;" 
 />
    <glyph glyph-name="orthogonal" unicode="&#x221f;" 
 />
    <glyph glyph-name="intersection" unicode="&#x2229;" 
 />
    <glyph glyph-name="equivalence" unicode="&#x2261;" 
 />
    <glyph glyph-name="revlogicalnot" unicode="&#x2310;" 
 />
    <glyph glyph-name="integraltp" unicode="&#x2320;" 
 />
    <glyph glyph-name="integralbt" unicode="&#x2321;" 
 />
    <glyph glyph-name="filledrect" unicode="&#x25ac;" 
 />
    <glyph glyph-name="circle" unicode="&#x25cb;" 
 />
    <glyph glyph-name="triagup" unicode="&#x25b2;" 
 />
    <glyph glyph-name="triagrt" unicode="&#x25ba;" 
 />
    <glyph glyph-name="triagdn" unicode="&#x25bc;" 
 />
    <glyph glyph-name="triaglf" unicode="&#x25c4;" 
 />
    <glyph glyph-name="invbullet" unicode="&#x25d8;" 
 />
    <glyph glyph-name="invcircle" unicode="&#x25d9;" 
 />
    <glyph glyph-name="Rcaron" unicode="&#x158;" 
 />
    <glyph glyph-name="upblock" unicode="&#x2580;" 
 />
    <glyph glyph-name="dnblock" unicode="&#x2584;" 
 />
    <glyph glyph-name="block" unicode="&#x2588;" 
 />
    <glyph glyph-name="lfblock" unicode="&#x258c;" 
 />
    <glyph glyph-name="rtblock" unicode="&#x2590;" 
 />
    <glyph glyph-name="ltshade" unicode="&#x2591;" 
 />
    <glyph glyph-name="shade" unicode="&#x2592;" 
 />
    <glyph glyph-name="dkshade" unicode="&#x2593;" 
 />
    <glyph glyph-name="smileface" unicode="&#x263a;" 
 />
    <glyph glyph-name="invsmileface" unicode="&#x263b;" 
 />
    <glyph glyph-name="sun" unicode="&#x263c;" 
 />
    <glyph glyph-name="female" unicode="&#x2640;" 
 />
    <glyph glyph-name="male" unicode="&#x2642;" 
 />
    <glyph glyph-name="spade" unicode="&#x2660;" 
 />
    <glyph glyph-name="club" unicode="&#x2663;" 
 />
    <glyph glyph-name="heart" unicode="&#x2665;" 
 />
    <glyph glyph-name="diamond" unicode="&#x2666;" 
 />
    <glyph glyph-name="musicalnote" unicode="&#x266a;" 
 />
    <glyph glyph-name="musicalnotedbl" unicode="&#x266b;" 
 />
    <glyph glyph-name="Abreve" unicode="&#x102;" 
 />
    <glyph glyph-name="abreve" unicode="&#x103;" 
 />
    <glyph glyph-name="Aogonek" unicode="&#x104;" 
 />
    <glyph glyph-name="aogonek" unicode="&#x105;" 
 />
    <glyph glyph-name="Ccaron" unicode="&#x10c;" 
 />
    <glyph glyph-name="dcaron" unicode="&#x10f;" 
 />
    <glyph glyph-name="Dslash" unicode="&#x110;" 
 />
    <glyph glyph-name="Eogonek" unicode="&#x118;" 
 />
    <glyph glyph-name="eogonek" unicode="&#x119;" 
 />
    <glyph glyph-name="Ecaron" unicode="&#x11a;" 
 />
    <glyph glyph-name="ecaron" unicode="&#x11b;" 
 />
    <glyph glyph-name="Lacute" unicode="&#x139;" 
 />
    <glyph glyph-name="lacute" unicode="&#x13a;" 
 />
    <glyph glyph-name="Lcaron" unicode="&#x13d;" 
 />
    <glyph glyph-name="lcaron" unicode="&#x13e;" 
 />
    <glyph glyph-name="Nacute" unicode="&#x143;" 
 />
    <glyph glyph-name="nacute" unicode="&#x144;" 
 />
    <glyph glyph-name="Ncaron" unicode="&#x147;" 
 />
    <glyph glyph-name="ncaron" unicode="&#x148;" 
 />
    <glyph glyph-name="Odblacute" unicode="&#x150;" 
 />
    <glyph glyph-name="odblacute" unicode="&#x151;" 
 />
    <glyph glyph-name="Racute" unicode="&#x154;" 
 />
    <glyph glyph-name="racute" unicode="&#x155;" 
 />
    <glyph glyph-name="rcaron" unicode="&#x159;" 
 />
    <glyph glyph-name="Sacute" unicode="&#x15a;" 
 />
    <glyph glyph-name="sacute" unicode="&#x15b;" 
 />
    <glyph glyph-name="Tcedilla" unicode="&#x162;" 
 />
    <glyph glyph-name="tcedilla" unicode="&#x163;" 
 />
    <glyph glyph-name="Tcaron" unicode="&#x164;" 
 />
    <glyph glyph-name="tcaron" unicode="&#x165;" 
 />
    <glyph glyph-name="Uring" unicode="&#x16e;" 
 />
    <glyph glyph-name="uring" unicode="&#x16f;" 
 />
    <glyph glyph-name="Udblacute" unicode="&#x171;" 
 />
    <glyph glyph-name="udblacute" unicode="&#x170;" 
 />
    <glyph glyph-name="Zacute" unicode="&#x179;" 
 />
    <glyph glyph-name="zacute" unicode="&#x17a;" 
 />
    <glyph glyph-name="Zdot" unicode="&#x17b;" 
 />
    <glyph glyph-name="zdot" unicode="&#x17c;" 
 />
    <glyph glyph-name="Ldot" unicode="&#x13f;" 
 />
    <glyph glyph-name="ldot" unicode="&#x140;" 
 />
    <glyph glyph-name="2500" unicode="&#x2500;" 
 />
    <glyph glyph-name="2502" unicode="&#x2502;" 
 />
    <glyph glyph-name="250c" unicode="&#x250c;" 
 />
    <glyph glyph-name="2510" unicode="&#x2510;" 
 />
    <glyph glyph-name="2514" unicode="&#x2514;" 
 />
    <glyph glyph-name="2518" unicode="&#x2518;" 
 />
    <glyph glyph-name="251c" unicode="&#x251c;" 
 />
    <glyph glyph-name="2524" unicode="&#x2524;" 
 />
    <glyph glyph-name="252c" unicode="&#x252c;" 
 />
    <glyph glyph-name="2534" unicode="&#x2534;" 
 />
    <glyph glyph-name="253c" unicode="&#x253c;" 
 />
    <glyph glyph-name="2550" unicode="&#x2550;" 
 />
    <glyph glyph-name="2551" unicode="&#x2551;" 
 />
    <glyph glyph-name="2552" unicode="&#x2552;" 
 />
    <glyph glyph-name="2553" unicode="&#x2553;" 
 />
    <glyph glyph-name="2554" unicode="&#x2554;" 
 />
    <glyph glyph-name="2555" unicode="&#x2555;" 
 />
    <glyph glyph-name="2556" unicode="&#x2556;" 
 />
    <glyph glyph-name="2557" unicode="&#x2557;" 
 />
    <glyph glyph-name="2558" unicode="&#x2558;" 
 />
    <glyph glyph-name="2559" unicode="&#x2559;" 
 />
    <glyph glyph-name="255a" unicode="&#x255a;" 
 />
    <glyph glyph-name="255b" unicode="&#x255b;" 
 />
    <glyph glyph-name="255c" unicode="&#x255c;" 
 />
    <glyph glyph-name="255d" unicode="&#x255d;" 
 />
    <glyph glyph-name="255e" unicode="&#x255e;" 
 />
    <glyph glyph-name="255f" unicode="&#x255f;" 
 />
    <glyph glyph-name="2560" unicode="&#x2560;" 
 />
    <glyph glyph-name="2561" unicode="&#x2561;" 
 />
    <glyph glyph-name="2562" unicode="&#x2562;" 
 />
    <glyph glyph-name="2563" unicode="&#x2563;" 
 />
    <glyph glyph-name="2564" unicode="&#x2564;" 
 />
    <glyph glyph-name="2565" unicode="&#x2565;" 
 />
    <glyph glyph-name="2566" unicode="&#x2566;" 
 />
    <glyph glyph-name="2567" unicode="&#x2567;" 
 />
    <glyph glyph-name="2568" unicode="&#x2568;" 
 />
    <glyph glyph-name="2569" unicode="&#x2569;" 
 />
    <glyph glyph-name="256a" unicode="&#x256a;" 
 />
    <glyph glyph-name="256b" unicode="&#x256b;" 
 />
    <glyph glyph-name="256c" unicode="&#x256c;" 
 />
    </font>
</defs>
</svg>
